<svg xmlns="http://www.w3.org/2000/svg" width="14" height="14.001" viewBox="0 0 14 14.001">
  <g id="add_to_cart" data-name="add to cart" transform="translate(0 0)">
    <rect id="Rectangle_3102" data-name="Rectangle 3102" width="14" height="14" transform="translate(0 0)" fill="none"/>
    <path id="Path_16685" data-name="Path 16685" d="M12.352,3.157H10.572L9.159.353A.63.63,0,0,0,8.034.918L9.149,3.157H4.82L5.956.928A.632.632,0,1,0,4.83.353L3.4,3.157H1.648A1.665,1.665,0,0,0,0,4.82V5.96A1.637,1.637,0,0,0,.768,7.346l.072.041.45,4.2A2.7,2.7,0,0,0,3.971,14h6.048A2.705,2.705,0,0,0,12.7,11.587l.45-4.19.072-.041A1.616,1.616,0,0,0,14,5.96V4.82a1.658,1.658,0,0,0-1.648-1.663M11.431,11.6a1.429,1.429,0,0,1-1.4,1.14H3.991a1.443,1.443,0,0,1-1.433-1.294l-.409-3.83h9.732Zm1.33-5.637a.387.387,0,0,1-.389.38H1.658a.387.387,0,0,1-.389-.38V4.82a.389.389,0,0,1,.389-.39H12.373a.389.389,0,0,1,.389.39Z"/>
  </g>
</svg>
