<svg id="buy_now" xmlns="http://www.w3.org/2000/svg" width="14" height="14" viewBox="0 0 14 14">
  <path id="Path_16682" data-name="Path 16682" d="M.636,1.273H3.182a.636.636,0,0,1,.636.636h0a.636.636,0,0,1-.636.636H.636A.637.637,0,0,1,0,1.909H0A.636.636,0,0,1,.636,1.273Z"/>
  <path id="Path_16683" data-name="Path 16683" d="M0,8.273a2.266,2.266,0,0,1,1.718-2.2l3.373-.84V1.909a1.909,1.909,0,1,1,3.818,0V5.091a2.724,2.724,0,0,1,2.545,2.717v.465A5.727,5.727,0,0,1,0,8.273Zm8.909-.636a.636.636,0,0,1-1.273,0V1.909a.636.636,0,0,0-1.273,0V5.231c0,.585-.395,1.095-1.273,1.311l-3.067.77a.968.968,0,0,0-.751.916A4.455,4.455,0,0,0,5.706,12.7a4.532,4.532,0,0,0,.454-.021,4.569,4.569,0,0,0,4.022-4.569v-.3A1.445,1.445,0,0,0,8.908,6.364V7.637Z"/>
  <path id="Path_16684" data-name="Path 16684" d="M12.091,3.818A1.909,1.909,0,1,1,14,1.909a1.909,1.909,0,0,1-1.909,1.909Zm0-2.545a.636.636,0,1,0,.636.636A.636.636,0,0,0,12.091,1.273Z"/>
</svg>
