<svg width="58" height="28" viewBox="0 0 58 28" fill="none" xmlns="http://www.w3.org/2000/svg">
<g clip-path="url(#clip0_211_583)">
<rect width="58" height="28" rx="3" fill="white"/>
<path d="M26.2852 12.3369C25.7472 11.6736 25.4603 10.8418 25.4752 9.9879V9.9659C25.4675 9.48294 25.5564 9.00331 25.7365 8.55513C25.9166 8.10695 26.1844 7.69924 26.5242 7.3559L26.5267 7.35645L26.5292 7.3559C26.6122 7.2729 26.6962 7.1949 26.7852 7.1189C27.3712 6.616 28.107 6.32102 28.8782 6.2799C28.8998 6.27854 28.9215 6.27854 28.9432 6.2799C28.9862 6.2799 29.0292 6.2749 29.0722 6.2749C29.1342 6.2749 29.1932 6.2799 29.2552 6.2829C29.3111 6.28543 29.3668 6.29077 29.4222 6.2989C30.0403 6.36086 30.63 6.58968 31.1282 6.9609C31.2035 7.0149 31.2762 7.07124 31.3462 7.1299C31.7569 7.48348 32.0859 7.92211 32.3104 8.41542C32.5348 8.90873 32.6494 9.44494 32.6462 9.9869V10.0029C32.6462 10.1319 32.6382 10.2559 32.6272 10.3819C32.5868 10.8677 32.4447 11.3396 32.2102 11.7669C32.1832 11.8179 32.1542 11.8669 32.1242 11.9199C32.0942 11.9729 32.0622 12.0199 32.0302 12.0709C31.9982 12.1219 31.9472 12.1919 31.9042 12.2509C31.8612 12.3099 31.8042 12.3799 31.7532 12.4419L31.6912 12.5119C31.6612 12.5439 31.6322 12.5769 31.5972 12.6119C31.2603 12.967 30.8527 13.2474 30.4008 13.4352C29.9488 13.6229 29.4624 13.7138 28.9732 13.7019C28.4839 13.69 28.0026 13.5757 27.5602 13.3662C27.1179 13.1568 26.7244 12.8569 26.4052 12.4859C26.3652 12.4399 26.3242 12.3949 26.2872 12.3459" fill="white"/>
<path d="M32.776 25.073C30.372 25.8971 27.7644 25.9122 25.351 25.116C25.3497 25.1166 25.3484 25.1169 25.347 25.1169C25.3456 25.1169 25.3443 25.1166 25.343 25.116V19.085C25.3366 18.9877 25.3559 18.8905 25.399 18.803C25.412 18.776 25.426 18.752 25.439 18.728C25.4535 18.7037 25.4695 18.6803 25.487 18.658C25.503 18.636 25.525 18.612 25.546 18.588L25.611 18.523C25.6355 18.4984 25.6627 18.4766 25.692 18.458C25.727 18.431 25.762 18.407 25.792 18.383C25.9103 18.3077 26.0356 18.2437 26.166 18.192C26.2409 18.1573 26.3181 18.1275 26.397 18.103L26.467 18.079L26.612 18.033C26.693 18.009 26.771 17.987 26.849 17.968C26.927 17.949 26.975 17.936 27.037 17.925C27.158 17.898 27.276 17.877 27.379 17.858L27.511 17.836L27.592 17.825C27.6125 17.8203 27.6332 17.8166 27.654 17.814C29.047 17.6038 30.4697 17.7153 31.813 18.14C31.958 18.1886 32.0969 18.2537 32.227 18.334C32.3602 18.4109 32.4846 18.5021 32.598 18.606C32.6519 18.6662 32.693 18.7366 32.719 18.813C32.7315 18.85 32.7415 18.8877 32.749 18.926C32.758 18.963 32.7617 19.001 32.76 19.039C32.7641 19.0722 32.7641 19.1058 32.76 19.139L32.776 25.073Z" fill="white"/>
<path d="M29.0477 13.6929C28.5472 13.6823 28.0542 13.5689 27.5993 13.3597C27.1445 13.1505 26.7375 12.85 26.4037 12.4769C26.7229 12.8479 27.1164 13.1478 27.5588 13.3572C28.0011 13.5667 28.4824 13.681 28.9717 13.6929C29.461 13.7048 29.9473 13.6139 30.3993 13.4262C30.8513 13.2384 31.2588 12.9579 31.5957 12.6029C30.9228 13.2873 30.0074 13.6789 29.0477 13.6929ZM29.4217 6.2929C30.0375 6.36469 30.6247 6.59256 31.1277 6.9549C30.6296 6.58368 30.0399 6.35486 29.4217 6.2929ZM28.6737 6.2929C28.6475 6.29506 28.6215 6.29874 28.5957 6.3039C28.5197 6.31241 28.4443 6.3251 28.3697 6.3419C28.2864 6.35743 28.204 6.37712 28.1227 6.4009C28.0427 6.4249 27.9857 6.4409 27.9227 6.4659C27.8976 6.47281 27.8732 6.48184 27.8497 6.4929C27.8017 6.5089 27.7557 6.5279 27.7067 6.5489C27.6515 6.57058 27.5978 6.59563 27.5457 6.6239C27.5233 6.63224 27.5016 6.64227 27.4807 6.6539C27.4187 6.6859 27.3567 6.7209 27.2977 6.7539C27.2737 6.7669 27.2517 6.7809 27.2277 6.7969C27.7295 6.49347 28.2966 6.31448 28.8817 6.2749C28.8148 6.27597 28.748 6.28132 28.6817 6.2909M27.0167 6.9389C27.0834 6.8909 27.15 6.8459 27.2167 6.8039L27.2277 6.7959C27.2236 6.79633 27.2197 6.79808 27.2167 6.8009C27.1467 6.8439 27.0797 6.8909 27.0167 6.9389ZM25.8007 18.3789C25.9202 18.3056 26.0453 18.2418 26.1747 18.1879C26.0443 18.2396 25.919 18.3035 25.8007 18.3789ZM25.3457 19.0789V25.1099C25.347 25.1105 25.3483 25.1107 25.3497 25.1107C25.3511 25.1107 25.3524 25.1105 25.3537 25.1099V19.0809C25.3483 18.9842 25.3657 18.8876 25.4047 18.7989C25.3616 18.8864 25.3423 18.9836 25.3487 19.0809" fill="#2B2C7F"/>
<path d="M37.3395 5.83007C37.2025 5.69307 37.0655 5.55607 36.9195 5.42407C36.8255 5.33807 36.7285 5.25207 36.6315 5.16807C36.5345 5.08407 36.4375 5.00107 36.3385 4.92007C34.272 3.22755 31.6841 2.3009 29.0129 2.29689C26.3417 2.29288 23.7512 3.21176 21.6795 4.89807C21.6704 4.90372 21.662 4.91043 21.6545 4.91807C21.5735 4.98307 21.4955 5.04707 21.4175 5.11807C19.8498 6.46979 18.6678 8.21234 17.9914 10.1687C17.3151 12.1251 17.1685 14.2257 17.5667 16.257C17.9648 18.2883 18.8935 20.1781 20.2583 21.7345C21.6231 23.2908 23.3755 24.4582 25.3375 25.1181V19.0871C25.3311 18.9898 25.3504 18.8925 25.3935 18.8051C25.402 18.7778 25.4156 18.7523 25.4335 18.7301C25.4451 18.704 25.4614 18.6803 25.4815 18.6601C25.4981 18.6343 25.5179 18.6108 25.5405 18.5901L25.6055 18.5251C25.6301 18.5005 25.6572 18.4787 25.6865 18.4601C25.7215 18.4331 25.7565 18.4091 25.7865 18.3851C25.9049 18.3097 26.0301 18.2458 26.1605 18.1941C26.2355 18.1593 26.3126 18.1296 26.3915 18.1051L26.4615 18.0811L26.6065 18.0351C26.6875 18.0111 26.7655 17.9891 26.8435 17.9701C26.9215 17.9511 26.9695 17.9381 27.0315 17.9271C27.1525 17.9001 27.2705 17.8791 27.3735 17.8601C27.4215 17.8521 27.4645 17.8471 27.5055 17.8381C27.5322 17.8325 27.5593 17.8288 27.5865 17.8271C27.607 17.8223 27.6277 17.8186 27.6485 17.8161C29.0416 17.6058 30.4643 17.7173 31.8075 18.1421C31.9525 18.1907 32.0914 18.2558 32.2215 18.3361C32.3547 18.413 32.4791 18.5042 32.5925 18.6081C32.6464 18.6682 32.6875 18.7386 32.7135 18.8151C32.7273 18.8516 32.7373 18.8895 32.7435 18.9281C32.7512 18.9652 32.7549 19.0031 32.7545 19.0411C32.7569 19.0745 32.7552 19.1081 32.7495 19.1411L32.7605 25.0781C34.6228 24.4307 36.292 23.3246 37.614 21.8619C38.936 20.3991 39.8682 18.6269 40.3245 16.7088C40.7808 14.7908 40.7465 12.7886 40.2248 10.8873C39.7031 8.98595 38.7108 7.24668 37.3395 5.83007ZM32.6425 9.99807C32.6425 10.1271 32.6345 10.2511 32.6235 10.3771C32.5831 10.8629 32.4411 11.3347 32.2065 11.7621C32.1821 11.8153 32.1533 11.8665 32.1205 11.9151C32.0905 11.9661 32.0585 12.0151 32.0265 12.0661C31.9945 12.1171 31.9435 12.1871 31.9005 12.2461C31.8575 12.3051 31.8005 12.3751 31.7495 12.4371L31.6875 12.5071C31.6575 12.5391 31.6285 12.5721 31.5935 12.6071C31.2567 12.9621 30.8491 13.2426 30.3971 13.4303C29.9451 13.6181 29.4588 13.7089 28.9695 13.6971C28.4803 13.6852 27.9989 13.5708 27.5566 13.3614C27.1143 13.1519 26.7208 12.852 26.4015 12.4811C26.3615 12.4351 26.3205 12.3901 26.2835 12.3411C26.1923 12.2278 26.1078 12.1093 26.0305 11.9861C25.9235 11.8201 25.8312 11.6451 25.7545 11.4631L25.7065 11.3371C25.6875 11.2891 25.6685 11.2371 25.6555 11.1921C25.6425 11.1471 25.6235 11.0981 25.6095 11.0491C25.5955 11.0001 25.5855 10.9631 25.5745 10.9171L25.5345 10.7341L25.5185 10.6341C25.5075 10.5691 25.4995 10.5051 25.4915 10.4401C25.4865 10.3941 25.4835 10.3511 25.4805 10.3051C25.4752 10.2542 25.4725 10.2032 25.4725 10.1521V9.77907C25.4712 9.73326 25.4739 9.68742 25.4805 9.64207C25.4855 9.57207 25.4915 9.50207 25.4995 9.43507C25.5045 9.38907 25.5125 9.34107 25.5215 9.29507C25.5305 9.24907 25.5375 9.21407 25.5435 9.17407C25.5495 9.13407 25.5655 9.07407 25.5785 9.02607C25.6058 8.90973 25.6392 8.79491 25.6785 8.68207L25.7345 8.53407C25.7737 8.43689 25.8177 8.34176 25.8665 8.24907C25.8885 8.20907 25.9095 8.16807 25.9335 8.12807C25.9875 8.03407 26.0435 7.94007 26.1055 7.85107C26.1608 7.77102 26.2202 7.69391 26.2835 7.62007C26.2846 7.61495 26.2875 7.61037 26.2915 7.60707C26.3265 7.56707 26.3585 7.52607 26.3915 7.48907C26.4245 7.45207 26.4695 7.40007 26.5095 7.36007C26.5108 7.35987 26.5119 7.35928 26.5128 7.35838C26.5137 7.35749 26.5143 7.35632 26.5145 7.35507C26.5975 7.27207 26.6815 7.19407 26.7705 7.11807C26.8435 7.05607 26.9155 7.00007 26.9935 6.94307C27.0715 6.88607 27.1285 6.84907 27.1935 6.80607C27.1985 6.80607 27.2015 6.80107 27.2045 6.80107C27.2285 6.78507 27.2505 6.77107 27.2745 6.75807C27.3335 6.72307 27.3955 6.68807 27.4575 6.65807C27.4784 6.64644 27.5001 6.63641 27.5225 6.62807C27.5765 6.60107 27.6305 6.57407 27.6835 6.55307C27.7365 6.53207 27.7775 6.51307 27.8265 6.49707C27.85 6.486 27.8745 6.47697 27.8995 6.47007C27.9665 6.44607 28.0365 6.42407 28.0995 6.40507C28.1625 6.38607 28.2635 6.36207 28.3475 6.34607C28.4221 6.32926 28.4976 6.31658 28.5735 6.30807C28.6003 6.30332 28.6274 6.29998 28.6545 6.29807C28.7215 6.29007 28.7895 6.28507 28.8545 6.28207C28.8762 6.28071 28.8979 6.28071 28.9195 6.28207C28.9625 6.28207 29.0055 6.27707 29.0485 6.27707C29.1105 6.27707 29.1695 6.28207 29.2315 6.28507C29.2864 6.2867 29.3411 6.29104 29.3955 6.29807C30.0137 6.36002 30.6034 6.58885 31.1015 6.96007C31.1771 7.01255 31.2499 7.06896 31.3195 7.12907C31.4968 7.27957 31.6589 7.44703 31.8035 7.62907C31.8355 7.66907 31.8655 7.71007 31.8975 7.75007C31.9286 7.79039 31.9573 7.83246 31.9835 7.87607C32.0087 7.90807 32.0321 7.94146 32.0535 7.97607C32.0865 8.02545 32.1169 8.07652 32.1445 8.12907C32.1495 8.13707 32.1555 8.14207 32.1555 8.15107C32.178 8.18268 32.1977 8.21614 32.2145 8.25107C32.2385 8.29707 32.2625 8.34507 32.2845 8.39407C32.3065 8.44307 32.3225 8.47507 32.3385 8.51807C32.3852 8.62497 32.4256 8.73449 32.4595 8.84607C32.4865 8.93207 32.5105 9.02107 32.5295 9.11007C32.5323 9.11986 32.534 9.12992 32.5345 9.14007C32.5455 9.18307 32.5535 9.22607 32.5615 9.27207C32.5775 9.35807 32.5885 9.44107 32.5965 9.52807C32.6015 9.57607 32.6075 9.62207 32.6095 9.67107C32.6115 9.72007 32.6145 9.77107 32.6145 9.81607V9.98307L32.6425 9.99807Z" fill="#2B2C7F"/>
<path d="M32.6436 9.981V10.002C32.6436 10.131 32.6356 10.255 32.6246 10.381C32.5753 10.8651 32.4338 11.3352 32.2076 11.766C32.1806 11.817 32.1516 11.866 32.1216 11.919C32.0916 11.972 32.0596 12.019 32.0276 12.07C31.9956 12.121 31.9446 12.191 31.9016 12.25C31.8586 12.309 31.8016 12.379 31.7506 12.441L31.6886 12.511C31.6586 12.543 31.6296 12.576 31.5946 12.611C31.2578 12.9661 30.8502 13.2465 30.3982 13.4343C29.9462 13.622 29.4599 13.7129 28.9706 13.701C28.4814 13.6891 28 13.5748 27.5577 13.3653C27.1154 13.1559 26.7219 12.856 26.4026 12.485C26.3626 12.439 26.3216 12.394 26.2846 12.345C25.7576 11.6757 25.4721 10.8479 25.4746 9.996V9.974C25.4756 9.00147 25.8513 8.06672 26.5236 7.364L26.5269 7.36232L26.5286 7.359C26.6116 7.276 26.6956 7.198 26.7846 7.122C27.3706 6.6191 28.1065 6.32412 28.8776 6.283C28.8993 6.28164 28.921 6.28164 28.9426 6.283H29.0716C29.1336 6.283 29.1956 6.283 29.2546 6.288C29.3105 6.29053 29.3663 6.29587 29.4216 6.304C30.0398 6.36596 30.6295 6.59478 31.1276 6.966C31.203 7.02 31.2756 7.07634 31.3456 7.135C31.5229 7.28551 31.685 7.45297 31.8296 7.635C32.3597 8.30492 32.647 9.13475 32.6446 9.989" fill="#F05A28"/>
<path d="M32.7709 19.0361C32.7749 19.0693 32.7749 19.1029 32.7709 19.1361H32.7489C32.7443 19.136 32.7399 19.1371 32.736 19.1394C32.7321 19.1417 32.7289 19.1451 32.7269 19.1491C32.7185 19.1747 32.7085 19.1998 32.6969 19.2241C32.6841 19.251 32.6698 19.277 32.6539 19.3021C32.6379 19.3261 32.6219 19.3481 32.6029 19.3721C32.5838 19.3958 32.5631 19.4182 32.5409 19.4391L32.4929 19.4851C32.4819 19.4961 32.4689 19.5041 32.4579 19.5151C32.4279 19.5391 32.3959 19.5631 32.3639 19.5851C32.3532 19.5915 32.3432 19.5988 32.3339 19.6071C32.3099 19.6201 32.2859 19.6371 32.2609 19.6531C32.2359 19.6691 32.1879 19.6931 32.1509 19.7121C32.1139 19.7311 32.0649 19.7551 32.0189 19.7741L31.9999 19.7821C31.9489 19.8041 31.8999 19.8251 31.8469 19.8441C31.7425 19.8843 31.6356 19.9177 31.5269 19.9441C31.4199 19.9711 31.3389 19.9951 31.2529 20.0171C31.1669 20.0391 31.0809 20.0571 31.0029 20.0731C30.9649 20.0841 30.9299 20.0891 30.8949 20.0971C29.8844 20.2849 28.8514 20.3186 27.8309 20.1971C27.7769 20.1921 27.7069 20.1811 27.6239 20.1671C27.4889 20.1481 27.3239 20.1161 27.1369 20.0761C27.0719 20.0631 27.0049 20.0461 26.9369 20.0301L26.7939 19.9951L26.6489 19.9691C26.5532 19.9451 26.459 19.9154 26.3669 19.8801L26.2669 19.8421L26.1029 19.7771L25.9789 19.7211C25.9389 19.6991 25.8979 19.6811 25.8609 19.6591L25.7799 19.6131C25.7303 19.5826 25.6825 19.5492 25.6369 19.5131C25.5969 19.4824 25.5592 19.449 25.5239 19.4131C25.5025 19.3884 25.4828 19.3624 25.4649 19.3351C25.4501 19.3129 25.4374 19.2895 25.4269 19.2651C25.4194 19.2496 25.413 19.2335 25.4079 19.2171C25.4079 19.2171 25.4079 19.2121 25.4079 19.2091V19.1981C25.4066 19.1901 25.4066 19.182 25.4079 19.1741C25.4024 19.1539 25.3997 19.133 25.3999 19.1121V19.1011C25.3998 19.0985 25.3992 19.0959 25.398 19.0935C25.3967 19.0912 25.395 19.0891 25.3929 19.0876C25.3907 19.086 25.3883 19.085 25.3857 19.0846C25.3831 19.0841 25.3804 19.0843 25.3779 19.0851H25.3489C25.3424 18.9878 25.3618 18.8905 25.4049 18.8031C25.4179 18.7761 25.4319 18.7521 25.4449 18.7281C25.4594 18.7038 25.4754 18.6804 25.4929 18.6581C25.5089 18.6361 25.5309 18.6121 25.5519 18.5881L25.6169 18.5231C25.6414 18.4985 25.6686 18.4767 25.6979 18.4581C25.7329 18.4311 25.7679 18.4071 25.7979 18.3831C25.9162 18.3077 26.0414 18.2438 26.1719 18.1921C26.2468 18.1573 26.324 18.1276 26.4029 18.1031L26.4729 18.0791L26.6179 18.0331C26.6989 18.0091 26.7769 17.9871 26.8549 17.9681C26.9329 17.9491 26.9809 17.9381 27.0429 17.9251C27.1639 17.8981 27.2819 17.8771 27.3849 17.8581C27.4329 17.8501 27.4759 17.8451 27.5169 17.8361C27.5436 17.8305 27.5706 17.8268 27.5979 17.8251L27.6569 17.8171C29.0489 17.607 30.4706 17.7185 31.8129 18.1431C31.9583 18.1941 32.0989 18.258 32.2329 18.3341C32.3641 18.4138 32.4876 18.5055 32.6019 18.6081C32.6548 18.6668 32.6968 18.7345 32.7259 18.8081C32.7384 18.845 32.7484 18.8828 32.7559 18.9211C32.7635 18.9583 32.7672 18.9961 32.7669 19.0341" fill="#FCB712"/>
<path d="M32.7768 25.073C30.3727 25.8971 27.7651 25.9122 25.3518 25.116C25.3505 25.1165 25.3491 25.1168 25.3478 25.1168C25.3464 25.1168 25.345 25.1165 25.3438 25.116V19.085H25.3628C25.3653 19.0842 25.3679 19.084 25.3705 19.0845C25.3732 19.0849 25.3756 19.0859 25.3778 19.0875C25.3799 19.089 25.3816 19.0911 25.3828 19.0934C25.3841 19.0957 25.3847 19.0983 25.3848 19.101V19.112C25.3846 19.1329 25.3873 19.1538 25.3928 19.174C25.3931 19.1822 25.3948 19.1903 25.3978 19.198C25.3978 19.198 25.3978 19.206 25.3978 19.209V19.217C25.4029 19.2334 25.4093 19.2495 25.4167 19.265C25.4273 19.2894 25.44 19.3128 25.4548 19.335C25.4727 19.3622 25.4924 19.3883 25.5138 19.413C25.549 19.4489 25.5868 19.4823 25.6268 19.513C25.6724 19.5491 25.7202 19.5825 25.7698 19.613L25.8507 19.659C25.8887 19.681 25.9288 19.699 25.9688 19.721L26.0928 19.777L26.2568 19.842L26.3568 19.88C26.4489 19.9153 26.5431 19.945 26.6388 19.969L26.7818 20.009L26.9248 20.044L27.1248 20.09C27.3078 20.128 27.4768 20.16 27.6118 20.181C27.6948 20.192 27.7648 20.203 27.8188 20.208C28.8393 20.3295 29.8723 20.2958 30.8828 20.108C30.9178 20.103 30.9527 20.095 30.9907 20.086C31.0687 20.07 31.1521 20.0513 31.2407 20.03C31.3267 20.008 31.4208 19.984 31.5148 19.957C31.6088 19.93 31.7298 19.892 31.8348 19.857C31.8858 19.838 31.9348 19.817 31.9878 19.795L32.0068 19.787C32.0528 19.768 32.0958 19.747 32.1388 19.725C32.1818 19.703 32.2138 19.687 32.2488 19.666C32.2838 19.645 32.2968 19.634 32.3218 19.62C32.331 19.6117 32.3411 19.6044 32.3517 19.598C32.3837 19.576 32.4168 19.552 32.4458 19.528C32.4568 19.517 32.4698 19.509 32.4808 19.498L32.5288 19.452C32.5508 19.43 32.5718 19.406 32.5908 19.385C32.6094 19.3629 32.6265 19.3395 32.6418 19.315C32.6577 19.2899 32.672 19.2638 32.6847 19.237C32.6964 19.2127 32.7064 19.1876 32.7148 19.162C32.7161 19.1575 32.7192 19.1536 32.7232 19.1512C32.7273 19.1488 32.7321 19.148 32.7368 19.149H32.7547L32.7768 25.073Z" fill="white"/>
</g>
<defs>
<clipPath id="clip0_211_583">
<rect width="58" height="28" rx="3" fill="white"/>
</clipPath>
</defs>
</svg>
