<svg id="introimage_c" xmlns="http://www.w3.org/2000/svg" xmlns:xlink="http://www.w3.org/1999/xlink" width="264.993" height="234.987" viewBox="0 0 264.993 234.987">
  <defs>
    <clipPath id="clip-path">
      <rect id="Rectangle_3029" data-name="Rectangle 3029" width="264.993" height="234.987" fill="none"/>
    </clipPath>
    <clipPath id="clip-path-3">
      <rect id="Rectangle_3023" data-name="Rectangle 3023" width="26.646" height="21.456" transform="translate(201.898 170.954)" fill="none"/>
    </clipPath>
    <clipPath id="clip-path-4">
      <rect id="Rectangle_3024" data-name="Rectangle 3024" width="49.864" height="16.846" transform="translate(168.026 113.833)" fill="none"/>
    </clipPath>
    <clipPath id="clip-path-5">
      <rect id="Rectangle_3025" data-name="Rectangle 3025" width="52.446" height="45.496" transform="translate(170.746 65.821)" fill="none"/>
    </clipPath>
    <clipPath id="clip-path-6">
      <rect id="Rectangle_3026" data-name="Rectangle 3026" width="72.88" height="62.262" transform="translate(18.236 105.497)" fill="none"/>
    </clipPath>
    <clipPath id="clip-path-7">
      <rect id="Rectangle_3027" data-name="Rectangle 3027" width="36.81" height="8.28" transform="translate(178.361 119.408)" fill="none"/>
    </clipPath>
  </defs>
  <g id="Group_17711" data-name="Group 17711" clip-path="url(#clip-path)">
    <g id="Group_17710" data-name="Group 17710">
      <g id="Group_17709" data-name="Group 17709" clip-path="url(#clip-path)">
        <g id="Group_17696" data-name="Group 17696" opacity="0.2">
          <g id="Group_17695" data-name="Group 17695">
            <g id="Group_17694" data-name="Group 17694" clip-path="url(#clip-path-3)">
              <path id="Path_16456" data-name="Path 16456" d="M203.188,192.411s-1.193-1.677-1.043-10.77-1.938-9.242,3.875-10.062,19.156-.6,19.156-.6,2.981-.521,2.981,3.727.074,11.627.074,11.627,1.864,5.591-3.5,5.889-17.217.074-17.217.074Z" fill="#fc6e20"/>
            </g>
          </g>
        </g>
        <g id="Group_17699" data-name="Group 17699" opacity="0.2">
          <g id="Group_17698" data-name="Group 17698">
            <g id="Group_17697" data-name="Group 17697" clip-path="url(#clip-path-4)">
              <path id="Path_16457" data-name="Path 16457" d="M168.921,117.784l-.894,3.727a14.675,14.675,0,0,1,.149,3.279c-.224.447,7.006.82,7.528.969s28.77,4.994,31.528,4.919,9.018-1.863,9.018-1.863l1.64-14.981s-3.429,8.422-4.621,9.54.423,2.707-6.981,1.391a63.141,63.141,0,0,1-12.473-3.478s-4.844-1.491-6.857-1.789-12.521-.521-13.714-.82-4.323-.894-4.323-.894" fill="#fc6e20"/>
            </g>
          </g>
        </g>
        <g id="Group_17702" data-name="Group 17702" opacity="0.2">
          <g id="Group_17701" data-name="Group 17701">
            <g id="Group_17700" data-name="Group 17700" clip-path="url(#clip-path-5)">
              <path id="Path_16458" data-name="Path 16458" d="M174.455,102.895s5.031,2.963,5.59,4.193,5.814,2.068,5.814,2.068,10.733,1.956,12.242,2.124,3.354-.279,3.466-.559.95-4.807,1.006-5.7.7-1.331,1.72-1.308,18.46,5.724,18.46,5.724a26.528,26.528,0,0,0,.056-9.279c-.894-4.863.391-6.261-1.342-11.963s-3.354-14.646-4.863-15.876-13.751-6.372-13.919-6.484-3.354.559-3.746,1.118-9.279,8.161-9.335,7.882-1.174-8.05-1.174-8.05a21.97,21.97,0,0,0-3.186,1.23c-1.454.727-11.963,4.584-12.69,8.944S171.828,92.05,171.1,93.28a2.482,2.482,0,0,0-.112,2.348l5.428,1.738-2.018,5.753Z" fill="#fc6e20"/>
            </g>
          </g>
        </g>
        <g id="Group_17705" data-name="Group 17705" opacity="0.2">
          <g id="Group_17704" data-name="Group 17704">
            <g id="Group_17703" data-name="Group 17703" clip-path="url(#clip-path-6)">
              <path id="Path_16459" data-name="Path 16459" d="M40.815,167.759s-5.366-2.795-8.609-3.466-5.59-.447-7.043-1.789-3.8-1.229-5.255-7.826-2.124-28.844-1.341-30.857,1.9-7.491,4.807-9.391,10.174-4.36,13.975-5.255a33.125,33.125,0,0,1,9.168-.782c1.789.111,3.578,1.565,4.7,1.565s3.913.335,5.366-1.342.112-3.577,4.137-3.018,25.938,9.055,29.627,34.211-7.018,24.806-7.018,24.806L71.672,167.2l-13.528-1.118Z" fill="#fc6e20"/>
            </g>
          </g>
        </g>
        <path id="Path_16460" data-name="Path 16460" d="M60.175,141.653s6.894-4.4,10.211-9.28,4.36-2.385,3.242-.372-3.055,6.484-.633,4.658a10.08,10.08,0,0,0,3.466-6c.335-1.416,2.2-1.23,2.72-.037,0,0,3.317-.634,3.28,1.9s-.143,1.792-.143,1.792a1.915,1.915,0,0,1,1.932,2.344c-.373,2.311-.15,1.006-.15,1.006s1.677-.521,1.677.969,2.2,6.261-17.7,13.007L64.125,153.8Z" fill="#fff"/>
        <path id="Path_16461" data-name="Path 16461" d="M164.625,186.634A64.275,64.275,0,0,1,165.3,171c-29.527-2.612-59.3,3.428-88.838.891-3.6-.309-7.467-.844-11.044-.083-2.849.606-7.359,2.422-4.732,3.036,3.765.88,13.071,1.375,16.934,1.664,36.8,2.749,62.762,3.957,87,10.129" fill="#ccc"/>
        <path id="Path_16462" data-name="Path 16462" d="M64.838,151.634c-.363-1.751-1-2.78-4.606-9.746.958,1.849,1,4.814,1.638,6.865.458,1.468,1.243,5.485,2.775,5.94a4.993,4.993,0,0,0,.192-3.058" fill="#ccc"/>
        <path id="Path_16463" data-name="Path 16463" d="M51.563,96.819a.76.76,0,0,1,1.381-.635c.919,2,3.8,2.526,5.77,1.667,1.876-.819,3.44-2.624,4.649-5.365a22.434,22.434,0,0,0,1.877-9.938c-.074-1.76-1.007-3.229-1.773-4.929-5.415,4.885-11.821,6.1-17.316,3.226-.314-.164-.6-.251-1.437.132-.739.339-1.3,2.367-.925,3.338A5.1,5.1,0,0,0,46,86.647a.76.76,0,1,1-.814,1.284l-.031-.021a6.56,6.56,0,0,1-2.787-3.047c-.616-1.593.131-4.544,1.71-5.268a2.869,2.869,0,0,1,2.774-.1c5.235,2.737,11.2,1.377,16.358-3.731a.761.761,0,0,1,1.075.006.769.769,0,0,1,.173.273,21.516,21.516,0,0,0,.891,2,11.034,11.034,0,0,1,1.405,4.434C67,88.364,64.669,96.9,59.321,99.237c-.787.344-6.466.386-7.759-2.424"/>
        <path id="Path_16464" data-name="Path 16464" d="M47.758,94.4a4.734,4.734,0,0,1-1.091-3.308.76.76,0,1,1,1.52.025c-.018,1.061.3,2.509,1.392,2.484a.76.76,0,1,1,.044,1.52,2.487,2.487,0,0,1-1.864-.72"/>
        <path id="Path_16465" data-name="Path 16465" d="M60.464,91.74a.76.76,0,1,1,.812-1.285.563.563,0,0,0,.4-.411,3.168,3.168,0,0,0-.409-1.6,3.506,3.506,0,0,1-.289-2.619.76.76,0,1,1,1.422.537,2.223,2.223,0,0,0,.266,1.487,4.241,4.241,0,0,1,.5,2.481,2.117,2.117,0,0,1-1.213,1.5,1.585,1.585,0,0,1-1.5-.09"/>
        <path id="Path_16466" data-name="Path 16466" d="M58.238,94.229a.76.76,0,0,1,.969-1.171,1.042,1.042,0,0,0,.9.2.76.76,0,0,1,.43,1.458l-.042.011a2.572,2.572,0,0,1-2.263-.5"/>
        <path id="Path_16467" data-name="Path 16467" d="M22.963,96.91c-1.126.9-2.623,1.238-3.729,2.161a5.833,5.833,0,0,0-1.882,4.324,14.354,14.354,0,0,0,.872,4.756,15.928,15.928,0,0,0,2.945,5.841,6.643,6.643,0,0,0,5.836,2.4c2.765-.463,4.937-3.169,7.737-3.035,1.344.064,2.562.792,3.877,1.078a6.182,6.182,0,0,0,6.863-3.725c1.1-2.906-.171-6.1-.793-9.139a24.722,24.722,0,0,1,1.518-14.248c-.665-.676-1.019-.416-1.728-1.132a4.745,4.745,0,0,1-1.343-2.057c-.993-3.247,1.755-4.936,4.2-3.232a12.389,12.389,0,0,0,6.872,2.206,18.191,18.191,0,0,0,2.887-.056A13.2,13.2,0,0,0,60.776,81.4,4.281,4.281,0,0,1,64,80.949c.928.324,1.8,1.172,2.738.867.892-.291,1.137-1.43,1.127-2.367A12.933,12.933,0,0,0,62.084,69.26a19.369,19.369,0,0,0-7.044-2.6c-9.386-.982-17.406,7.567-20.371,15.693-.53,1.454-.985,3.036-2.153,4.052-1.261,1.1-3.092,1.293-4.436,2.284-2.632,1.942-2.562,6.185-5.119,8.224"/>
        <path id="Path_16468" data-name="Path 16468" d="M41.955,139.249c1.284.357,2.667.208,3.95.568s2.532,1.571,2.188,2.858c-.284,1.061-1.454,1.577-2.487,1.95l-8.355,3.018c.713-.226.817-11.2.989-12.488a5.5,5.5,0,0,0,3.714,4.093" fill="#ccc"/>
        <path id="Path_16469" data-name="Path 16469" d="M72.558,134.065c-.494,2.672,3.027.4,3.584-.575a8.383,8.383,0,0,0,.648-5.983,24.879,24.879,0,0,0-2.319-5.687c-1.179-2.322-8.254-11.528-6.568-4.129.629,2.76,1.772,4.86,1.987,7.781.093,1.264,1.081,4.811.55,5.86a4.536,4.536,0,0,1,1.693-1.544,1.559,1.559,0,0,1,2.006.6,1.983,1.983,0,0,1-.5,1.922,4.416,4.416,0,0,0-1.083,1.758" fill="#ccc"/>
        <path id="Path_16470" data-name="Path 16470" d="M33.042,165.1c-4.484,0-9.041-1.137-11.706-4.722-1.731-2.31-2.257-5.241-2.614-7.807a94.955,94.955,0,0,1-1.031-14.5.76.76,0,0,1,1.52.025,93.417,93.417,0,0,0,1.016,14.265c.331,2.378.811,5.084,2.327,7.107a10.279,10.279,0,0,0,5.984,3.639,24.488,24.488,0,0,0,7.412.352,68.654,68.654,0,0,0,27.357-7.966c-1.89-5.544-1.306-3.356-4.043-14.747a35.7,35.7,0,0,0-7.587.818.76.76,0,1,1-.321-1.486,36.832,36.832,0,0,1,8.524-.844.76.76,0,0,1,.723.582c3.231,13.461,2.264,9.491,4.349,15.8a.76.76,0,0,1-.355.9A70.172,70.172,0,0,1,36.06,164.97c-.949.069-1.966.125-3.019.125"/>
        <path id="Path_16471" data-name="Path 16471" d="M34.309,148.915a.761.761,0,0,1,.155-1.063,45.219,45.219,0,0,1,12.347-6.51.76.76,0,0,1,.489,1.439,43.694,43.694,0,0,0-11.927,6.288.76.76,0,0,1-1.063-.155"/>
        <path id="Path_16472" data-name="Path 16472" d="M18.564,133.051a.76.76,0,0,1-.759-.726c-.214-4.762-.508-11.284,2.818-16.128a17.537,17.537,0,0,1,8.042-6.052c4.675-1.888,10.867-3.4,15.893-2.975,2.92.242,5.572,2.355,8.092,2.194a6.622,6.622,0,0,0,4.778-3.324.76.76,0,1,1,1.359.68.492.492,0,0,1-.024.045,8.161,8.161,0,0,1-6.017,4.116,11.056,11.056,0,0,1-4.792-1.146,12.487,12.487,0,0,0-3.524-1.05c-4.779-.4-10.769,1.081-15.2,2.869a16.047,16.047,0,0,0-7.358,5.5c-2.81,4.092-2.818,9.3-2.553,15.2a.76.76,0,0,1-.725.793h-.035"/>
        <path id="Path_16473" data-name="Path 16473" d="M37.647,144.694l-1.578-11.145a.76.76,0,1,1,1.5-.219v.006l1.578,11.145a.76.76,0,1,1-1.5.219v-.006"/>
        <path id="Path_16474" data-name="Path 16474" d="M66.307,152.42a.759.759,0,0,1,.448-.977c4.707-1.745,5.136-2.369,9.913-4.14,3.351-1.242,5.663-2.588,6.871-4,1-1.175,2.077-2.986,1.788-4.223a1.724,1.724,0,0,0-1.133-1.173.762.762,0,1,1,.6-1.4c3.305,1.411,2.261,5.028-.1,7.782-1.4,1.633-3.85,3.084-7.5,4.437-4.7,1.743-5.136,2.369-9.913,4.14-.087.032-.831-.056-.977-.448"/>
        <path id="Path_16475" data-name="Path 16475" d="M78.038,143.224a.76.76,0,0,1,.608-.886,6.621,6.621,0,0,0,3.546-2.4,6.873,6.873,0,0,0,1.452-3.3,2.579,2.579,0,0,0-1.326-2.323.761.761,0,1,1,.793-1.3,4.1,4.1,0,0,1,2.049,3.747,8.411,8.411,0,0,1-1.7,4.01,8.048,8.048,0,0,1-4.535,3.051.759.759,0,0,1-.886-.608"/>
        <path id="Path_16476" data-name="Path 16476" d="M77.108,141.2a.76.76,0,0,1,.381-1,7.161,7.161,0,0,0,4.005-8.263.835.835,0,0,0-.368-.507.588.588,0,0,0-.448-.075.765.765,0,0,1-.927-.541.755.755,0,0,1,.524-.925l.052-.013a2.082,2.082,0,0,1,1.582.251,2.355,2.355,0,0,1,1.061,1.447,8.685,8.685,0,0,1-4.857,10,.76.76,0,0,1-1-.381"/>
        <path id="Path_16477" data-name="Path 16477" d="M60.015,141.644a.76.76,0,0,1,.384-1,24.3,24.3,0,0,0,3.982-2.809,19.365,19.365,0,0,0,3.965-4.252,24.027,24.027,0,0,1,3.585-4.026,1.585,1.585,0,0,1,1.692-.418,1.5,1.5,0,0,1,.847,1.233c.282,1.71-1.077,3.589-1.588,4.555s.451.617.784.589,1.449-2.12,1.7-3.38c.209-1.159.378-2.331,1.4-2.971a2.351,2.351,0,0,1,3.061.725,3.538,3.538,0,0,1,.654,3.025,11.208,11.208,0,0,1-4.036,6.337.76.76,0,0,1-1-1.148l.03-.024A9.724,9.724,0,0,0,79,132.6a2.074,2.074,0,0,0-.326-1.722c-.212-.25-.714-.659-1.1-.42-.484.3-.576,1.271-.714,1.972a8.616,8.616,0,0,1-2.065,4.106c-2.155,2.4-3.121,2.279-3.437,2.239a1.3,1.3,0,0,1-1.008-.712c-.647-1.217.435-2.774,1.282-4,.665-.961,1.518-2.182,1.345-3.4-2.639,2.025-4.362,6-7.711,8.4a24.011,24.011,0,0,1-4.248,2.962.76.76,0,0,1-1-.384"/>
        <path id="Path_16478" data-name="Path 16478" d="M83.775,122.963a.761.761,0,0,1-.65-.366,32.935,32.935,0,0,0-12.3-11.869l-.413-.227c-1.479-.815-1.2-.632-3.41-1.7a30.647,30.647,0,0,0-6.325-2.491.76.76,0,1,1,.334-1.483,31.766,31.766,0,0,1,6.65,2.6c2.2,1.06,1.953.89,3.485,1.734l.413.227A34.44,34.44,0,0,1,84.425,121.8a.76.76,0,0,1-.649,1.154"/>
        <path id="Path_16479" data-name="Path 16479" d="M91.221,142.918a136.781,136.781,0,0,0-5.293-14.673c-.428-1.038-.828-1.938-1.223-2.751a.76.76,0,1,1,1.367-.665c.409.841.822,1.769,1.262,2.837a133.167,133.167,0,0,1,5.014,13.763l.324,1.033a.76.76,0,0,1-1.448.463l0-.007"/>
        <path id="Path_16480" data-name="Path 16480" d="M72.5,127.914a.76.76,0,0,1-.669-.841,8.473,8.473,0,0,0-1.045-5.111.76.76,0,0,1,1.321-.752,10,10,0,0,1,1.234,6.035.76.76,0,0,1-.841.669"/>
        <path id="Path_16481" data-name="Path 16481" d="M29.3,134.292a.76.76,0,0,1-.357-1.014,8.842,8.842,0,0,0,.514-6.2c-.2-.683-.566-1.954.337-2.743a2.336,2.336,0,0,1,.8-.424,1.647,1.647,0,0,0,.3-.127c.192-.128.208-.567.031-.87a3.657,3.657,0,0,0-1.315-1.078.76.76,0,0,1,.779-1.305,4.853,4.853,0,0,1,1.848,1.617,2.191,2.191,0,0,1-.5,2.9,2.792,2.792,0,0,1-.627.291,1.316,1.316,0,0,0-.312.137c-.174.152.041.9.122,1.177a10.383,10.383,0,0,1-.6,7.281.76.76,0,0,1-1.014.357"/>
        <path id="Path_16482" data-name="Path 16482" d="M39.386,159.409l-.307-1.213a.76.76,0,0,1,1.464-.41l.009.037.307,1.213a.76.76,0,1,1-1.464.41l-.009-.037"/>
        <path id="Path_16483" data-name="Path 16483" d="M45.208,160.245l-.534-.833a.76.76,0,0,1,1.28-.819l.533.833a.76.76,0,0,1-1.279.82"/>
        <path id="Path_16484" data-name="Path 16484" d="M60.009,116.933c-1.4-1.783-.7-3.535-.66-4.564a1.388,1.388,0,0,0-.4-1.18.76.76,0,1,1,.812-1.285,2.757,2.757,0,0,1,1.108,2.532c-.055,1.247-.61,2.357.336,3.556a.76.76,0,0,1-1.194.941"/>
        <path id="Path_16485" data-name="Path 16485" d="M13.384,208.63l-.271-8.928a.76.76,0,0,1,1.519-.046l.271,8.929a.76.76,0,0,1-1.518.077v-.031"/>
        <path id="Path_16486" data-name="Path 16486" d="M13.91,196.394a.76.76,0,0,1-.76-.753l-.185-22.005a.76.76,0,0,1,1.52-.013l.185,22a.76.76,0,0,1-.754.766Z"/>
        <path id="Path_16487" data-name="Path 16487" d="M59.3,172.861c-.132.289-.03-2.48-.356,61.363a.758.758,0,1,0,1.516.007l.286-61.047a2.514,2.514,0,0,1-1.45-.322"/>
        <path id="Path_16488" data-name="Path 16488" d="M164.539,203.136a.76.76,0,0,1-.76-.76l-.015-29.186a.76.76,0,1,1,1.52,0l.015,29.186a.76.76,0,0,1-.759.76Z"/>
        <path id="Path_16489" data-name="Path 16489" d="M169.705,164.885a.76.76,0,0,0-.554-.24L9.7,164.93a.759.759,0,0,0-.758.761l.015,7.511a.763.763,0,0,0,.224.537c.347.345-11.3.245,159.493-.1a.761.761,0,0,0,.757-.711l.483-7.473a.76.76,0,0,0-.2-.569M25.72,168.8a36.54,36.54,0,0,1-5.291.235.507.507,0,0,1-.009-1.013,37.948,37.948,0,0,0,5.123-.219.508.508,0,1,1,.177,1m34.63,3.98a.506.506,0,0,1-.507-.506l-.012-6.218a.514.514,0,0,1,.507-.508.507.507,0,0,1,.507.506l.012,6.218a.514.514,0,0,1-.507.508m50.184-4.09-2.222-.011a.507.507,0,0,1,0-1.013l2.222.011a.507.507,0,0,1,0,1.013m28.926,1.439h0l-21.028-.109a.507.507,0,0,1,0-1.013l21.028.109a.507.507,0,0,1,0,1.013"/>
        <path id="Path_16490" data-name="Path 16490" d="M57.038,105.046a.76.76,0,0,1-.6-.889,38,38,0,0,1,.382-5.1.76.76,0,1,1,1.507.2c-.55,4.128-.229,4.3-.4,5.179a.76.76,0,0,1-.889.6"/>
        <path id="Path_16491" data-name="Path 16491" d="M70.507,221.169a.76.76,0,0,1-.477-.963,18.15,18.15,0,0,0,.13-11.106l-.073-.233a5.1,5.1,0,0,1-.268-3.335A4.979,4.979,0,0,1,70.834,204a6.083,6.083,0,0,0,.568-.721,3.8,3.8,0,0,0-.046-3.555,12.745,12.745,0,0,0-2.637-3.273.76.76,0,0,1,1.073-1.076,14.047,14.047,0,0,1,2.933,3.689,5.259,5.259,0,0,1-.036,5.025,7.392,7.392,0,0,1-.707.908,3.72,3.72,0,0,0-.734,1.057,3.9,3.9,0,0,0,.289,2.358l.075.239a19.688,19.688,0,0,1-.141,12.043.76.76,0,0,1-.963.478"/>
        <path id="Path_16492" data-name="Path 16492" d="M103.413,206.72a.761.761,0,0,1-.678-.415l-4.542-8.915a.76.76,0,1,1,1.355-.69l4.542,8.915a.761.761,0,0,1-.335,1.023.753.753,0,0,1-.342.082"/>
        <path id="Path_16493" data-name="Path 16493" d="M105,197.565l-.687-2.856a.76.76,0,0,1,1.467-.4l.01.044.687,2.856a.76.76,0,0,1-1.467.4l-.01-.044"/>
        <path id="Path_16494" data-name="Path 16494" d="M22.762,199.32a.759.759,0,0,1,.666-.843l.528-.062a13.672,13.672,0,0,0-1.87-5.587.761.761,0,0,1,1.112-1c.318.243.991-.246,1.093-.745.208-1.025-.494-2.021-1.941-4.91a.76.76,0,0,1-.014-.663,7.285,7.285,0,0,0-.774-7.227.76.76,0,0,1,.153-1.065.751.751,0,0,1,.332-.142,3.807,3.807,0,0,1,2.527.469.76.76,0,0,1-.767,1.312c-.062-.036-.126-.07-.192-.1a8.919,8.919,0,0,1,.252,7.042c1.333,2.607,2.241,3.985,1.914,5.586a2.665,2.665,0,0,1-1.715,1.913,15.2,15.2,0,0,1,1.465,5.742.76.76,0,0,1-.67.8l-1.255.147a.761.761,0,0,1-.843-.667"/>
        <path id="Path_16495" data-name="Path 16495" d="M2.458,149.316a38.21,38.21,0,0,1,2.71-32.672.76.76,0,1,1,1.307.776,36.657,36.657,0,0,0-2.6,31.346.76.76,0,0,1-1.417.551"/>
        <path id="Path_16496" data-name="Path 16496" d="M4.393,139.77a.76.76,0,0,1-.749-.635,28.208,28.208,0,0,1,1.673-15.229.76.76,0,0,1,1.409.57,26.686,26.686,0,0,0-1.583,14.409.758.758,0,0,1-.75.885"/>
        <path id="Path_16497" data-name="Path 16497" d="M84.4,18.113a4.986,4.986,0,0,1,4.269-1.955,14.714,14.714,0,0,1,4.738,1.147,7.567,7.567,0,0,1,7.569-1.3c1.267.5,2.444,1.358,3.805,1.405s2.631-.742,3.993-.876c1.535-.151,3.01.535,4.475,1.019a35.537,35.537,0,0,0,8.892,1.341,12.774,12.774,0,0,0-7.422-1.366c-3.086-1.607-6.652-1.951-10.117-2.266-1.75-.159-3.5-.319-5.26-.336-1.949-.019-3.9.137-5.839.292l-5.654.453-4.552.365c-1.844.148-4.44.244-5.781,1.668.254.088,7.17-.026,6.883.409" fill="#ccc"/>
        <path id="Path_16498" data-name="Path 16498" d="M91.991,3.4a19.967,19.967,0,0,1,9.186-1.965A20.351,20.351,0,0,0,88.825,3c-3.734,1.725-7.117,6.319-9.032,9.976,3.547-3.5,7.608-7.516,12.2-9.581" fill="#ccc"/>
        <path id="Path_16499" data-name="Path 16499" d="M98.685,47.079a44.233,44.233,0,0,0,6.875,1.654,11.133,11.133,0,0,1,6.183,3.191,12.353,12.353,0,0,1,1.762,3.05,66.788,66.788,0,0,1,2.85,7.6q-.011-7.2-.357-14.4a1.222,1.222,0,0,0-.947-1.446,1.237,1.237,0,0,0-.416-.014,95.656,95.656,0,0,0-18.349.159l4.7.79" fill="#ccc"/>
        <path id="Path_16500" data-name="Path 16500" d="M99.305,7a.993.993,0,0,0-.239.958c.148.614.6.99.656,1.249a.748.748,0,0,0,.594,1.2c.674,0,1.27-1.02.637-2.1-.092-.156-.21-.318-.244-.368a.975.975,0,0,0,.344-.385c.231-.463-.087-.949-.44-1.327-.024-.026-.049-.052-.075-.084a.748.748,0,0,0-1.184-.855A1.253,1.253,0,0,0,99.305,7"/>
        <path id="Path_16501" data-name="Path 16501" d="M82.38,14.247a.748.748,0,0,0,.669-.414,3.56,3.56,0,0,1,.729-.989.747.747,0,1,0-1.014-1.1l-.018.018a5.046,5.046,0,0,0-1.034,1.4.748.748,0,0,0,.668,1.08"/>
        <path id="Path_16502" data-name="Path 16502" d="M116.1,13.727a.747.747,0,1,0,1.488-.134c0-.017,0-.033-.006-.049a1.793,1.793,0,0,0-.41-.94.747.747,0,1,0-1.157.945l.016.019a.325.325,0,0,1,.069.159"/>
        <path id="Path_16503" data-name="Path 16503" d="M75.633,19.614,96.1,42.163l-11.07.1a2.415,2.415,0,0,0-1.944,1.013c-1.779,2.5-2.4,3.213-2.459,3.581a2.36,2.36,0,0,0-.284,1.071c-.6,6.73-.21,18.413,0,27.079a2.4,2.4,0,0,0,2.36,2.4c1.007.1,3.977.352,4.234.352a.747.747,0,0,0,.052-1.492c-3.253-.232-4.051-.354-4.247-.354a.91.91,0,0,1-.9-.915V74.99l-.054-2.23c-.258-10.644-.462-19.051.051-24.727v-.067a.909.909,0,0,1,.907-.9c4.5-.015,8.657-.07,13.4-.117.026.818.011.6.044,3.734a.131.131,0,0,0,.13.132.127.127,0,0,0,.087-.032,17.973,17.973,0,0,0,1.716-1.742,14.44,14.44,0,0,0,2.055,1.795.131.131,0,0,0,.181-.042.129.129,0,0,0,.019-.058,31.982,31.982,0,0,0,.028-3.817c4.885-.029,9.571-.011,14.016.15a.923.923,0,0,1,.932.9c0,.314.306,3.216.458,6.932a.735.735,0,0,0,.753.717h.024a.747.747,0,0,0,.716-.777c-.1-2.422-.252-4.392-.457-6.9a2.357,2.357,0,0,0-.813-1.741c-.07-.332-.1-.212-2.5-3.263a2.4,2.4,0,0,0-1.91-.909l-10.194.094,21.3-22.287a.738.738,0,0,0,.452-.924c-1.833-5.72-6.482-13.533-13.554-16.728a25.468,25.468,0,0,0-20.364-.126c-7.1,3.1-11.836,10.858-13.741,16.559a.747.747,0,0,0-.033.286.738.738,0,0,0,.148.721M94.53,1.962c.754-.151,1.516-.263,2.281-.341a38.673,38.673,0,0,0-4,13.7,8.178,8.178,0,0,0-7.494.083C86.654,10.516,89.88,4.71,94.533,1.966M108.618,3.42c3,3.4,4.811,8.606,5.435,12.77a8.736,8.736,0,0,0-8.506-.621A32.781,32.781,0,0,0,103.56,1.881a23.158,23.158,0,0,1,5.029,1.5c.01.013.018.028.029.041m-3.352,14a7.782,7.782,0,0,1,4.865-1.131,6.907,6.907,0,0,1,4.219,2.086.746.746,0,0,0,.977.094c1.655-1.184,4.181-.3,5.907.767L100.667,40.756a65.559,65.559,0,0,0,4.6-23.333m-6.8,24.736H98.1l-.111-.123A131.74,131.74,0,0,1,94.64,16.655a7.338,7.338,0,0,1,5.015-1.484,8.61,8.61,0,0,1,4.13,1.744,64.16,64.16,0,0,1-5.318,25.239M83.272,45.578c.276-.381.688-.943,1.028-1.422a.918.918,0,0,1,.74-.384l11.472-.1c-.134.6-.248,1.183-.329,1.8-1.086.011-8.514.1-12.911.115m28.368-2.051a.913.913,0,0,1,.719.347l1.342,1.684c-4.3-.14-8.808-.156-13.5-.127-.116-.535-.27-1.071-.422-1.585l.2-.212,11.657-.107m9.4-26.125a7.359,7.359,0,0,0-5.4-.736,30.5,30.5,0,0,0-3.954-11.6,28.512,28.512,0,0,1,9.359,12.317M101.832,1.612a30.37,30.37,0,0,1,2.239,13.673,9.794,9.794,0,0,0-4.242-1.612,8.967,8.967,0,0,0-5.475,1.337A36.678,36.678,0,0,1,98.593,1.492a24.33,24.33,0,0,1,3.239.118M89.857,3.41c.26-.114.524-.215.788-.319a27.563,27.563,0,0,0-7.011,12.867,7.057,7.057,0,0,0-5.656.465c2.343-5.19,6.578-10.7,11.88-13.013m-5.9,14.311a.747.747,0,0,0,.874-.122,6.522,6.522,0,0,1,8.3-.368c.011.008.025.01.037.018a133.283,133.283,0,0,0,2.793,22.543l-18.88-20.8a5.678,5.678,0,0,1,6.879-1.258"/>
        <path id="Path_16504" data-name="Path 16504" d="M90.244,77.883c3.169.185,6.151.279,9.123.279,4.815,0,9.6-.247,15.108-.755a2.4,2.4,0,0,0,2.361-2.359,141.6,141.6,0,0,0,.53-17.729.747.747,0,0,0-1.494.016v.029a140.251,140.251,0,0,1-.527,17.573q0,.036,0,.072a.905.905,0,0,1-.9.9h-.069a150.042,150.042,0,0,1-24.038.476.747.747,0,0,0-.087,1.492"/>
        <path id="Path_16505" data-name="Path 16505" d="M83.922,55.891a.747.747,0,0,0,.977-.4,1.548,1.548,0,0,0-.256-1.51c-.073-.1-.155-.2-.236-.293a1.824,1.824,0,0,1-.189-.248,1.1,1.1,0,0,0,.333-.378,1.143,1.143,0,0,0-.425-1.442c-.064-.046-.131-.088-.2-.129a.35.35,0,0,1,.027-.04c.055-.072.118-.139.18-.206a2.673,2.673,0,0,0,.493-.677,1.32,1.32,0,0,0-.554-1.784,1.264,1.264,0,0,0-.118-.055A.748.748,0,0,0,83.23,50a2.563,2.563,0,0,1-.2.229,3.388,3.388,0,0,0-.27.313,1.484,1.484,0,0,0-.146,1.765,1.377,1.377,0,0,0,.3.3,1.44,1.44,0,0,0-.048,1.485,3,3,0,0,0,.4.561c.055.065.112.129.161.2a.489.489,0,0,1,.066.118.747.747,0,0,0,.424.919"/>
        <path id="Path_16506" data-name="Path 16506" d="M114.448,60.023a4.386,4.386,0,0,0,.36-2,.747.747,0,0,0-1.492.085,2.865,2.865,0,0,1-.236,1.311.747.747,0,0,0,1.369.6"/>
        <path id="Path_16507" data-name="Path 16507" d="M109.116,55.514h-8.863a1.146,1.146,0,1,0-.006,2.292h8.869a1.146,1.146,0,0,0,0-2.292"/>
        <path id="Path_16508" data-name="Path 16508" d="M100.332,61.009a1.146,1.146,0,0,0,1.146,1.146h8.863a1.146,1.146,0,0,0,0-2.292h-8.863a1.146,1.146,0,0,0-1.146,1.146"/>
        <path id="Path_16509" data-name="Path 16509" d="M89.119,72.061a.747.747,0,0,0,0,1.494H92.49a.747.747,0,0,0,0-1.494h-.83v-3.48c2.276-.411,4.02-2.716,4.02-5.5a6.433,6.433,0,0,0-.054-.832A1.338,1.338,0,0,0,94.3,61.091H87.572a1.338,1.338,0,0,0-1.329,1.158,6.434,6.434,0,0,0-.054.832,5.383,5.383,0,0,0,3.977,5.5v3.488Z" fill="#fc6e20"/>
        <path id="Path_16510" data-name="Path 16510" d="M182.2,68.871l6.678-2.813a71.731,71.731,0,0,0,.111,7.591c-.937-.208-1.8-2.4-2.693-3.134-.774-.639-3-2.1-4.1-1.643" fill="#ccc"/>
        <path id="Path_16511" data-name="Path 16511" d="M221.279,149.358a.9.9,0,0,0,.831.964h0l9.287.686a.9.9,0,1,0,.133-1.8l-9.288-.685a.908.908,0,0,0-.964.831"/>
        <path id="Path_16512" data-name="Path 16512" d="M167.757,141.6a.9.9,0,0,0-.217,1.787c53.157,6.431,50.81,6.156,50.917,6.156a.9.9,0,0,0,.107-1.794Z"/>
        <path id="Path_16513" data-name="Path 16513" d="M178.719,44.387l-21.777,1.006a3.972,3.972,0,0,0-3.783,3.916l-.221,18.627,1.8-.044.22-18.561a2.168,2.168,0,0,1,2.067-2.139L178.8,46.186a.9.9,0,0,0,.857-.941.909.909,0,0,0-.94-.858"/>
        <path id="Path_16514" data-name="Path 16514" d="M223.592,96.291a.9.9,0,1,0-1.8.12l0,.035a88.528,88.528,0,0,1,.22,11.99,128.843,128.843,0,0,0-22.536-6.919c-.164-2.109-.237-6.456-.437-6.974l.947-.43a.9.9,0,1,0-.745-1.639l-3.056,1.39a.9.9,0,0,0,.374,1.719,1.943,1.943,0,0,0,.775-.265c.208,2.433.185,4.726.409,7.034a.9.9,0,0,0,.719.8A125.193,125.193,0,0,1,218.4,108.96a60.724,60.724,0,0,1-1.479,6.372c-.023.042-.1.3-.219.716.016,1.621-.033,3.243-.134,4.86-.038.6-.046,1.207-.092,1.808a6.281,6.281,0,0,1-.312,1.552c-.11,1-.231,2.01-.359,3.023-7.049,3.113-15.65,1.149-23.36-.142-7.77-1.3-15.795-3.132-23.646-2.583a42.714,42.714,0,0,1,1.045-4.451,15.511,15.511,0,0,0-1.632-.409l-.118-.019a51.717,51.717,0,0,0-1.811,16.45.9.9,0,0,0,.9.879h.022a.935.935,0,0,0,.257-.048c6.9.932,14.542,1.559,22.237,1.876l.192-4.686a.591.591,0,0,1,.605-.577h.019a.6.6,0,0,1,.576.623h0l-.192,4.686c8.14.306,16.287.27,23.635-.108a.9.9,0,0,0,1.409-.563A169.826,169.826,0,0,0,218.608,116a63.209,63.209,0,0,0,1.508-6.38c.8.315,1.59.632,2.383.964a.9.9,0,0,0,1.178-.482.889.889,0,0,0,.068-.291,90.105,90.105,0,0,0-.152-13.518m-50.715,32.857c-1.8.621-1.661,1.126-1.482,1.992.042.2.084.4.108.588a1.712,1.712,0,0,1-1.26,2.034.341.341,0,0,1-.078.006.607.607,0,0,1-.594-.528.6.6,0,0,1,.522-.666c.114-.018.258-.342.216-.7a4.316,4.316,0,0,0-.09-.48,3.186,3.186,0,0,1-.066-1.44c.312-1.236,1.674-1.71,2.328-1.938a.6.6,0,0,1,.767.363v0a.609.609,0,0,1-.372.768m37.712,3.468-.3,3.084a.6.6,0,0,1-.594.54h-.06a.606.606,0,0,1-.54-.654l.3-3.084a.6.6,0,0,1,1.194.114m2.424-.408-.264,2.226a.6.6,0,0,1-.594.528h-.072a.6.6,0,0,1-.528-.664v0l.264-2.226a.6.6,0,0,1,1.194.138"/>
        <path id="Path_16515" data-name="Path 16515" d="M181.33,43.744a33.619,33.619,0,0,0,.224,12.231,8.19,8.19,0,0,0,2.3,4.929,6.082,6.082,0,0,0,4.32,1.43l-.341,3.32a.86.86,0,0,0-.1.025,46.476,46.476,0,0,0-11.935,6.44.9.9,0,0,0,1.081,1.44A44.555,44.555,0,0,1,187.8,67.582c.157,2.322.608,4.9.65,7.086a.9.9,0,0,0,1.47.679c3.481-2.849,7.975-5.894,11.654-8.764a1.345,1.345,0,0,1,1.62-.054c3.864,2.848,9.844,3.994,12.765,7.119a13.1,13.1,0,0,1,2.663,5.556,92.415,92.415,0,0,1,2.734,13.277.9.9,0,1,0,1.784-.23,94.178,94.178,0,0,0-2.787-13.537,14.608,14.608,0,0,0-3.079-6.294c-3.285-3.515-9.31-4.61-13.013-7.339a3.151,3.151,0,0,0-3.8.084c-3.278,2.557-7,5.108-10.316,7.7-.182-2.137-.55-4.356-.6-6.354l.462-4.5a5.943,5.943,0,0,0,2.475-1.5.9.9,0,0,0-1.3-1.248,4.784,4.784,0,0,1-6.142.3,6.5,6.5,0,0,1-1.728-3.9,31.2,31.2,0,0,1-.042-12.506,6.324,6.324,0,0,0,1.34-.879,5.7,5.7,0,0,0,1.478,1.015,6.287,6.287,0,0,0,2.671.4,54.322,54.322,0,0,0,5.533-.069,15.255,15.255,0,0,0,3.992,7.428.881.881,0,0,0,.372.236.9.9,0,0,0,1.15-1.357,1.81,1.81,0,0,1,.635-1.22,1.47,1.47,0,0,1,.7-.273,2.535,2.535,0,0,1,1.828,1.2,2.85,2.85,0,0,1-.25,2.819c-.486.814-.792,1.287-1.415,1.55a.9.9,0,0,0-.536.992c.148.807.276,1.4.382,1.894a10.512,10.512,0,0,1,.214,4.1.9.9,0,1,0,1.791.179l0-.036c.246-3.082.012-3.237-.5-5.829a5.992,5.992,0,0,0,1.692-2.071,4.274,4.274,0,0,0-.961-5.759,17.707,17.707,0,0,0,.67-3.738,7.294,7.294,0,0,0-3.944-7.075,5.578,5.578,0,0,1,1.262-.351.9.9,0,0,0-.244-1.784,7.5,7.5,0,0,0-1.824.518l.051-1.3a.879.879,0,0,0-.848-.908H198.5a.948.948,0,0,0-.935.891l-.072,1.85c-2.115-.6-5.067.589-6.136-.631-1.743-1.982-3.766-3.911-6.745-4.595a8.72,8.72,0,0,0-8.34,2.4,6.938,6.938,0,0,0-.556,8.633,6.2,6.2,0,0,0,5.6,2.347"/>
        <path id="Path_16516" data-name="Path 16516" d="M185.818,48.049a.9.9,0,0,0-1.054.713,18.8,18.8,0,0,0-.313,4.615,2.553,2.553,0,0,0,.8,1.918,1.8,1.8,0,0,0,2.8-.5.9.9,0,0,0-1.556-.862.29.29,0,0,1-.077-.014c-.094-.08-.141-.266-.162-.644a17.031,17.031,0,0,1,.282-4.174.9.9,0,0,0-.713-1.054"/>
        <path id="Path_16517" data-name="Path 16517" d="M186.579,58.384a3.6,3.6,0,0,0,2.584-.764.9.9,0,0,0-1.123-1.407,1.822,1.822,0,0,1-1.284.38.9.9,0,1,0-.208,1.788l.031,0"/>
        <path id="Path_16518" data-name="Path 16518" d="M216.481,90.212a.9.9,0,0,0-.928-.252.666.666,0,0,1-.387-.474,3.644,3.644,0,0,1,.064-1.3c.027-.169.053-.337.075-.5a3.067,3.067,0,0,0-.746-2.77.9.9,0,0,0-1.305,1.24q.03.032.063.06a1.549,1.549,0,0,1,.2,1.24c-.019.149-.042.3-.067.449a5.108,5.108,0,0,0-.041,1.99,2.558,2.558,0,0,0,1.169,1.6l.051.028a10.938,10.938,0,0,0-.255,4.919.9.9,0,0,0,.884.74.869.869,0,0,0,.161-.015.9.9,0,0,0,.725-1.046,9.1,9.1,0,0,1,.509-4.96.9.9,0,0,0-.172-.945"/>
        <path id="Path_16519" data-name="Path 16519" d="M202.112,68.89a6.157,6.157,0,0,0-3.325,2.89c-1.719,2.511-1.813,1.71-2.944,2.035-1,.288-1.473,1.123-1.974,1.965-.294.485-.626.712-.735.679a.9.9,0,0,0-1.1.642v.005c-.336,1.3,1.971,1.914,3.37-.393.91-1.53.78-1.083,1.777-1.257,2.632-.454,3.284-4.28,5.378-4.823a.9.9,0,0,0-.451-1.743"/>
        <path id="Path_16520" data-name="Path 16520" d="M248.071,50.937a2.05,2.05,0,0,0-.526-2.78l-.051-.033-.052-.033a2.016,2.016,0,1,0,.628,2.847"/>
        <path id="Path_16521" data-name="Path 16521" d="M242.255,50.955a2.051,2.051,0,0,0-.525-2.78l-.054-.035-.048-.031a2.016,2.016,0,1,0,.627,2.846"/>
        <path id="Path_16522" data-name="Path 16522" d="M236.061,50.94a2.05,2.05,0,0,0-.526-2.78l-.05-.032-.052-.034a2.016,2.016,0,1,0,.628,2.847"/>
        <path id="Path_16523" data-name="Path 16523" d="M142.388,144.97a.9.9,0,0,0,.814.517h.047a63.815,63.815,0,0,0,15.346-2.719.9.9,0,0,0-.506-1.728l-.021.007a62.173,62.173,0,0,1-12.747,2.49,54.827,54.827,0,0,0,8.484-14.08.9.9,0,0,0,.069-.329l.09-4.968a.9.9,0,0,0-1.8-.033l-.087,4.8a52.3,52.3,0,0,1-9.538,15.054.9.9,0,0,0-.152.992"/>
        <path id="Path_16524" data-name="Path 16524" d="M256.114,72.591l1.256-26.7a2.169,2.169,0,0,0-2.086-2.249c-.046,0-.092,0-.138,0l-46.68,1.307a.89.89,0,0,1-.924-.854v-.021a.9.9,0,0,1,.874-.925L255.1,41.841a3.972,3.972,0,0,1,4.074,3.867c0,.087,0,.174,0,.261l-1.279,27.178-.655,20.538-2.265,55.886a3.973,3.973,0,0,1-4.137,3.8c-.1,0-.191-.011-.286-.022l-14.854-1.669a.9.9,0,1,1,.2-1.789l14.857,1.669a2.165,2.165,0,0,0,2.406-1.893c.007-.057.012-.113.014-.17L255.4,94.369Z"/>
        <path id="Path_16525" data-name="Path 16525" d="M138.083,90.209c-2.293,1.442-3.77,3.848-5.165,6.168a80.656,80.656,0,0,0,3.671-11.642c-.1.412,5.4,2.483,5.975,2.694a43.142,43.142,0,0,0,6.13,1.8c-3.325-.978-7.618-.9-10.611.979" fill="#ccc"/>
        <g id="Group_17708" data-name="Group 17708" opacity="0.2">
          <g id="Group_17707" data-name="Group 17707">
            <g id="Group_17706" data-name="Group 17706" clip-path="url(#clip-path-7)">
              <path id="Path_16526" data-name="Path 16526" d="M210.054,127.555c-1.6.434-3.2-.282-4.713-.879a68.9,68.9,0,0,0-9.07-2.653l-17.91-4.359c11.106-1.51,18.365,4.119,27.926,5.1,1.932.2,4.156.774,5.942-.151,1.682-.872,3.254-2.948,2.888-5.013-1.16,2.9-1.591,7.01-5.063,7.952" fill="#fc6e20"/>
            </g>
          </g>
        </g>
        <path id="Path_16527" data-name="Path 16527" d="M196.824,110.983c1.149.035,2.488-.017,3.17-.942a3.628,3.628,0,0,0,.317-2.674l-.416-2.974c-.1-.686-.093-1.568.539-1.854a1.646,1.646,0,0,1,1.259.141l2.6,1.031a1.484,1.484,0,0,0-1.66,1.035c-.12.282-.661.322-.644.628l.151,2.687a6.455,6.455,0,0,1-.08,1.887,2.174,2.174,0,0,1-1.084,1.479,3.238,3.238,0,0,1-1.566.18l-4.311-.219Z" fill="#ccc"/>
        <path id="Path_16528" data-name="Path 16528" d="M172.639,106.229l-3.834-1.218c1.251.484,2.543.856,3.833,1.222l.131.038c-.044-.013-.086-.029-.13-.042" fill="#ccc"/>
        <path id="Path_16529" data-name="Path 16529" d="M162.532,106.583q-.222,2.01-.449,4.019a8.114,8.114,0,0,0-.051,2.1,5.439,5.439,0,0,0,2.289,3.436,5.272,5.272,0,0,0,2.613,1.225c-.443-.254-3.6-2.365-3.255-2.958l.155-.265c.133-.22.263-.445.392-.666a.573.573,0,0,1-.414-.267,1.114,1.114,0,0,1-.147-.827,3.253,3.253,0,0,1,.173-.536,3.437,3.437,0,0,0,.254-.784,1.944,1.944,0,0,0-.054-.748,7.623,7.623,0,0,0-.314-.893,2.313,2.313,0,0,1-.169-1.656.913.913,0,0,1,1.174-.535.9.9,0,0,1,.147.07.4.4,0,0,1,.048.044c-.012-.017-.021-.032-.033-.048-.515-.749-1.018-1.731-.523-2.483.554-.839,1.818-.635,2.772-.332.556.179,1.112.354,1.668.532a17.483,17.483,0,0,1-2.043-.93,3.637,3.637,0,0,0-2.386-.715,2.16,2.16,0,0,0-1.42,1.285,6.347,6.347,0,0,0-.424,1.932" fill="#ccc"/>
        <path id="Path_16530" data-name="Path 16530" d="M220.3,108.225a120.85,120.85,0,0,0-21.121-6.362c-.007-.074-.012-.149-.019-.224a2.74,2.74,0,0,1-1.1.4c-.123.017-.241.029-.356.036.014.16.029.321.044.481a.749.749,0,0,0,.6.655c1.259.246,2.52.525,3.784.819-.142,1.567-.48,3.271-.469,4.567,0,1.027-.351,2.237-1.354,2.54-.733.222-.363.229-16.066-2.72a8.361,8.361,0,0,1-4.163-2.135c-1-.941-2.06-1.76-3.177-2.627a9.116,9.116,0,0,0-1.789-1.268c.47-1.483.825-3.686,1.306-5.021a.838.838,0,0,0-.008-.8l.006-.035a2.032,2.032,0,0,1-.332-.2c-.053-.011-.107-.023-.161-.039a1.951,1.951,0,0,1-.194-.07,2.115,2.115,0,0,1-.22-.05,1.922,1.922,0,0,1-.573-.281c-.623-.2-1.243-.391-1.868-.578.307-.513,1.161-5.171,4.706-15.337a.741.741,0,0,0-.367-.9l.053-.1-.863-.7q-.156-.168-.3-.34c-2.716-1.588-3.539-1.516-21.378-7.073H154.9a.741.741,0,0,0-.8,1.153c-.428,1.355-.833,2.789-1.29,4.183-1.181,3.592-2.4,7.3-3.55,10.792a31.64,31.64,0,0,0-5.116-6.836,3.354,3.354,0,0,0-1.2-.845,1.656,1.656,0,0,0-1.892.438,1.74,1.74,0,0,0-.242,1.36c.116.8.275,1.592.459,2.382a39.719,39.719,0,0,0-7.117-3.856,2.34,2.34,0,0,0-2.315-.015,1.588,1.588,0,0,0-.336,2.112c-1.758.066-2.748,1.668-1.279,3.325-1.873.705-1.64,2.478-.254,3.625-.515.527-.492,2.6,1.3,4.234a8.483,8.483,0,0,0,1.613,1.12l-1.077,3.713c-1.368,4.711-2.782,9.582-4.169,14.537a.743.743,0,0,0,.42.882c2.386,1.034,4.871,2.047,7.386,3.013a.6.6,0,0,0,.06.02.743.743,0,0,0,.473-1.407c-2.287-.878-4.548-1.8-6.732-2.732,1.329-4.732,2.681-9.388,3.99-13.9.123-.428,2.483-8.528,3.648-12.707L145.5,88.24l-3.18,10.937,5.839,1.7,3.129-10.762,10.272,3.323c4.771,1.515,10.152,2.972,13.277,4-.418,1.377-.846,3.738-1.243,4.832a1.389,1.389,0,0,0-1.043,1.664,1.37,1.37,0,0,0,.06.195c-.248.689-.5,1.4-.6,1.676-1.824-.471-3.711-.946-5.453-1.507a2.748,2.748,0,0,0-2.385.047,1.772,1.772,0,0,0-.3,2.489c.017.023.036.046.055.068a1.972,1.972,0,0,0-.918.957,2.174,2.174,0,0,0,.4,2.066,2.025,2.025,0,0,0-.006,2.608,1.718,1.718,0,0,0-.221,1.986,3.186,3.186,0,0,0,.883,1.018,15.3,15.3,0,0,0,4.013,2.33c-.524,1.761-1.007,3.433-1.463,5.063-6.724-1.027-10.226-1.4-14.113-2.352,2.537-8.1,5.308-15.912,7.8-23.9a.742.742,0,0,0-.488-.931h0a.728.728,0,0,0-.922.46l-.009.029c-2.487,7.99-5.249,15.767-7.8,23.922-4.328-1.459-7.457-2.6-11.554-4.132a.743.743,0,0,0-.521,1.392c4.36,1.632,7.629,2.819,12.4,4.418l.029.009.021.006c4.4,1.139,8,1.48,15.589,2.652a.742.742,0,0,0,.829-.537c.5-1.8,1.029-3.637,1.607-5.588.158.051.314.105.472.155a.659.659,0,0,1,.207.027.8.8,0,0,1,.1.039l.137.021h.028l.027.011.037.009a.758.758,0,0,1,.132.053.968.968,0,0,1,.226.036c.031.009.061.02.091.032s.063.013.094.022a1.063,1.063,0,0,1,.161.065,1.044,1.044,0,0,1,.121.026,1.024,1.024,0,0,1,.158.064v-.016c6.933,1.586,11.571.431,16.209,1.49a11.948,11.948,0,0,1,1.784.542.743.743,0,1,0,.572-1.371l-.024-.01c-2.813-1.115-6.059-1.151-9.09-1.188-5.369-.066-11.768-.593-15.914-4-.783-.646-.5-.776-.531-.836a.7.7,0,0,0,.2-.111,36.494,36.494,0,0,0,9,3.415.744.744,0,0,0,.894-.553h0a.736.736,0,0,0-.539-.889l-.015,0a34.981,34.981,0,0,1-8.789-3.353,1.936,1.936,0,0,1-.781-.6.72.72,0,0,1,.018-.48.224.224,0,0,1,.111-.112,54.553,54.553,0,0,0,8.98,3.6h.006a.743.743,0,0,0,.421-1.425,53.381,53.381,0,0,1-8.334-3.293,3.347,3.347,0,0,1-1.035-.679.763.763,0,0,1-.212-.7,1.425,1.425,0,0,1,.713-.34.721.721,0,0,0,.432.059,51.81,51.81,0,0,0,8.615,3.251.743.743,0,1,0,.406-1.43,49.555,49.555,0,0,1-8.284-3.113c-.438-.213-1.382-.663-1.3-1.172.039-.24.872.014,1.1.089,3.226,1.043,6.738,1.734,9.913,2.766a.744.744,0,0,0,.814-1.166,40.164,40.164,0,0,1-2.8-3.621c.37-.083.81.258,1.133.515,1.4,1.1,2.708,2.065,3.9,3.179a9.858,9.858,0,0,0,4.911,2.516q5.707,1.072,11.427,2.138c3.083.588,4.2.889,5.341.544,1.783-.538,2.415-2.4,2.41-3.971-.009-1.086.281-2.616.443-4.213a120.769,120.769,0,0,1,13.658,4.263,57.821,57.821,0,0,1-3.785,12.9c-1.3,2.96-2.48,3.3-5.82,2.674a71.727,71.727,0,0,1-13.768-3.616.743.743,0,1,0-.515,1.394,72.986,72.986,0,0,0,14.01,3.683,7.849,7.849,0,0,0,4.636-.133c1.839-.838,2.644-2.894,3.424-4.855-.006.061-.011.122-.017.183.248-.934.527-1.859.8-2.787.149-.511.3-1.02.5-1.516.18-.46.369-.919.571-1.372a59.327,59.327,0,0,0,1.383-6.019c.791.309,1.582.622,2.371.948a.741.741,0,0,0,.837-.191,14.886,14.886,0,0,1-1.57-1.712M133.3,92.564a6.509,6.509,0,0,1-1.04-.75,2.8,2.8,0,0,1-1.072-2.3l2.534,1.58q-.211.736-.423,1.468m.85-2.954c-2.7-1.679-3.137-1.913-3.5-2.307a.91.91,0,0,1-.29-.67,1.815,1.815,0,0,1,1.26-.286,21.591,21.591,0,0,0,2.881,2.02c-.118.415-.236.83-.354,1.242m.773-2.718a20.117,20.117,0,0,1-2.244-1.6.7.7,0,0,0-.3-.249c-.294-.25-1.5-1.242-1.39-1.609.032-.107.365-.266.758-.21a6.093,6.093,0,0,1,1.917.564l1.735,1.431c-.157.563-.315,1.12-.473,1.675M136.6,83.8a.742.742,0,0,0-.538.035c-2.785-2.3-3.413-2.725-3.333-3.047a1.121,1.121,0,0,1,.437.067,37.234,37.234,0,0,1,8.113,4.459Zm6.945,2.247a27.229,27.229,0,0,1-1.3-5.376c.3,0,.624.323.84.536a29.991,29.991,0,0,1,4.7,6.213ZM168.5,77.882c-.7,2.073-1.582,4.519-2.436,6.886s-1.736,4.8-2.429,6.863a.5.5,0,0,1-.608.318l-.019,0a.49.49,0,0,1-.316-.618l0-.01c.7-2.078,1.579-4.525,2.436-6.886s1.736-4.8,2.43-6.867a.5.5,0,0,1,.626-.308.5.5,0,0,1,.315.624l0,0m5.7,28.5q-.386-.107-.753-.2l.185-.517.568.721"/>
        <path id="Path_16531" data-name="Path 16531" d="M177.5,222.147H160.317a.747.747,0,0,0,0,1.494H177.5a.747.747,0,0,0,0-1.494"/>
        <path id="Path_16532" data-name="Path 16532" d="M221.388,214.951a.746.746,0,0,0-.747-.747h-6.367a.747.747,0,0,0-.018,1.494h6.385a.747.747,0,0,0,.747-.747"/>
        <path id="Path_16533" data-name="Path 16533" d="M215.211,219h6.084a.747.747,0,0,0,0-1.494h-6.084a.747.747,0,0,0,0,1.494"/>
        <path id="Path_16534" data-name="Path 16534" d="M225.046,203.737a.747.747,0,0,0-.685.8,1.856,1.856,0,0,1-.3,1.138.748.748,0,0,0,1.264.8,3.34,3.34,0,0,0,.526-2.054.751.751,0,0,0-.8-.685"/>
        <path id="Path_16535" data-name="Path 16535" d="M220.406,187.417h3.478a.747.747,0,0,0,0-1.494h-3.478a.747.747,0,0,0,0,1.494"/>
        <path id="Path_16536" data-name="Path 16536" d="M220.919,188.241a.747.747,0,0,0,0,1.494h3.324a.747.747,0,0,0,0-1.494Z"/>
        <path id="Path_16537" data-name="Path 16537" d="M226.1,181.186a.746.746,0,0,0,.672-.419,2.979,2.979,0,0,0,.3-1.5.747.747,0,1,0-1.491.089v.006a1.467,1.467,0,0,1-.151.745.748.748,0,0,0,.671,1.075"/>
        <path id="Path_16538" data-name="Path 16538" d="M241.58,221.773H228.412a1.924,1.924,0,0,0,.251-.891,95.68,95.68,0,0,0,.734-17.136.747.747,0,1,0-1.493.064,94.107,94.107,0,0,1-.727,16.911.672.672,0,0,0-.007.1c0,.4-.66.847-1.592.848-7.163.461-13.6.7-20.005.723.931-11.266.717-20.585-.673-29.215,6.206-.223,4.1-.067,8.8-.017q.179,3.8.295,7.6c.013.446.473.651.723.32.794-1.053,1.533-2.262,2.325-3.369a.156.156,0,0,1,.216-.047.158.158,0,0,1,.053.056,38.624,38.624,0,0,1,1.865,3.554c.195.408.707.294.771-.17a16.748,16.748,0,0,0,.076-1.819c-.02-2.085-.023-4.052-.043-6.126q2.82.1,5.645.269c.884,0,1.542.447,1.542.847,0,.307.327,2.373.636,7.6a.757.757,0,0,0,.79.7.746.746,0,0,0,.7-.79c-.094-1.615-.3-4.741-.633-7.564a2.2,2.2,0,0,0-1.127-1.788,1.856,1.856,0,0,0,1.072-1.6,86.3,86.3,0,0,0,.4-12.041.755.755,0,0,0-.476-.668.746.746,0,0,0,.421-.706c-.052-1.134-.165-3.326-.346-5.313a1.939,1.939,0,0,0-1.965-1.827,104.358,104.358,0,0,0-23.333.972,1.98,1.98,0,0,0-1.9,1.817c-.437,4.374-.191,10.764,0,17.72a1.769,1.769,0,0,0,.33,1.023c-5.764.281-11.882.774-18.657,1.5-1.771.188-2.924,1.082-2.957,2.282-.8,6.219-.347,15.406,0,25.228,0,1.306,1.32,2.331,3.011,2.342,1.6.106,5.5.339,5.841.339a.747.747,0,0,0,.036-1.493c-3.983-.2-5.688-.34-5.852-.34-.883,0-1.543-.447-1.544-.873-.336-9.548-.8-18.961-.006-25.052a.571.571,0,0,0,.006-.1c0-.379.712-.753,1.622-.851,7.367-.784,13.956-1.3,20.154-1.562,1.4,8.591,1.616,17.883.677,29.161-4.039-.005-8.086-.094-12.319-.266a.747.747,0,0,0-.06,1.493,306.274,306.274,0,0,0,33.247-.418c.267.114-.7.037,16.639.06a.747.747,0,0,0,0-1.494m-21.483-50.27q.095,2.6.158,5.2c.007.313.258.457.4.225.434-.74.838-1.589,1.271-2.366a.078.078,0,0,1,.1-.044.074.074,0,0,1,.046.05c.344.7.72,1.692,1.019,2.5.107.288.386.207.421-.118.065-.615.043-1.885.02-5.356,1.008.045,2.014.106,3.024.186h.059c.273,0,.5.171.5.372s.18,1.684.347,5.343a.738.738,0,0,0,.469.663.746.746,0,0,0-.415.693,84.708,84.708,0,0,1-.4,11.865c0,.027,0,.053,0,.08,0,.2-.231.372-.5.372s-3.39.32-7.964.454q-1.312-.036-2.632-.058a107.52,107.52,0,0,0-.363-19.976c1.516-.065,2.991-.092,4.447-.084M203.47,191.163h-.064a.459.459,0,0,1-.5-.392c-.175-6.383-.445-13.2,0-17.583v-.075c0-.192.312-.339.6-.379,3.883-.531,7.367-.886,10.643-1.075a106.034,106.034,0,0,1,.362,19.885c-9.455-.077-2.915.323-11.042-.378"/>
        <path id="Path_16539" data-name="Path 16539" d="M247.292,219.98a.759.759,0,0,1-.221-1.05v0a54.929,54.929,0,0,0,7.042-43.392.76.76,0,1,1,1.456-.437c0,.016.009.033.013.05a56.47,56.47,0,0,1-7.24,44.611.76.76,0,0,1-1.052.22"/>
        <path id="Path_16540" data-name="Path 16540" d="M261.267,207.592a.76.76,0,0,1-.455-.973,44.72,44.72,0,0,0,2.177-21.788.76.76,0,1,1,1.485-.323.805.805,0,0,1,.015.1,46.223,46.223,0,0,1-2.251,22.531.761.761,0,0,1-.974.455"/>
        <path id="Path_16541" data-name="Path 16541" d="M121.8,140.859c-3.8-.412-11.016-1.03-11.016-1.03l-1.239-.093-15.25-.719-1.347-.022s-2.4-.021-3.583-.017a.572.572,0,0,0-.557.4c-1.855,5.8-5.347,17.716-5.347,17.716l-.36,1.348s-1.046,4.209-1.5,6.318l-.521-.152c.016.132.029.261.045.378.039.292.094.592.109.889V166l.561.161a.646.646,0,0,0,.124.024h.044a.686.686,0,0,0,.161.038.361.361,0,0,0,.066,0c9.96-.032,21.25-.068,31.237-1.334a.568.568,0,0,0,.478-.393c2.476-7.645,5.337-15.267,8.5-22.655a.738.738,0,0,0-.451-.942.772.772,0,0,0-.163-.038m-20.562,13.375a3.018,3.018,0,0,1-1.45-3.154,3.222,3.222,0,0,1,2.91-2.8c.643.063,1.126.574,1.435,1.523.736,2.263-1.236,5.005-2.895,4.431m15.348-8.239-3.682,9.062a.387.387,0,0,1-.4.236.493.493,0,0,1-.439-.543.47.47,0,0,1,.022-.1l3.683-9.062a.4.4,0,0,1,.525-.21.283.283,0,0,1,.046.023.486.486,0,0,1,.251.6"/>
        <path id="Path_16542" data-name="Path 16542" d="M82.96,165.771h-.019l-15.057-.447a.635.635,0,0,1-.489-.254l-.162-.217a.635.635,0,0,1,.488-1.016l13.636-.446a.632.632,0,0,1,.385.115l1.583,1.109a.635.635,0,0,1-.364,1.156"/>
      </g>
    </g>
  </g>
</svg>
