<svg id="introimage_b" xmlns="http://www.w3.org/2000/svg" xmlns:xlink="http://www.w3.org/1999/xlink" width="264.993" height="235.006" viewBox="0 0 264.993 235.006">
  <defs>
    <clipPath id="clip-path">
      <rect id="Rectangle_3036" data-name="Rectangle 3036" width="264.993" height="235.006" fill="none"/>
    </clipPath>
    <clipPath id="clip-path-3">
      <rect id="Rectangle_3030" data-name="Rectangle 3030" width="70.826" height="76.829" transform="translate(25.009 102.667)" fill="none"/>
    </clipPath>
    <clipPath id="clip-path-4">
      <rect id="Rectangle_3032" data-name="Rectangle 3032" width="82.88" height="100.989" transform="translate(130.906 0.001)" fill="none"/>
    </clipPath>
    <clipPath id="clip-path-6">
      <rect id="Rectangle_3034" data-name="Rectangle 3034" width="31.752" height="31.752" transform="translate(227.334 69.51)" fill="none"/>
    </clipPath>
  </defs>
  <g id="Group_17725" data-name="Group 17725" clip-path="url(#clip-path)">
    <g id="Group_17717" data-name="Group 17717">
      <g id="Group_17716" data-name="Group 17716" clip-path="url(#clip-path)">
        <g id="Group_17715" data-name="Group 17715" opacity="0.2">
          <g id="Group_17714" data-name="Group 17714">
            <g id="Group_17713" data-name="Group 17713" clip-path="url(#clip-path-3)">
              <path id="Path_16543" data-name="Path 16543" d="M25.009,153.5s.224-16.379,3.019-26.385,3.186-16.1,13.192-20.124,9.224-5.255,11.572-3.634,12.969,10.509,12.969,10.509,1.118-6.26,1.509-7.714,1.174-1.4,1.174-1.4a48.992,48.992,0,0,1,27.391,27.391l-12.41,15.037s3.2.692,2.606,1.576-5.121,8.319-5.121,8.319l.111,7.267,6.82,3.354.783,6.372-47.2,5.423s-10.062-2.907-10.062-3.242-.447-12.41-.447-12.41l-1.565-11.516Z" fill="#fc6e20"/>
            </g>
          </g>
        </g>
        <path id="Path_16544" data-name="Path 16544" d="M29.35,152.328l18.988-5.4a38.594,38.594,0,0,1,.121,4.653,20.563,20.563,0,0,0,.717,5.018,3.43,3.43,0,0,0,3.41,1.286,39.387,39.387,0,0,0,8.162-2.907,50.058,50.058,0,0,1,7.6-2.851c1.845-.447,4.137-1.174,6.932.056s4.136,1.733,4.584,2.795.279,2.963.055,2.963-1.652,1.507-2.055,1.2-2.025.588-2.025.588-2.348.782-2.572.95a13.1,13.1,0,0,1-2.851,1.062c-.447,0-2.459-1.062-3.689-.615s-7.659,4.416-9.056,6.093-3.913,5.59-13.248,6.149-9.224,1.118-11.963-6.037a49.476,49.476,0,0,1-3.131-12.913Z" fill="#fff"/>
        <path id="Path_16545" data-name="Path 16545" d="M228.562,42.528c.795,3.279,4.243,5.22,7.551,5.89a15.873,15.873,0,0,0,10.525-1.29,11.589,11.589,0,0,0,6.139-8.412,9.169,9.169,0,0,0-4.415-9.159,8.108,8.108,0,0,1,1.111,7.768,13.32,13.32,0,0,1-5.109,6.259c-2.99,2.086-6.783,3.334-10.322,2.451s-6.525-4.337-6.061-7.954a15.691,15.691,0,0,0,3.357,8.447Z" fill="#ccc"/>
        <path id="Path_16546" data-name="Path 16546" d="M196,117.872c4.087.488,8.445.935,12.138-.877s6.123-6.815,3.775-10.194c2.029,2.663.137,6.817-2.856,8.315s-6.543,1.128-9.866.72l-31.916-3.91L151.5,109.994c-4.391-.538-10.811-.179-14.766-2.086,9.829,2.116,19.526,4.483,29.483,6.042,9.618,1.505,20.049,3.87,29.789,3.924" fill="#ccc"/>
        <path id="Path_16547" data-name="Path 16547" d="M51.82,147.152v.1a2.837,2.837,0,0,1,1.028,2.708,11.732,11.732,0,0,1-.91,2.939,5.568,5.568,0,0,0-.464,3.009,6.19,6.19,0,0,1,.238,1.221.925.925,0,0,1-.651.945,4.048,4.048,0,0,1-2.266-2.791,15.084,15.084,0,0,1-.336-3.706,8.5,8.5,0,0,0-.69-3.635,6.42,6.42,0,0,1,4.791-1.175c-.146-.021-.6.407-.739.386" fill="#ccc"/>
        <path id="Path_16548" data-name="Path 16548" d="M52.649,173.045a8.168,8.168,0,0,0,.6-1c-.059-.1-.117-.194-.173-.292-4.3,1-8.621,1.871-12.981,2.558a8.5,8.5,0,0,1-2.746.128,8.311,8.311,0,0,0,4.906,1.455,24.668,24.668,0,0,0,6.142-.966c1.081-.264,2.162-.535,3.244-.8a13.764,13.764,0,0,0,1-1.079" fill="#ccc"/>
        <path id="Path_16549" data-name="Path 16549" d="M86.267,148.534c.038-.063.066-.13.107-.191.185-.267.388-.52.551-.8a1.991,1.991,0,0,1,.274-.365,3.493,3.493,0,0,1,.605-2.208A100.338,100.338,0,0,1,94.115,134.8,74.772,74.772,0,0,0,83.351,147.7c.275-.508,1.075-.278,1.363.219a2.026,2.026,0,0,1,1.022.29,5.5,5.5,0,0,0,.53.322" fill="#ccc"/>
        <path id="Path_16550" data-name="Path 16550" d="M74.8,107.652l-7.718-3.626a84.623,84.623,0,0,1-.492,8.919c1.111-.2,2.231-2.733,3.315-3.557.94-.714,3.632-2.329,4.894-1.737" fill="#ccc"/>
        <path id="Path_16551" data-name="Path 16551" d="M74.994,42.049c.361,6.248.778,8.22,4.175,9.164,4.694,1.3,9.9.109,14.959-.407a130.855,130.855,0,0,0,15.7-2.259c3.658-.834,10.145-1.3,12.849-3.443s1.592-3.074.963-8.109c-.942,3.518-1.712,6.286-5.716,8.148-2.84,1.321-6.436.846-9.678,1.044L91.838,47.911c-3.9.238-8.107.422-11.322-1.189-3.925-1.967-3.95-14.14-4.854-17.753-.653,2.171-.778,4.082-.917,8.026" fill="#ccc"/>
        <path id="Path_16552" data-name="Path 16552" d="M156.749,189.327a3.639,3.639,0,0,1,1.862-2.181c1.823-.609,3.542,1.77,5.432,1.446a14.988,14.988,0,0,0,1.942-.8c.667-.215,1.576-.029,1.758.675.192.741-.541,1.359-1.183,1.733a48.894,48.894,0,0,1-7.29,3.477,10.645,10.645,0,0,0-2.913,1.417,4.85,4.85,0,0,0-1.253,1.6c-1.129-.953,1.131-6.187,1.647-7.352" fill="#ccc"/>
        <path id="Path_16553" data-name="Path 16553" d="M152.734,176.189a22.048,22.048,0,0,0,1.135-4.758,7.4,7.4,0,0,0-1-4.7c-.939-1.417-2.56-2.417-2.923-4.1-.38-1.761.795-3.437,1.888-4.828.743-.94,1.781-1.987,2.9-1.63a2.7,2.7,0,0,1,1.48,1.861,14.27,14.27,0,0,1,.637,3.912,26.726,26.726,0,0,1-5.534,17.445Z" fill="#ccc"/>
        <path id="Path_16554" data-name="Path 16554" d="M142.618,190.516c-1.292-2.452-3.553-6.829-5.968-8.042-2.588-1.3-5.862-.757-8.225-2.462a11.025,11.025,0,0,1-3-4.134c1.177.524,2.448-.438,3.357-1.378s2.024-2.013,3.279-1.733c1.8.4,2.251,3.253,4.033,3.744.9.247,1.947-.189,2.738.323.907.587.844,1.95.8,3.065-.133,3.827,1.334,7.493,2.774,11.014Z" fill="#ccc"/>
        <path id="Path_16555" data-name="Path 16555" d="M238.679,21.143a13.484,13.484,0,1,0,13.484,13.484,13.484,13.484,0,0,0-13.484-13.484m6.828,9.956-8.223,8.222a.771.771,0,0,1-1.09,0l-3.838-3.839a.773.773,0,0,1,1.093-1.093l3.29,3.29L244.415,30a.773.773,0,0,1,1.093,1.093"/>
        <path id="Path_16556" data-name="Path 16556" d="M241.407,68.6l-.119.029a15.838,15.838,0,0,0-5.166,1.36l-.05.021a16.959,16.959,0,0,0-8.328,22,.772.772,0,0,0,1.419-.608,15.42,15.42,0,0,1,7.509-19.97l.048-.02a14.305,14.305,0,0,1,6.351-1.3,14.757,14.757,0,0,1,3.213.434l.023.006A15.013,15.013,0,0,1,257.454,84.04l.02.41c.022.374.029.761.021,1.179a15.6,15.6,0,0,1-1.093,5.38.206.206,0,0,1-.02.054,15.3,15.3,0,0,1-4.424,6.046c-.082.07-.162.132-.255.2a14.5,14.5,0,0,1-7.938,3.1l.072.768-.125-.765c-.423.032-.869.041-1.364.032a14.777,14.777,0,0,1-3.255-.446,14.36,14.36,0,0,1-1.968-.663.5.5,0,0,0-.066-.031,14.749,14.749,0,0,1-6.237-5,.772.772,0,0,0-1.3.84l.016.023c.008.013.018.025.027.038a16.232,16.232,0,0,0,6.847,5.5.608.608,0,0,0,.063.03,15.976,15.976,0,0,0,2.263.765,16.217,16.217,0,0,0,2.673.439,16.93,16.93,0,0,0,16.87-6.63,17.869,17.869,0,0,0,.511-19.4,16.68,16.68,0,0,0-17.387-7.328"/>
        <path id="Path_16557" data-name="Path 16557" d="M236.671,93.255a.774.774,0,0,0,.112,1.086,8.177,8.177,0,0,0,4.471,1.862c.009.472.017.944.03,1.415a.77.77,0,0,0,.77.751h.022a.77.77,0,0,0,.75-.789v0c-.012-.473-.021-.948-.03-1.422a6.313,6.313,0,0,0,4.429-2.79,5.354,5.354,0,0,0-.093-5.862,8.7,8.7,0,0,0-4.272-2.683c.083-2.626.218-5.246.4-7.813a5.353,5.353,0,0,1,.552.043,3.441,3.441,0,0,1,1.771.685,1.709,1.709,0,0,1,.67,1.391.772.772,0,0,0,1.538.134,3.236,3.236,0,0,0-1.226-2.72,4.945,4.945,0,0,0-2.547-1.022c-.217-.029-.433-.042-.649-.05.07-.929.152-1.928.249-3.036a.772.772,0,1,0-1.538-.14v0c-.107,1.206-.2,2.285-.266,3.279a6.115,6.115,0,0,0-3.262,1.669,5.046,5.046,0,0,0-.987,5.726,6.853,6.853,0,0,0,3.724,2.894c-.08,2.945-.1,5.89-.06,8.778a6.8,6.8,0,0,1-3.469-1.5.773.773,0,0,0-1.086.111m9.21-4.845a3.831,3.831,0,0,1,.035,4.132,4.726,4.726,0,0,1-3.146,2.055c-.038-2.683-.022-5.412.046-8.147a6.544,6.544,0,0,1,3.065,1.957m-6.955-6.16a3.512,3.512,0,0,1,.719-3.923,4.47,4.47,0,0,1,2.051-1.149c-.159,2.313-.28,4.67-.362,7.029a4.811,4.811,0,0,1-2.408-1.959"/>
        <path id="Path_16558" data-name="Path 16558" d="M258.438,36.692h.074a.772.772,0,0,0,.767-.7,23.538,23.538,0,0,0-9.731-21.144.772.772,0,1,0-.931,1.232l.043.03a21.969,21.969,0,0,1,9.082,19.736.771.771,0,0,0,.693.842h0"/>
        <path id="Path_16559" data-name="Path 16559" d="M259.265,15.421a.771.771,0,0,0-1.185.988,29.86,29.86,0,0,1,5.407,9.811.772.772,0,0,0,1.481-.434.13.13,0,0,0-.013-.041,31.4,31.4,0,0,0-5.689-10.324"/>
        <path id="Path_16560" data-name="Path 16560" d="M206.706,116.918a6.9,6.9,0,0,0,1.6-.192,6.785,6.785,0,0,0,4.491-3.749,6.649,6.649,0,0,0,.6-2.842q-.025-1.925-.035-3.857a.77.77,0,1,0-1.54.008q.01,1.939.035,3.868a5.151,5.151,0,0,1-5.745,5.184l-68.271-7.875a5.13,5.13,0,0,1-4.57-4.945c-.286-8.389-.34-16.879-.39-25.089q-.017-2.689-.036-5.376a.772.772,0,0,0-.772-.766h-.006a.773.773,0,0,0-.766.778q.021,2.683.036,5.374c.051,8.221.1,16.721.391,25.137A6.664,6.664,0,0,0,137.66,109l68.269,7.875a6.6,6.6,0,0,0,.782.047"/>
        <path id="Path_16561" data-name="Path 16561" d="M36.389,165.545a.772.772,0,0,0-.236,1.066l2.062,3.239a.772.772,0,0,0,1.3-.829l-2.062-3.239a.774.774,0,0,0-1.066-.237"/>
        <path id="Path_16562" data-name="Path 16562" d="M54.291,156.9l-.524.078a5.83,5.83,0,0,1-2.592.014c-1.321-.451-1.734-2.046-1.678-3.387a10.615,10.615,0,0,0-.106-2.1,15.215,15.215,0,0,1-.148-1.77.755.755,0,0,0-.758-.75h-.037a.771.771,0,0,0-.749.792,16.992,16.992,0,0,0,.16,1.926,9.062,9.062,0,0,1,.1,1.832,5.564,5.564,0,0,0,1.212,3.916c-.01.013-.022.023-.032.037l-1.472,2.061a.772.772,0,0,0,1.256.894l1.472-2.062c.01-.014.016-.03.025-.044.085.037.17.075.261.1a4.647,4.647,0,0,0,1.512.228A12.3,12.3,0,0,0,54,158.5l.219-.033a7.237,7.237,0,0,1,.073-1.57"/>
        <path id="Path_16563" data-name="Path 16563" d="M96.83,132a50.653,50.653,0,0,0-11.647-17.168.772.772,0,0,0-1.073,1.11A49.075,49.075,0,0,1,95.2,132.11a104.764,104.764,0,0,0-11.674,13.465c-.349-2.766-.716-5.65-1.086-8.545-.466-3.649-.933-7.3-1.357-10.7a.772.772,0,0,0-1.538.137.146.146,0,0,0,.007.055c.425,3.4.894,7.054,1.357,10.7.457,3.577.913,7.144,1.33,10.48-.1.067-.193.133-.286.2a6.019,6.019,0,0,1,1.069.147,6.835,6.835,0,0,1,3.007.712A2.3,2.3,0,0,0,86,148.1a1.809,1.809,0,0,0-1.608-1.106,102.23,102.23,0,0,1,7.154-8.872h.019a1.89,1.89,0,0,1,.518-.54,1.953,1.953,0,0,1,.194-.181,1.926,1.926,0,0,1,.5-.522c.027-.025.043-.058.072-.08a1.331,1.331,0,0,1,.134-.207.96.96,0,0,1,.087-.1h-.022c.04-.042.082-.081.121-.123a1.573,1.573,0,0,1,.122-.123c1.1-1.156,2.211-2.3,3.359-3.4a.772.772,0,0,0,.177-.85"/>
        <path id="Path_16564" data-name="Path 16564" d="M104.371,188.5,88.6,188.437c.123-.016.241-.026.366-.036.772-.073.952-.2.921-.525a.782.782,0,0,0,.144-.406c.5-7.758.1-13.446-1.345-19.328a5.619,5.619,0,0,1-1.045-.324c-.275-.117-.38-.162-.349-.15l-.311-.129c-.006.044-.007.086-.015.129h.018a51.056,51.056,0,0,1,1.217,6.124c-9.293-1.093-18.925.71-28.217,1.878-9.245,1.165-19.589,3.1-27.779-1.1-.22-2.583-.4-5.159-.5-7.563.335.994.684,1.955,1.044,2.861.684,1.717,1.554,3.426,3.288,4.292a6.52,6.52,0,0,0,2.961.615,18.581,18.581,0,0,0,2.726-.252c3.082-.439,6.143-1,9.19-1.63a2.166,2.166,0,0,1,.651-1.7c-3.335.711-6.692,1.325-10.07,1.809-1.689.252-3.449.445-4.769-.216s-2.013-2.147-2.544-3.482a65.9,65.9,0,0,1-2.592-8.188v-.042a.767.767,0,0,0-.1-.377,71.422,71.422,0,0,1-1.477-7.838,147.683,147.683,0,0,1,23.992-5.966.771.771,0,0,0,.644-.657c.2-1.456.321-2.947.437-4.389.113-1.408.231-2.863.424-4.264l.835.421a.773.773,0,0,0,.7-1.378l-3.534-1.782a.773.773,0,0,0-.7,1.378l1.372.7a.77.77,0,0,0-.2.424c-.2,1.454-.321,2.942-.436,4.382-.1,1.232-.2,2.5-.355,3.736a151.295,151.295,0,0,0-27.366,7.221,104.256,104.256,0,0,1,.828-14.531.772.772,0,0,0-1.531-.2A105.665,105.665,0,0,0,24.3,153.8a.774.774,0,0,0,1.04.705c1.058-.4,2.117-.769,3.179-1.139a73.693,73.693,0,0,0,1.527,7.932,199.312,199.312,0,0,0,2.066,26.236.769.769,0,0,0,1.341.4v.28l-10.3-.041a.772.772,0,0,0,0,1.543l38.292.155v-5.829a.515.515,0,1,1,1.029-.045.338.338,0,0,1,0,.045v5.835l41.9.17a.772.772,0,1,0,0-1.544m-18.528-4.166-.035-.006a1.829,1.829,0,0,1-1.226-2.23c.036-.224.092-.447.149-.67a2.68,2.68,0,0,0,.133-1.141c-.15-.722-1.043-1.164-1.9-1.5a.513.513,0,0,1-.289-.667h0a.516.516,0,0,1,.668-.289c.728.288,2.244.887,2.527,2.25a3.529,3.529,0,0,1-.144,1.6c-.05.193-.1.385-.13.579-.072.445.079,1,.381,1.052a.515.515,0,0,1-.136,1.02"/>
        <path id="Path_16565" data-name="Path 16565" d="M70.746,90.1a.632.632,0,0,1-.439.059.772.772,0,0,0-1.426.58,1.4,1.4,0,0,0,.962.894,2.129,2.129,0,0,0,1.852-.311,2.751,2.751,0,0,0,.919-2.018,21.8,21.8,0,0,0-.146-5.371.772.772,0,0,0-1.526.231,20.239,20.239,0,0,1,.135,4.991c-.045.461-.115.781-.331.949"/>
        <path id="Path_16566" data-name="Path 16566" d="M67.271,92.785a.772.772,0,0,0,.074,1.089,3.961,3.961,0,0,0,2.576.959c.073,0,.147,0,.221-.006a.772.772,0,0,0,.725-.815.759.759,0,0,0-.787-.728h-.028a2.434,2.434,0,0,1-1.7-.578.772.772,0,0,0-1.089.074"/>
        <path id="Path_16567" data-name="Path 16567" d="M94.227,134.691l1.917,4.887h.034a2.19,2.19,0,0,1,.923.192,1.834,1.834,0,0,1,.3-.086c.024-.008.041-.021.065-.027.008,0,.187-.027.344-.048l-2.149-5.479a.772.772,0,1,0-1.452.524l.006.017.009.023"/>
        <path id="Path_16568" data-name="Path 16568" d="M80.214,8.723A22.265,22.265,0,0,0,66.965,19.939a.772.772,0,1,0,1.369.714l.014-.029A20.7,20.7,0,0,1,80.665,10.2a.772.772,0,0,0-.448-1.477"/>
        <path id="Path_16569" data-name="Path 16569" d="M72.8,5.7a20.187,20.187,0,0,0-6.925,5.982.772.772,0,0,0,1.249.907,18.623,18.623,0,0,1,6.394-5.523.772.772,0,1,0-.681-1.386l-.036.019"/>
        <path id="Path_16570" data-name="Path 16570" d="M.006,62.23l.077,6.736a3.433,3.433,0,0,0,3.226,3.56h.033l21.479-.245L34.4,78.426a.772.772,0,0,0,1.192-.658l-.066-5.687,1.735-.02a3.038,3.038,0,0,0,2.145-.948A3.8,3.8,0,0,0,40.438,68.4l-.125-6.658a3.434,3.434,0,0,0-3.226-3.531h-.033L3.186,58.6A3.427,3.427,0,0,0,.007,62.231m26.031,5.9-7.75.088a.515.515,0,1,1-.051-1.029h.045l7.75-.088a.5.5,0,0,1,.521.478v.031a.516.516,0,0,1-.509.521m-15.259-5.49,22.315-.25a.5.5,0,0,1,.521.472V62.9a.516.516,0,0,1-.509.521L10.8,63.676h-.006a.515.515,0,0,1-.006-1.029"/>
        <path id="Path_16571" data-name="Path 16571" d="M61.848,68.076a10.159,10.159,0,0,0-3.342-.019c-.133.031-.259.072-.39.106V65.546a.771.771,0,0,0-1.542,0h0v1.987a9.022,9.022,0,0,0-2.457-.871.772.772,0,0,0-.271,1.519,7.631,7.631,0,0,1,2.079.754,9.46,9.46,0,0,0-3.8,2.952,8.71,8.71,0,0,0-1.553,5.18c0,.378.019.765.058,1.18a26.767,26.767,0,0,0,.585,3.362,4.557,4.557,0,0,0-1.5,1.5,5.017,5.017,0,0,0,.027,4.968l.1.173a6.09,6.09,0,0,0,1.868,2.359c-.153.647-.286,1.164-.4,1.6a13.97,13.97,0,0,0-.5,5.341.772.772,0,0,0,.771.741h.031a.772.772,0,0,0,.741-.8,12.582,12.582,0,0,1,.457-4.9c.145-.561.325-1.26.537-2.2a.77.77,0,0,0-.424-.868A4.032,4.032,0,0,1,51.2,87.51l-.1-.177a3.478,3.478,0,0,1-.057-3.434,3.244,3.244,0,0,1,2.487-1.472,2.03,2.03,0,0,1,.956.424,2.4,2.4,0,0,1,.8,1.782,1.018,1.018,0,0,1-.087.12.77.77,0,0,0,.994,1.153.753.753,0,0,0,.339-.185,19.519,19.519,0,0,0,4.454-6.6,10.506,10.506,0,0,0,.559-2.061,45.8,45.8,0,0,0,5.465.348c.425.01.852.02,1.283.033.176,0,.32.014.449.021a6.913,6.913,0,0,0,2.627-.354,6.552,6.552,0,0,0,1.87-1.237,7.106,7.106,0,0,0,1.788,1.3,36.91,36.91,0,0,1-.63,14.952,7.892,7.892,0,0,1-2.316,4.66,5.928,5.928,0,0,1-7.6-.681.772.772,0,0,0-1.155,1.024A6.763,6.763,0,0,0,66.223,99l.343,5.51c-.1,1.483-.349,3.08-.6,4.626-.176,1.117-.357,2.259-.484,3.384-2.015-1.728-4.209-3.469-6.342-5.166-1.954-1.551-3.974-3.155-5.827-4.724a3.422,3.422,0,0,0-4.111-.26,34.767,34.767,0,0,1-6.742,3.17c-3.241,1.259-6.592,2.561-8.866,4.8a16.983,16.983,0,0,0-3.848,7.138,110.681,110.681,0,0,0-3.914,15.74.773.773,0,0,0,.627.894.716.716,0,0,0,.131.011.772.772,0,0,0,.76-.642,109.014,109.014,0,0,1,3.857-15.521,15.662,15.662,0,0,1,3.466-6.52c2.046-2.019,5.246-3.263,8.341-4.465a35.956,35.956,0,0,0,7.048-3.33,1.874,1.874,0,0,1,2.248.159c1.871,1.59,3.9,3.2,5.862,4.756,2.529,2.008,5.144,4.083,7.423,6.107a.772.772,0,0,0,1.283-.531c.092-1.528.353-3.179.6-4.769.2-1.292.409-2.62.536-3.937A52.832,52.832,0,0,1,81,113.177a.772.772,0,0,0,.976-1.192,54.427,54.427,0,0,0-13.653-8.1.769.769,0,0,0-.276-.057l-.278-4.471a7.7,7.7,0,0,0,.96.066,6.769,6.769,0,0,0,4.312-1.449A9.375,9.375,0,0,0,75.89,92.45a38.967,38.967,0,0,0,.787-14.665,6.663,6.663,0,0,0,1.217.167,7.076,7.076,0,0,0,5.6-2.484,7.872,7.872,0,0,0-.244-9.809,9.966,9.966,0,0,0-9.417-3.125c-3.455.648-5.883,2.782-7.993,5-.85.894-2.385.723-4.006.539m16.1-1.013a.513.513,0,0,1,.665-.29h0a4.094,4.094,0,0,1,2.385,4.723.515.515,0,0,1-.994-.263,3.08,3.08,0,0,0-1.766-3.5.514.514,0,0,1-.288-.668h0"/>
        <path id="Path_16572" data-name="Path 16572" d="M173.55,185.774a.772.772,0,0,0-.86-.54v.01a17.628,17.628,0,0,1-6.76-.91l-.09-.03c-2.65-.71-5.04-1.26-7.5-.8-2.42.44-5.25,2.3-5.72,5.33a15.208,15.208,0,0,0,.52,5.02,13.085,13.085,0,0,1,.48,4.74c0,.03-.01.05-.01.08a47.814,47.814,0,0,0-3.29,7.3,85.8,85.8,0,0,0-4.93-11.25,49.572,49.572,0,0,1,4.35-11.35c.48-.91,1.01-1.82,1.52-2.71.5-.85.99-1.72,1.46-2.61l.57-.2a16.385,16.385,0,0,0,3.71-1.7,6.573,6.573,0,0,0,2.76-3.9,9.6,9.6,0,0,0,.06-2.93,7.652,7.652,0,0,1,.1-2.74,7.307,7.307,0,0,1,1.74-2.52,15.739,15.739,0,0,0,1.13-1.32,9.3,9.3,0,0,0-.41-11.37c-2.26-2.6-5.73-3.5-8.8-4.29l-.06-.02c-2.99-.77-6.06-1.73-7.81-4.15a.759.759,0,0,0-1.08-.16.79.79,0,0,0-.2,1.02,13.676,13.676,0,0,1,1.1,12.13c-.21.53-.46,1.05-.72,1.6a13.409,13.409,0,0,0-1.39,4.08,9.037,9.037,0,0,0,2.37,6.76,21.848,21.848,0,0,0,5.37,4.19.768.768,0,1,0,.85-1.28c-.01-.01-.02-.02-.03-.02a21.066,21.066,0,0,1-5.01-3.89,7.483,7.483,0,0,1-2-5.58,11.761,11.761,0,0,1,1.25-3.6c.26-.55.52-1.11.75-1.69a15.253,15.253,0,0,0,.34-10.11,22.448,22.448,0,0,0,5.83,2.2l.06.01c2.98.78,6.07,1.58,8.02,3.81a7.835,7.835,0,0,1,.34,9.44,14.789,14.789,0,0,1-1.03,1.2,8.393,8.393,0,0,0-2.08,3.11,8.787,8.787,0,0,0-.17,3.31,8.585,8.585,0,0,1-.02,2.48,5.106,5.106,0,0,1-2.15,2.97,10.593,10.593,0,0,1-2.37,1.15c.37-.8.71-1.62,1-2.45,1.44-4.24,1.16-8.32-.76-11.22a.771.771,0,0,0-1.07-.2.786.786,0,0,0-.24,1.02l.03.03c1.63,2.46,1.84,6.15.57,9.87a39.474,39.474,0,0,1-3.35,6.81c-.52.9-1.05,1.82-1.54,2.75a50.4,50.4,0,0,0-4.05,10.1c-.37-.66-.74-1.32-1.13-1.98a.448.448,0,0,0,0-.23c-.43-2.27.32-5.17,1.05-7.97s1.46-5.67,1.13-8.13c-.68-4.99-5.29-8.14-9.29-8.97-4.12-.85-8.22,0-12.76,1.12l-.16.04c-3.94.96-8.02,1.96-11.95,1.33a.758.758,0,0,0-.88.64.771.771,0,0,0,.5.85c2.66.92,4.3,3.5,6.03,6.24s3.51,5.56,6.48,6.8a14.32,14.32,0,0,0,6.23.68c.69-.03,1.4-.06,2.08-.05,2.1.03,6.55,2.91,8.24,5.21q2.085,3.255,3.87,6.6a52.287,52.287,0,0,0-1.24,7.96,10.739,10.739,0,0,0-2.39-1.21,5.573,5.573,0,0,0-.8-.22c-.04-.13-.08-.25-.13-.37a17.865,17.865,0,0,0-3.69-5.84c.51-1.94-.55-3.98-1.76-5.3a8.874,8.874,0,0,0-4.91-2.82c-2.64-.45-5.13.6-7.53,1.6-.28.12-.56.23-.83.34a17.027,17.027,0,0,1-2.67.88,25.263,25.263,0,0,0-4.98-.5.77.77,0,0,0-.41,1.44,7.551,7.551,0,0,0,5.36.65,7.182,7.182,0,0,1,3.01,1.53,11.623,11.623,0,0,1,1.34,1.47,13.583,13.583,0,0,0,1.68,1.79,6.784,6.784,0,0,0,4.27,1.55,7.465,7.465,0,0,0,1.25-.13,6.813,6.813,0,0,0,3.98-2.48,16.471,16.471,0,0,1,4.34,6.12,2.919,2.919,0,0,0-1.2.48,2.619,2.619,0,0,0-1.08,2.28,1.957,1.957,0,0,0,.98,1.7,1.91,1.91,0,0,0,1.68.08,2.624,2.624,0,0,0,1.5-1.64,3.624,3.624,0,0,0,.15-1.13,8.848,8.848,0,0,1,2.72,1.58,50.021,50.021,0,0,0,.25,7.44,2.106,2.106,0,0,0,.02.25l-5.26.05a.764.764,0,0,0-.76.78l.14,10.41c0,4.41,3.31,8.18,8.01,9.75a.488.488,0,0,0,.11.04h-5.7a.76.76,0,0,0-.83.71.77.77,0,0,0,.71.82c.02,0,.04.01.06.01h26.39a.78.78,0,0,0,.83-.72.771.771,0,0,0-.72-.82h-.05a.064.064,0,0,0-.06,0H154.38a.488.488,0,0,0,.11-.04c4.69-1.57,8.01-5.34,8.01-9.73l.28-10.65a.821.821,0,0,0-.22-.56.787.787,0,0,0-.56-.23l-9.76.09c-.01-.05-.03-.11-.04-.16-.32-1.24-.66-2.48-1.05-3.74a46.065,46.065,0,0,1,4.75-10.63.7.7,0,0,0,.2-.22c.67-1.19,3.41-3.21,4.64-3.21h.01c.4,0,.8.03,1.19.05a8.463,8.463,0,0,0,3.74-.33c1.82-.71,2.91-2.37,3.97-3.97,1-1.51,1.94-2.93,3.38-3.4a.771.771,0,0,0,.52-.96m-31.97,2.27a5.571,5.571,0,0,0-.37-.57,99.439,99.439,0,0,0-6.69-9.23.775.775,0,0,0-1.26.9.435.435,0,0,1,.06.07c1.13,1.38,2.22,2.78,3.27,4.22a10.7,10.7,0,0,0-4.89-1.87h-.31c-.62,0-1.25.03-1.87.05a13,13,0,0,1-5.57-.56c-2.52-1.05-4.1-3.55-5.77-6.2a23.527,23.527,0,0,0-3.98-5.17,43.33,43.33,0,0,0,9.34-1.57l.16-.04c4.36-1.07,8.28-1.89,12.09-1.1,3.48.72,7.49,3.42,8.06,7.67.3,2.16-.41,4.89-1.09,7.53a35.488,35.488,0,0,0-1.18,5.87m-8.33,4.91v.01a.5.5,0,0,1-.15.14.594.594,0,0,1-.26.07.51.51,0,0,1-.31-.11,10.519,10.519,0,0,0-8.99-1.79v-.01a.516.516,0,0,1-.27-.99,11.558,11.558,0,0,1,9.88,1.97.5.5,0,0,1,.1.71m4.84,10.87a1.136,1.136,0,0,1-.6.67.427.427,0,0,1-.35,0,.484.484,0,0,1-.2-.43,1.134,1.134,0,0,1,.41-.94,1.6,1.6,0,0,1,.78-.25,2.181,2.181,0,0,1-.04.95m4.49,19.93a.511.511,0,0,1-.72.1c-.39-.29-1.48-1.11-1.48-2.2a1.723,1.723,0,0,1,.06-.44,2.6,2.6,0,0,1,.64-1.02,3.326,3.326,0,0,0,.36-.46,1.108,1.108,0,0,0-.48-1.43.513.513,0,0,1-.22-.69.508.508,0,0,1,.65-.24,2.119,2.119,0,0,1,.96,2.84l-.01.02a3.82,3.82,0,0,1-.49.65,1.808,1.808,0,0,0-.42.6c-.11.42.24.94,1.05,1.55a.511.511,0,0,1,.1.72m2.32-26.68a81.574,81.574,0,0,1,4.65,11.38c-.33,1.12-.63,2.25-.87,3.4-.03.11-.05.22-.07.33-.01.06-.03.12-.04.18l-1.15.01v-.19a11.484,11.484,0,0,0-1.08-4.9,11.16,11.16,0,0,0-2.32-3.22,49.834,49.834,0,0,1,.88-6.99m-.65,15.33a1.636,1.636,0,0,1-.02-.22,48.239,48.239,0,0,1-.29-5.88l.01-.01a9.18,9.18,0,0,1,1,1.65,10.014,10.014,0,0,1,.91,4.24v.2Zm14.62,4.09h.52a.512.512,0,0,1,.51.51.521.521,0,0,1-.51.52h-.52a.528.528,0,0,1-.51-.52.512.512,0,0,1,.51-.51m.69,4.61a.511.511,0,0,1,1.02.03v.03a10.489,10.489,0,0,1-10.48,9.87.51.51,0,1,1,0-1.02,9.476,9.476,0,0,0,9.46-8.91m-8.89-8.77v.01h-.51l.04-.16v-.01c.06-.3.14-.6.21-.89.09.3.15.6.22.9.01.05.03.1.04.15m17.73-23.06h-.01c-.96,1.46-1.88,2.84-3.24,3.38a7.458,7.458,0,0,1-3.08.23c-.43-.03-.85-.05-1.27-.06h-.02a4.487,4.487,0,0,0-1.68.43c.34-.43.68-.85,1.04-1.27a.773.773,0,0,0-1.18-1,46.5,46.5,0,0,0-3.79,5.13c-.11-.85-.3-1.73-.48-2.59a14.323,14.323,0,0,1-.5-4.47c.35-2.28,2.57-3.7,4.47-4.05a8.148,8.148,0,0,1,1.56-.13,20.357,20.357,0,0,1,5.25.91l.09.03a30.306,30.306,0,0,0,4.69.98,17.19,17.19,0,0,0-1.85,2.48"/>
        <path id="Path_16573" data-name="Path 16573" d="M136.1,170.591a.772.772,0,0,0,.4-1.432,15.1,15.1,0,0,0-11.239-1.787.772.772,0,0,0,.358,1.5,13.532,13.532,0,0,1,10.081,1.6.771.771,0,0,0,.4.112"/>
        <path id="Path_16574" data-name="Path 16574" d="M138.342,172.112h.126a.772.772,0,0,0,0-1.544h-.126a.772.772,0,0,0,0,1.544"/>
        <path id="Path_16575" data-name="Path 16575" d="M154.42,150.087a5,5,0,0,1,3.775,4.157.773.773,0,0,0,.764.671.674.674,0,0,0,.1-.007.772.772,0,0,0,.665-.866,6.515,6.515,0,0,0-5.012-5.469.772.772,0,0,0-.3,1.515"/>
        <path id="Path_16576" data-name="Path 16576" d="M30.35,208.218a.772.772,0,0,0,1.039-1.143l-.019-.016a59.378,59.378,0,0,1-18.432-30.827.772.772,0,1,0-1.511.318l.008.033a60.927,60.927,0,0,0,18.916,31.634"/>
        <path id="Path_16577" data-name="Path 16577" d="M15.992,205.841a.772.772,0,0,0,1.154-1.024,34.791,34.791,0,0,1-7.882-15.324.772.772,0,0,0-1.506.34,36.339,36.339,0,0,0,8.234,16"/>
      </g>
    </g>
    <g id="Group_17719" data-name="Group 17719">
      <g id="Group_17718" data-name="Group 17718" clip-path="url(#clip-path-4)">
        <path id="Path_16578" data-name="Path 16578" d="M207.218,0a6.72,6.72,0,0,0-.827.034L186.553,2.1s-35.092,3.3-35.147,3.658L138.015,7.15a6.741,6.741,0,0,0-6,6.34c-.234,4.876-.567,23.43-.809,36.978-.125,6.978-.233,13-.3,15.492a.772.772,0,0,0,.748.795h.025A.772.772,0,0,0,132.45,66c.064-2.494.172-8.523.3-15.5.242-13.539.575-32.081.8-36.934a5.187,5.187,0,0,1,4.624-4.873l10.82-1.124c.759-.138,2.286-.3,2.286-.3l35.165-3.6,20.1-2.091A5.166,5.166,0,0,1,212.206,6.2v0a5.249,5.249,0,0,1,.026.627q-.106,5.318-.2,10.605c-.12,6.884-.218,13.579-.291,19.9l-.065,5.6-.025,2.457c-.181,18.42-.209,36.87-.083,54.844a.773.773,0,0,0,.772.767h.006a.772.772,0,0,0,.766-.777c-.125-17.96-.1-36.4.083-54.814l.093-8.068c.073-6.315.171-13.006.291-19.888q.089-5.288.2-10.6A6.705,6.705,0,0,0,207.225,0h-.007"/>
      </g>
    </g>
    <g id="Group_17724" data-name="Group 17724">
      <g id="Group_17723" data-name="Group 17723" clip-path="url(#clip-path)">
        <path id="Path_16579" data-name="Path 16579" d="M118.82,139.621q-6.148,0-12.3-.026c-.012-.019-.016-.036-.027-.055-.4.045-.794.077-1.191.105h-.248c-.233.009-.467.019-.7.019-.148,0-.289-.019-.436-.022h-.723l.041-.032c-.637-.035-1.259-.11-1.876-.2-.235.009-.47.019-.706.019-.061,0-.117-.008-.178-.009-.115.01-.23.024-.345.028-.189.025-.377.053-.565.073a7.687,7.687,0,0,1-1.5.092c-.161,0-.323.013-.484.013a21.032,21.032,0,0,1-2.216-.118,11.715,11.715,0,0,0-4.092.246c-3.66,5.32-6.952,10.9-10.564,16.259-2.234-4.479-7.952-5.692-12.438-4.378a110.09,110.09,0,0,0-10.809,4.2,13.013,13.013,0,0,1-3.415,1.156c-.2.1-.2.549-.4.647a12.105,12.105,0,0,1-1.963.988,14.429,14.429,0,0,1,1.663-.077c.174,0,.515.009.7,0a107.8,107.8,0,0,1,14.644-5.9c3.5-1.513,7.49-.364,10.225,2.1a1.76,1.76,0,0,1,.024,2.8,6.6,6.6,0,0,0-4.51-3.565c1.6,1.176,3.53,2.287,3.935,4.414-1.862-.262-3.506-1.212-5.261-1.814a29.946,29.946,0,0,0,2.967,2.359c-1.551,1.124-3.446.429-5.048-.157a19.567,19.567,0,0,0,1.91,1.349c-2.163,2.552-5.5-.733-7.947,1.009-2.283,1.622-4.553,3.208-6.772,4.923-2.167,1.676-1.142,2.214-6.214,4.917-.677.36-2.194.475-2.9.759.075.39.342,1.039.416,1.43a8.838,8.838,0,0,0,3.554-1.041,21.549,21.549,0,0,0,4-3.074c.726-.621,1.258-1.439,1.936-2.111a27.829,27.829,0,0,1,4.618-3.523A13.182,13.182,0,0,1,66.3,162a4.541,4.541,0,0,1,2.9.023,5.132,5.132,0,0,0,2.653-.163,17.065,17.065,0,0,0,2.99-1.384c.507-.272,1.013-.543,1.536-.784a8.44,8.44,0,0,0,1.491-.558c-.848,2-2.824,4.541-.956,6.567a18.808,18.808,0,0,1,11.73,2.985,19.244,19.244,0,0,1,3.68,1.626c2.875.549,5.8.879,8.612,1.709,4.208.556,7.109-4.718,5.354-8.3,1.219-1.719,2.4-3.472,3.679-5.143a10.7,10.7,0,0,1,1.462-2.048c3.007-4.4,6.1-8.734,9.136-13.108,1.084-1.349.086-3.866-1.734-3.81m-26.8,1.446a87.511,87.511,0,0,1-9.859,15.654c2.424-5.7,6.214-10.7,9.859-15.654m8.578,29.859c-4.513-.924-9.1-1.933-13.168-4.164-1.615-.777-3.7-1.358-4.238-3.309,1.9.679,3.414,2.289,5.486,2.465-1.138-1.6-3.7-1.8-4.224-3.923,2.127-.143,3.548,1.573,5.21,2.558a18.1,18.1,0,0,0,5.679.691c-2.879-1-6.272-1.519-8.161-4.2,3.265-.259,7.28,3.038,9.966.959q-1.247-.173-2.475-.4c-.036-.237-.11-.711-.146-.95,2.821-.673,5.191,1.272,7.473,2.585,1.191.79,3.1.76,3.645,2.309.756,2.787-2.081,6.275-5.048,5.373m1.2-19.146c1.087-.829,3.165-.739,3.311.923.033,2.651-2.827,3.794-4.738,4.974-2.431-1.766-2.9-7.875,1.427-5.9m3.268-1.775c-2.106.447-5.27,1.549-6.649-.762-1.691-2.318-3.72-4.367-5.454-6.652,8.572-.074,17.148-.008,25.719.057-4.577,2.381-9.012,5.037-13.617,7.357m-11.9-8.34c-.775.155-.866-.8-1.176-1.275,9.129.021,18.26-.039,27.393.039.232.434.465.872.693,1.313-8.971.152-17.939-.1-26.91-.077"/>
        <path id="Path_16580" data-name="Path 16580" d="M118.657,16.2,77.788,21.1a2.878,2.878,0,0,0-2.514,3.2l2.666,22.2a2.876,2.876,0,0,0,3.2,2.514h0l40.871-4.9a2.876,2.876,0,0,0,2.514-3.2h0l-2.667-22.2a2.876,2.876,0,0,0-3.2-2.514h0" fill="#fff"/>
        <path id="Path_16581" data-name="Path 16581" d="M79.317,49.834a3.356,3.356,0,0,1-2.293-2.79l-2.673-22.2a3.382,3.382,0,0,1,2.932-3.735l40.884-4.9a3.378,3.378,0,0,1,3.735,2.932l2.65,22.2a3.356,3.356,0,0,1-2.929,3.735h0L80.762,49.976a3.276,3.276,0,0,1-1.441-.142m39.972-32.586a2.229,2.229,0,0,0-1.032-.084l-40.854,4.89A2.422,2.422,0,0,0,75.3,24.721l2.674,22.2a2.42,2.42,0,0,0,2.667,2.1L121.5,44.115a2.423,2.423,0,0,0,2.105-2.668l-2.673-22.2a2.42,2.42,0,0,0-1.643-2" fill="#232423"/>
        <rect id="Rectangle_3033" data-name="Rectangle 3033" width="46.702" height="5.951" transform="translate(75.798 28.116) rotate(-7.146)" fill="#fc6e20"/>
        <path id="Path_16582" data-name="Path 16582" d="M82.7,39.645a.536.536,0,0,1-.215-.158.514.514,0,0,1-.106-.245.5.5,0,0,1,.428-.541L106.8,35.88a.482.482,0,0,1,.362.1.484.484,0,0,1,.18.329.489.489,0,0,1-.106.345.477.477,0,0,1-.315.174l-24,2.844Z" fill="#232423"/>
        <path id="Path_16583" data-name="Path 16583" d="M84.331,46.177a2.254,2.254,0,1,0-1.445-2.842,2.254,2.254,0,0,0,1.445,2.842h0" fill="#232423"/>
        <path id="Path_16584" data-name="Path 16584" d="M167.636,51.83l-.326-5.916a4.076,4.076,0,0,1,3.293.761c1.567,1.293,1.619,3.9-.439,4.668a2.022,2.022,0,0,1-1.6-.022.651.651,0,0,0-.868.308.636.636,0,0,0-.058.2" fill="#fc6e20"/>
        <path id="Path_16585" data-name="Path 16585" d="M178.975,47.481c-.584,1.641-1.391,3.752-1.614,4.359l3.627.117Zm0,0c-.584,1.641-1.391,3.752-1.614,4.359l3.627.117Zm0,0c-.584,1.641-1.391,3.752-1.614,4.359l3.627.117Zm0,0c-.584,1.641-1.391,3.752-1.614,4.359l3.627.117Zm0,0c-.584,1.641-1.391,3.752-1.614,4.359l3.627.117Zm0,0c-.584,1.641-1.391,3.752-1.614,4.359l3.627.117Zm0,0c-.584,1.641-1.391,3.752-1.614,4.359l3.627.117Zm0,0c-.584,1.641-1.391,3.752-1.614,4.359l3.627.117Zm0,0c-.584,1.641-1.391,3.752-1.614,4.359l3.627.117Zm0,0c-.584,1.641-1.391,3.752-1.614,4.359l3.627.117Zm0,0c-.584,1.641-1.391,3.752-1.614,4.359l3.627.117Zm0,0c-.584,1.641-1.391,3.752-1.614,4.359l3.627.117Zm0,0c-.584,1.641-1.391,3.752-1.614,4.359l3.627.117Zm0,0c-.584,1.641-1.391,3.752-1.614,4.359l3.627.117Zm0,0c-.584,1.641-1.391,3.752-1.614,4.359l3.627.117Zm0,0c-.584,1.641-1.391,3.752-1.614,4.359l3.627.117Zm0,0c-.584,1.641-1.391,3.752-1.614,4.359l3.627.117Zm0,0c-.584,1.641-1.391,3.752-1.614,4.359l3.627.117Zm0,0c-.584,1.641-1.391,3.752-1.614,4.359l3.627.117Zm0,0c-.584,1.641-1.391,3.752-1.614,4.359l3.627.117Zm0,0c-.584,1.641-1.391,3.752-1.614,4.359l3.627.117Zm0,0c-.584,1.641-1.391,3.752-1.614,4.359l3.627.117Zm0,0c-.584,1.641-1.391,3.752-1.614,4.359l3.627.117Zm0,0c-.584,1.641-1.391,3.752-1.614,4.359l3.627.117Zm0,0c-.584,1.641-1.391,3.752-1.614,4.359l3.627.117Zm0,0c-.584,1.641-1.391,3.752-1.614,4.359l3.627.117Zm0,0c-.584,1.641-1.391,3.752-1.614,4.359l3.627.117Zm0,0c-.584,1.641-1.391,3.752-1.614,4.359l3.627.117Zm0,0c-.584,1.641-1.391,3.752-1.614,4.359l3.627.117Zm0,0c-.584,1.641-1.391,3.752-1.614,4.359l3.627.117Zm0,0c-.584,1.641-1.391,3.752-1.614,4.359l3.627.117Zm0,0c-.584,1.641-1.391,3.752-1.614,4.359l3.627.117Zm-18.133-4.363V59.2l39.921,3.561v-23.2Zm7.033,13.154a.65.65,0,0,1-.609.687h-.005a.086.086,0,0,1-.039,0,.649.649,0,0,1-.648-.618l-.6-10.9a.648.648,0,0,1,.465-.661,5.437,5.437,0,0,1,4.985.887c2.349,1.926,2.21,5.765-.809,6.9A3.326,3.326,0,0,1,168,52.5a.657.657,0,0,1-.357-.443Zm6.776-.726c1.077-3.3,2.556-6.794,3.619-10.044a.651.651,0,0,1,1.213-.066l4.35,9.665a.653.653,0,0,1-1.191.536l-1.136-2.524a.654.654,0,0,1-.43.148c-4.407-.142-4.124-.123-4.194-.143-.352.966-.691,1.918-.992,2.832a.65.65,0,0,1-1.237-.4v0m18.682-9.065A38.124,38.124,0,0,1,188,56.841a.662.662,0,0,1-.531.27.674.674,0,0,1-.383-.126.659.659,0,0,1-.143-.914,35.574,35.574,0,0,0,2.227-3.454,28.635,28.635,0,0,0-2.566-2.636,27.7,27.7,0,0,1-2.583-2.658.654.654,0,0,1,.1-.917.646.646,0,0,1,.91.091l.008.009a26.873,26.873,0,0,0,2.462,2.532,29.917,29.917,0,0,1,2.34,2.371,37.162,37.162,0,0,0,2.266-5.337.651.651,0,1,1,1.235.413m-14.358,1c-.584,1.641-1.391,3.752-1.614,4.359l3.627.117Zm0,0c-.584,1.641-1.391,3.752-1.614,4.359l3.627.117Zm0,0c-.584,1.641-1.391,3.752-1.614,4.359l3.627.117Zm0,0c-.584,1.641-1.391,3.752-1.614,4.359l3.627.117Zm0,0c-.584,1.641-1.391,3.752-1.614,4.359l3.627.117Zm0,0c-.584,1.641-1.391,3.752-1.614,4.359l3.627.117Zm0,0c-.584,1.641-1.391,3.752-1.614,4.359l3.627.117Zm0,0c-.584,1.641-1.391,3.752-1.614,4.359l3.627.117Zm0,0c-.584,1.641-1.391,3.752-1.614,4.359l3.627.117Zm0,0c-.584,1.641-1.391,3.752-1.614,4.359l3.627.117Zm0,0c-.584,1.641-1.391,3.752-1.614,4.359l3.627.117Zm0,0c-.584,1.641-1.391,3.752-1.614,4.359l3.627.117Zm0,0c-.584,1.641-1.391,3.752-1.614,4.359l3.627.117Zm0,0c-.584,1.641-1.391,3.752-1.614,4.359l3.627.117Zm0,0c-.584,1.641-1.391,3.752-1.614,4.359l3.627.117Zm0,0c-.584,1.641-1.391,3.752-1.614,4.359l3.627.117Zm0,0c-.584,1.641-1.391,3.752-1.614,4.359l3.627.117Zm0,0c-.584,1.641-1.391,3.752-1.614,4.359l3.627.117Zm0,0c-.584,1.641-1.391,3.752-1.614,4.359l3.627.117Zm0,0c-.584,1.641-1.391,3.752-1.614,4.359l3.627.117Zm0,0c-.584,1.641-1.391,3.752-1.614,4.359l3.627.117Zm0,0c-.584,1.641-1.391,3.752-1.614,4.359l3.627.117Zm0,0c-.584,1.641-1.391,3.752-1.614,4.359l3.627.117Zm0,0c-.584,1.641-1.391,3.752-1.614,4.359l3.627.117Zm0,0c-.584,1.641-1.391,3.752-1.614,4.359l3.627.117Zm0,0c-.584,1.641-1.391,3.752-1.614,4.359l3.627.117Zm0,0c-.584,1.641-1.391,3.752-1.614,4.359l3.627.117Zm0,0c-.584,1.641-1.391,3.752-1.614,4.359l3.627.117Zm0,0c-.584,1.641-1.391,3.752-1.614,4.359l3.627.117Zm0,0c-.584,1.641-1.391,3.752-1.614,4.359l3.627.117Zm0,0c-.584,1.641-1.391,3.752-1.614,4.359l3.627.117Zm0,0c-.584,1.641-1.391,3.752-1.614,4.359l3.627.117Zm0,0c-.584,1.641-1.391,3.752-1.614,4.359l3.627.117Z" fill="#fc6e20"/>
        <path id="Path_16586" data-name="Path 16586" d="M201.2,39.082a.633.633,0,0,0-.5-.17L160.78,42.467a.649.649,0,0,0-.591.648V59.2a.645.645,0,0,0,.591.648l39.926,3.558a.182.182,0,0,0,.057,0,.659.659,0,0,0,.652-.653v-23.2a.642.642,0,0,0-.213-.478M200.11,62.044l-38.616-3.437V43.714l38.616-3.441Z"/>
        <path id="Path_16587" data-name="Path 16587" d="M142.745,34.4a.652.652,0,0,1,.59-.709l59.738-5.51a.653.653,0,1,1,.119,1.3l-59.735,5.51a.654.654,0,0,1-.709-.59"/>
        <path id="Path_16588" data-name="Path 16588" d="M142.044,26.871a1.919,1.919,0,1,0-.065-.182,1.868,1.868,0,0,0,.065.182"/>
        <path id="Path_16589" data-name="Path 16589" d="M146.288,25.4a2.468,2.468,0,0,0-1.892-1.805,2.6,2.6,0,1,0,1.892,1.805m-3.64,1.222a1.27,1.27,0,0,1,2.325-1.024,1.227,1.227,0,0,1,.062.176,1.269,1.269,0,0,1-2.387.848"/>
        <path id="Path_16590" data-name="Path 16590" d="M149.873,25.892a1.919,1.919,0,1,0-.065-.182,1.872,1.872,0,0,0,.065.182"/>
        <path id="Path_16591" data-name="Path 16591" d="M154.117,24.42a2.468,2.468,0,0,0-1.892-1.805,2.781,2.781,0,0,0-2.641.931,2.484,2.484,0,0,0-.313,2.6,2.642,2.642,0,0,0,2.423,1.574,2.379,2.379,0,0,0,.818-.146,2.635,2.635,0,0,0,1.6-3.157m-2.418,1.992a1.35,1.35,0,0,1-1.222-.77,1.179,1.179,0,0,1,.117-1.266,1.474,1.474,0,0,1,1.114-.509,1.341,1.341,0,0,1,.26.026,1.173,1.173,0,0,1,.9.9,1.331,1.331,0,0,1-.792,1.558,1.083,1.083,0,0,1-.374.061"/>
        <path id="Path_16592" data-name="Path 16592" d="M157.268,24.914a1.919,1.919,0,1,0-.065-.182,1.868,1.868,0,0,0,.065.182"/>
        <path id="Path_16593" data-name="Path 16593" d="M161.511,23.441a2.468,2.468,0,0,0-1.892-1.805,2.781,2.781,0,0,0-2.641.931,2.484,2.484,0,0,0-.313,2.6,2.642,2.642,0,0,0,2.423,1.574,2.372,2.372,0,0,0,.818-.139,2.635,2.635,0,0,0,1.6-3.157m-2.418,1.992a1.35,1.35,0,0,1-1.222-.77,1.178,1.178,0,0,1,.118-1.27,1.474,1.474,0,0,1,1.114-.509,1.341,1.341,0,0,1,.26.026,1.172,1.172,0,0,1,.9.9,1.333,1.333,0,0,1-.791,1.558,1.088,1.088,0,0,1-.375.061"/>
        <path id="Path_16594" data-name="Path 16594" d="M171.466,22.169a.652.652,0,0,1-.074-1.3l24.656-2.848a.654.654,0,0,1,.15,1.3l-24.657,2.848h-.076"/>
        <path id="Path_16595" data-name="Path 16595" d="M181.565,24.55a.652.652,0,0,1-.04-1.3l5.328-.326a.652.652,0,1,1,.143,1.3c-.021,0-.042,0-.063,0l-5.328.327h-.041"/>
        <path id="Path_16596" data-name="Path 16596" d="M154.762,46.884H143.106a.652.652,0,1,1-.1-1.3.579.579,0,0,1,.1,0h11.656a.652.652,0,1,1,.1,1.3.579.579,0,0,1-.1,0"/>
        <path id="Path_16597" data-name="Path 16597" d="M153,54.424H142.814a.652.652,0,0,1,0-1.3H153a.652.652,0,0,1,.1,1.3.579.579,0,0,1-.1,0"/>
        <path id="Path_16598" data-name="Path 16598" d="M198.054,74.356H198l-20.982-1.571a.653.653,0,0,1,.1-1.3L198.1,73.056a.652.652,0,0,1-.048,1.3"/>
        <path id="Path_16599" data-name="Path 16599" d="M188.384,81.777h-.05L177,80.929a.653.653,0,0,1,.1-1.3l11.336.849a.652.652,0,0,1-.048,1.3"/>
        <path id="Path_16600" data-name="Path 16600" d="M171.879,99.846a13.364,13.364,0,0,0-4.152-1.029c-1.69.06-3.652,1.141-5.47.2a7.449,7.449,0,0,1-2.2-2.285c-.471-.58-1.2-1.137-1.814-.956-.483.14-.874.714-1.313,1.214a7.259,7.259,0,0,1-12.393-2.708.652.652,0,0,1,1.249-.377,5.954,5.954,0,0,0,10.166,2.222,4.294,4.294,0,0,1,1.927-1.6,3.132,3.132,0,0,1,3.192,1.386c.153.189.3.385.446.582,1.186,1.595,1.639,1.9,4.211,1.33,2.088-.459,2.835-.49,5.556.452,1.446.5,3.422,1.143,4.756.179a.652.652,0,1,1,.764,1.057c-1.412,1.02-3.261.853-4.924.339"/>
        <path id="Path_16601" data-name="Path 16601" d="M158.109,72.485c-.472-3.451-3.134-7.33-6.4-7.59-3.315-.264-6.092,3.408-6.428,6.877a1.255,1.255,0,0,0-.292.131c-.483.3-.708.916-.708,1.935a7.689,7.689,0,0,0,3.268,6.134,3.072,3.072,0,0,0,1.576.6l5.185.413a2.529,2.529,0,0,0,1.393-.247,6.368,6.368,0,0,0,3.435-5.711v-.079a2.95,2.95,0,0,0-1.028-2.467m-6.525,5.395a1.345,1.345,0,0,1-1.243-1.287,1.11,1.11,0,0,1,1.124-1.1,1.192,1.192,0,0,1,.119.008,1.344,1.344,0,0,1,1.242,1.287,1.109,1.109,0,0,1-1.122,1.1c-.04,0-.08,0-.12-.008m3.443-5.24c-2.509,1.442-4.986.487-6.961-.284a8.491,8.491,0,0,0-2.148-.64c.38-3.112,2.9-6.454,5.791-6.224,2.752.22,5.161,3.572,5.726,6.672a3.187,3.187,0,0,0-2.408.476"/>
        <path id="Path_16602" data-name="Path 16602" d="M164.412,74.461l-1.035-.083V73.7c-.534-.043-.546-.825,0-.782v-.364a.272.272,0,0,0-.249-.263l-1.3-.1a.226.226,0,0,0-.248.2v1.85l-1.035-.081a.5.5,0,0,0-.562.43.539.539,0,0,0,0,.07V80.82a.611.611,0,0,0,.566.588l3.867.308a.506.506,0,0,0,.563-.443.364.364,0,0,0,0-.057V75.051a.61.61,0,0,0-.567-.587m-.118,6.582-3.632-.295v-4.78c1.248,1.739,1.87-.654,3.63.289Z"/>
        <path id="Path_16603" data-name="Path 16603" d="M221.187,177.428l6.335-9.254c-3.543,1.373-5.282,5.809-8.925,6.886a11.182,11.182,0,0,1-4.868-.036l-17.236-2.685c-1.685-.262-3.688-.9-5.383-.767a206.044,206.044,0,0,0,23.451,4.818,42.4,42.4,0,0,0,6.627,1.037" fill="#ccc"/>
        <path id="Path_16604" data-name="Path 16604" d="M187.808,172.231c-1.236-.107-2.465-.211-3.7-.31a.652.652,0,0,1-.6-.7v-.007c.993-10.353,1.953-21.481,2.258-32.712a.677.677,0,0,1,.65-.663c.574,0,10.374.69,24.2.582,10.318-.061,9.894-.382,10.277,0a.649.649,0,0,1,.188.485c-.18,4.469-.3,9.18-.379,14.829a.657.657,0,0,1-.66.641.65.65,0,0,1-.641-.659h0c.074-5.366.188-9.89.353-14.164-10.659.328-21.75.2-32.709-.381-.318,10.816-1.23,21.514-2.183,31.506q1.522.125,3.047.257a.652.652,0,1,1-.112,1.3"/>
        <path id="Path_16605" data-name="Path 16605" d="M219.832,176.239c-9.267-1.579-19.117-2.834-30.112-3.837a.65.65,0,1,1,.118-1.295c10.73.979,20.376,2.2,29.456,3.722.016-6.079.028-12.089.078-17.516a.65.65,0,0,1,1.3.012c-.181,19.138.115,18.409-.313,18.771a.651.651,0,0,1-.528.143"/>
        <path id="Path_16606" data-name="Path 16606" d="M219.868,176.064a.649.649,0,0,1-.237-.888,20.707,20.707,0,0,1,6.685-6.669c-1.021-10.6-1.787-21.017-2.223-30.209-.877.285-1.969.7-3.165,1.217a.652.652,0,0,1-.512-1.2,34.31,34.31,0,0,1,4.12-1.511.649.649,0,0,1,.818.6c.431,9.481,1.224,20.325,2.293,31.359a.65.65,0,0,1-.285.6c-2.823,1.9-5.026,3.72-6.6,6.456a.649.649,0,0,1-.888.238"/>
        <path id="Path_16607" data-name="Path 16607" d="M226.281,169.23a47.936,47.936,0,0,1-4.233-4.115.65.65,0,1,1,.95-.888,46.405,46.405,0,0,0,4.12,4.009.65.65,0,0,1-.838,1"/>
        <path id="Path_16608" data-name="Path 16608" d="M197.7,140.9a1.156,1.156,0,0,0-1.088,1.021,1.125,1.125,0,0,0,.92,1.163,1.093,1.093,0,0,0,1.193-.867,1.063,1.063,0,0,0-.867-1.181"/>
        <path id="Path_16609" data-name="Path 16609" d="M197.436,143.729a1.779,1.779,0,0,1-1.474-1.86c.106-1.311,1.66-1.951,2.19-1.433a1.72,1.72,0,0,1,1.212,1.888,1.8,1.8,0,0,1-1.927,1.4m.1-2.128a.506.506,0,0,0-.275.374.477.477,0,0,0,.365.468.388.388,0,0,0,.377-.607.371.371,0,0,0-.231-.155.649.649,0,0,1-.234-.079"/>
        <path id="Path_16610" data-name="Path 16610" d="M210.076,141.468a1.158,1.158,0,0,0-1.088,1.022,1.125,1.125,0,0,0,.92,1.163,1.093,1.093,0,0,0,1.193-.868,1.064,1.064,0,0,0-.867-1.181"/>
        <path id="Path_16611" data-name="Path 16611" d="M209.815,144.3a1.779,1.779,0,0,1-1.474-1.86c.106-1.313,1.661-1.948,2.19-1.433a1.72,1.72,0,0,1,1.212,1.888,1.8,1.8,0,0,1-1.927,1.4m.1-2.128a.506.506,0,0,0-.275.374.477.477,0,0,0,.365.468.388.388,0,0,0,.377-.607.371.371,0,0,0-.231-.155.649.649,0,0,1-.234-.079"/>
        <path id="Path_16612" data-name="Path 16612" d="M210.106,142.766a.65.65,0,0,1-.519-.757v0a27.059,27.059,0,0,0-.014-10.16,9.145,9.145,0,0,0-1.41-3.727,4.823,4.823,0,0,0-6.712-1.211,4.707,4.707,0,0,0-.388.3,7.82,7.82,0,0,0-2.177,2.925c-1.649,3.533-1.288,7.462-.731,11.512a.651.651,0,0,1-1.289.177c-.583-4.251-.958-8.386.842-12.239a9.064,9.064,0,0,1,2.55-3.4,6.121,6.121,0,0,1,8.625.733q.177.21.334.434a10.342,10.342,0,0,1,1.636,4.248,28.367,28.367,0,0,1,.013,10.647.65.65,0,0,1-.759.518"/>
        <path id="Path_16613" data-name="Path 16613" d="M214.393,164.655a130.622,130.622,0,0,1-21.134-2.035.65.65,0,1,1,.226-1.281,130.2,130.2,0,0,0,20.916,2.015.65.65,0,0,1-.008,1.3"/>
        <path id="Path_16614" data-name="Path 16614" d="M185.862,138.88a.649.649,0,0,1,.185-.9h0c.965-.635,2.63-1.591,3.673-2.368a.652.652,0,0,1,.363-.128,271.455,271.455,0,0,1,34.629,1.25.65.65,0,0,1-.13,1.293,270.694,270.694,0,0,0-34.251-1.251c-1.1.794-2.688,1.71-3.57,2.29a.86.86,0,0,1-.9-.186"/>
        <path id="Path_16615" data-name="Path 16615" d="M214.283,136.462c-.153-2.36-.05-4.373-1.216-6.338a6.271,6.271,0,0,0-5.928-3.1,6.131,6.131,0,0,0-4.405,3.5c-.845,1.681-.642,3.581-.836,5.576a.651.651,0,1,1-1.295-.126c.193-1.975-.023-4.062.968-6.034a7.427,7.427,0,0,1,5.381-4.2,7.534,7.534,0,0,1,7.234,3.72c1.335,2.251,1.235,4.452,1.395,6.916a.651.651,0,0,1-1.3.084"/>
        <path id="Path_16616" data-name="Path 16616" d="M241.48,169.407H226.507a.65.65,0,1,1,0-1.3H241.48a.65.65,0,1,1,0,1.3"/>
        <path id="Path_16617" data-name="Path 16617" d="M236.649,182.948a.65.65,0,0,1-.021-.919A36.875,36.875,0,0,0,246.6,154.9a.651.651,0,1,1,1.3-.076,38.2,38.2,0,0,1-10.334,28.107.65.65,0,0,1-.919.022"/>
        <path id="Path_16618" data-name="Path 16618" d="M245.889,179.063a.651.651,0,0,1-.168-.9,15.829,15.829,0,0,0,2.739-8.217.651.651,0,1,1,1.3.054,17.142,17.142,0,0,1-2.966,8.9.649.649,0,0,1-.9.168"/>
        <path id="Path_16619" data-name="Path 16619" d="M196.328,153.544a.65.65,0,0,1,.235-1.279,63.11,63.11,0,0,0,15.212.921.651.651,0,1,1,.078,1.3,64.379,64.379,0,0,1-15.526-.94"/>
        <path id="Path_16620" data-name="Path 16620" d="M162.56,212.484a.787.787,0,0,0-.56-.23l-9.76.09-9.56.09-5.26.05a.764.764,0,0,0-.76.78l.14,10.41c0,4.41,3.31,8.18,8.01,9.75h9.68c4.69-1.57,8.01-5.34,8.01-9.73l.28-10.65a.821.821,0,0,0-.22-.56m-19.98,11.27a.511.511,0,0,1-.72.1c-.39-.29-1.48-1.11-1.48-2.2a1.723,1.723,0,0,1,.06-.44,2.6,2.6,0,0,1,.64-1.02,3.326,3.326,0,0,0,.36-.46,1.108,1.108,0,0,0-.48-1.43.513.513,0,0,1-.22-.69.508.508,0,0,1,.65-.24,2.119,2.119,0,0,1,.96,2.84l-.01.02a3.82,3.82,0,0,1-.49.65,1.808,1.808,0,0,0-.42.6c-.11.42.24.94,1.05,1.55a.511.511,0,0,1,.1.72m16.29-7.26h.52a.512.512,0,0,1,.51.51.521.521,0,0,1-.51.52h-.52a.528.528,0,0,1-.51-.52.512.512,0,0,1,.51-.51m1.71,4.67a10.489,10.489,0,0,1-10.48,9.87.51.51,0,1,1,0-1.02,9.476,9.476,0,0,0,9.46-8.91.511.511,0,0,1,1.02.03Z" fill="#fc6e20"/>
        <g id="Group_17722" data-name="Group 17722" opacity="0.2">
          <g id="Group_17721" data-name="Group 17721">
            <g id="Group_17720" data-name="Group 17720" clip-path="url(#clip-path-6)">
              <path id="Path_16621" data-name="Path 16621" d="M259.086,85.386a15.876,15.876,0,1,0-15.876,15.876,15.876,15.876,0,0,0,15.876-15.876" fill="#fc6e20"/>
            </g>
          </g>
        </g>
      </g>
    </g>
  </g>
</svg>
