<svg id="introimage_a" xmlns="http://www.w3.org/2000/svg" xmlns:xlink="http://www.w3.org/1999/xlink" width="265.006" height="235.001" viewBox="0 0 265.006 235.001">
  <defs>
    <clipPath id="clip-path">
      <rect id="Rectangle_3015" data-name="Rectangle 3015" width="265.006" height="235.001" fill="none"/>
    </clipPath>
    <clipPath id="clip-path-3">
      <rect id="Rectangle_3010" data-name="Rectangle 3010" width="76.646" height="64.405" transform="translate(45.253 98.393)" fill="none"/>
    </clipPath>
  </defs>
  <g id="Group_17678" data-name="Group 17678" clip-path="url(#clip-path)">
    <g id="Group_17677" data-name="Group 17677">
      <g id="Group_17676" data-name="Group 17676" clip-path="url(#clip-path)">
        <g id="Group_17675" data-name="Group 17675" opacity="0.2">
          <g id="Group_17674" data-name="Group 17674">
            <g id="Group_17673" data-name="Group 17673" clip-path="url(#clip-path-3)">
              <path id="Path_16263" data-name="Path 16263" d="M45.253,149.552l2.739-20.4,2.348-19.453s-.168-5.87,4.025-7.491,12.127-3.81,12.127-3.81l2.127,3.419,2.628,4.36,4.3,4.137,1.845.056,3.242-3.3,2.683-5.087.9-2.181.838-.111,9.839,2.236,3.8.95s2.236.056,2.4,1.621,1.509,3.578,1.509,4.64.391,6.037.335,6.205.895,4.584.895,5.534a5.817,5.817,0,0,0,.727,2.236l1.621.391,2.8-1.789,5.666-4.559s.922.635.814,1.06,2.408,4.953,2.464,5.177,3.857,3.689,3.857,3.689.224,1.677.056,1.677-11.851,7.938-11.851,7.938l-5.646,3.466L99.532,141l-2.4-.5,1.062,2.236,5.478,4.472s10.565,5.143,10.789,5.59,2.46.392,2.739,2.292,1.789,2.348-2.18,3.187-17.273,2.236-22.137,3.074-8.944,1.118-12.3,1.4-11.292-.615-12.074-.615-6.932-2.684-6.932-2.684-3.13-4.024-3.186-4.248-1.789-4.36-1.789-4.36l-.056-1.9-1.006,1.733Z" fill="#fc6e20"/>
            </g>
          </g>
        </g>
        <path id="Path_16264" data-name="Path 16264" d="M101.814,226.837l.582-7.8c-.232,3.086-7.316-.006-8.19,1.842-.734,1.551,6.334,4.937,7.6,5.959Z" fill="#ccc"/>
        <path id="Path_16265" data-name="Path 16265" d="M115.805,224.215a18.771,18.771,0,0,1-.889-6.478c-.03.766-3.509,1.914-4.15,2.1-1.024.3-3.734.182-4.063,1.083,2.761,1.465,6.141,2.245,9.1,3.3Z" fill="#ccc"/>
        <path id="Path_16266" data-name="Path 16266" d="M62.34,128.167a6.2,6.2,0,0,1,.729-2.784,2.125,2.125,0,0,1,2.485-.969,2.59,2.59,0,0,1,1.26,2.007c.564,3.079-.913,6.159-2.675,8.746s-3.884,5.009-4.89,7.972a95.079,95.079,0,0,1,3.678-16.509Z" fill="#ccc"/>
        <path id="Path_16267" data-name="Path 16267" d="M112.546,26.379q-.513-4.078-1.019-8.153c-.258,1.77.016,3.579-.161,5.361a7.052,7.052,0,0,1-.583,2.2c.559.847-.4,1.892-.818,1.273a3.439,3.439,0,0,1-1.251.893,6.6,6.6,0,0,1-2.647.315q-5.524-.1-11.048-.216c.081.074.16.148.242.222.044.01.09.011.134.023,1.167.346,2.366.6,3.562.854a5.423,5.423,0,0,1,.961-.065,15.728,15.728,0,0,1,1.936.229c1.454.166,2.911.12,4.361.372,2.2.052,4.351.1,5.617.123a.99.99,0,0,0,1.008-.974.881.881,0,0,0-.008-.145l-.288-2.31Z" fill="#ccc"/>
        <path id="Path_16268" data-name="Path 16268" d="M81.423,177.136l-34.51-.413c-3.551-.042-7.224-.111-10.442-1.607s-5.87-4.833-5.4-8.352c-.013,3.285,2.715,6.074,5.8,7.2s6.474.949,9.754.757c12.118-.71,24.841-.459,36.962-1.169Z" fill="#ccc"/>
        <path id="Path_16269" data-name="Path 16269" d="M95.254,134.563c-.307-1.281-.822-2.89-2.134-2.989-2.6-.194-4.288,6.42,2.515,11.376,2.856,2.079,6.19,3.37,9.1,5.365-4.525-3.883-8.035-7.708-9.48-13.752Z" fill="#ccc"/>
        <path id="Path_16270" data-name="Path 16270" d="M130.559,175.043h-.017l-13.605-.027a.753.753,0,0,1,0-1.505l13.605.027h.014a6.3,6.3,0,1,0,.013-12.607l-12.169-.024a.753.753,0,0,1,0-1.506l12.171.024a7.81,7.81,0,1,1-.016,15.62Z"/>
        <path id="Path_16271" data-name="Path 16271" d="M95.385,174.97h0l-46.785-.1a.753.753,0,0,1,0-1.5l46.785.1a.753.753,0,0,1,0,1.506Z"/>
        <path id="Path_16272" data-name="Path 16272" d="M43.525,174.864h0l-5.088-.011a7.811,7.811,0,0,1-3.528-14.77l.049-.023a7.8,7.8,0,0,1,3.509-.827l1.367.007,17.8.066a.753.753,0,0,1,0,1.506c-.625,0-19.114-.073-19.167-.073a6.036,6.036,0,0,0-2.856.679,6.3,6.3,0,0,0,2.833,11.923l5.089.011a.753.753,0,0,1,0,1.506Z"/>
        <path id="Path_16273" data-name="Path 16273" d="M68.064,97.394a40.654,40.654,0,0,1,1.921-15.358,5.506,5.506,0,0,1-2.125-2.5c-.608-1.558-.076-4.3,1.725-4.487a3.964,3.964,0,0,1,2.259.669c6.195,3.218,12.615-2.166,15.089-4.629a.753.753,0,0,1,1.238.273c.719,1.949,2.02,3.6,2.124,5.9.245,5.415-1.881,13.257-6.8,15.423-2.416,1.066-5.963.412-7.187-2.23a.753.753,0,0,1,1.336-.695l.012.024a.247.247,0,0,1,.017.037c.834,1.8,3.44,2.263,5.214,1.482,1.7-.749,3.118-2.4,4.212-4.9a20.46,20.46,0,0,0,1.686-9.08c-.071-1.562-.887-2.866-1.6-4.409-9.386,8.7-16.059,4.065-16.2,4.051a2.53,2.53,0,0,0-1.252-.427c-.127.014-.236.151-.3.264a2.923,2.923,0,0,0-.176,2.178,4.629,4.629,0,0,0,2.013,2.1.754.754,0,0,1,.306.838c-1.648,5.659-2.366,9.4-2.016,15.374a.753.753,0,0,1-1.5.118v-.03Z"/>
        <path id="Path_16274" data-name="Path 16274" d="M83.021,99.316a.753.753,0,1,1,.029-1.506h.037c3.63.156,7.053-2.34,10.088-4.687A64.357,64.357,0,0,0,88.267,84.8.754.754,0,1,1,89.5,83.94a65.967,65.967,0,0,1,5.3,9.076.751.751,0,0,1-.217.921c-3.435,2.665-7.206,5.572-11.561,5.379"/>
        <path id="Path_16275" data-name="Path 16275" d="M71.808,85.205a.775.775,0,0,1,.764-.743.753.753,0,0,1,.742.763,2.9,2.9,0,0,0,.575,1.973.844.844,0,0,0,.649.24.753.753,0,0,1,.076,1.5h-.027c-1.911.066-2.8-1.8-2.776-3.738Z"/>
        <path id="Path_16276" data-name="Path 16276" d="M82.433,88.094a.753.753,0,0,1,.935-1.18l.02.016a.9.9,0,0,0,.776.169.754.754,0,0,1,.454,1.437.456.456,0,0,1-.066.017,2.412,2.412,0,0,1-2.125-.46Z"/>
        <path id="Path_16277" data-name="Path 16277" d="M86.106,98a23.1,23.1,0,0,0,8.57-5.173A24.174,24.174,0,0,1,88.991,83.6c-.872,2.319-1.788,4.71-3.519,6.482a7.1,7.1,0,0,1-3.728,2.039,5.784,5.784,0,0,1-3.953-.889A34.9,34.9,0,0,0,79.674,95.5C83,101.524,84.188,98.639,86.106,98Z"/>
        <path id="Path_16278" data-name="Path 16278" d="M53.389,74.03a.753.753,0,1,1,.135-1.5c4.856.438,5.946-.079,9.112-3.166.427-.416.872-.846,1.325-1.25,1.146-1.015,4.129-3.242,7.076-1.987a.753.753,0,0,1-.59,1.385c-2.21-.94-4.756,1.086-5.482,1.729-.43.381-.86.8-1.275,1.2-3.49,3.4-5,4.066-10.3,3.587Z"/>
        <path id="Path_16279" data-name="Path 16279" d="M103.871,123c-1.88-5.494-1.46-11.419-2.794-16.88a3.871,3.871,0,0,0-2.825-2.811l-13.556-3.2a19.366,19.366,0,0,1-7.613,11.22.755.755,0,0,1-.8.035c-4.572-2.617-8.056-8.415-9.791-12.969a.753.753,0,0,1,1.408-.537c1.518,3.98,4.688,9.411,8.724,11.952a17.84,17.84,0,0,0,6.763-10.751.752.752,0,0,1,.878-.6h0l.032.007,14.317,3.376a5.377,5.377,0,0,1,3.928,3.913c1.357,5.555.96,11.5,2.756,16.75a.611.611,0,0,0,.773.386.644.644,0,0,0,.155-.078c8.1-5.671,4.78-3.878,8.649-6.6a.753.753,0,0,1,.867,1.231,18.03,18.03,0,0,0-2.272,1.783,54.371,54.371,0,0,1-6.379,4.823,2.115,2.115,0,0,1-3.216-1.054Z"/>
        <path id="Path_16280" data-name="Path 16280" d="M32.4,161.765c2.216-3.7,7.593-7.658,11.439-9.2.459-2.145.876-4.362,1.245-6.6a.753.753,0,0,1,1.486.244c-.4,2.4-.848,4.778-1.344,7.071a.753.753,0,0,1-.476.546,27.084,27.084,0,0,0-8.82,5.942,22.661,22.661,0,0,1,6.423-.543.753.753,0,0,1-.049,1.5h-.018a18.64,18.64,0,0,0-6.812.736,5.053,5.053,0,0,0-1.96,1.273.754.754,0,0,1-1.12-.969Z"/>
        <path id="Path_16281" data-name="Path 16281" d="M46.211,143.673a.754.754,0,0,1-.635-.855c1.825-12.38,2.3-23.944,4.727-36.564a.753.753,0,1,1,1.479.285c-2.413,12.533-2.9,24.191-4.716,36.5a.754.754,0,0,1-.855.635Z"/>
        <path id="Path_16282" data-name="Path 16282" d="M52.216,103.707a.753.753,0,0,1,.112-1.058,5.665,5.665,0,0,1,1.7-.945c4.175-1.454,9.659-3.858,13.159-4.071a.753.753,0,1,1,.189,1.494.655.655,0,0,1-.089.006c-3.2.194-8.748,2.594-12.757,3.992a4.156,4.156,0,0,0-1.252.694.753.753,0,0,1-1.059-.113Z"/>
        <path id="Path_16283" data-name="Path 16283" d="M52.714,155.556a.752.752,0,0,1-.224-1.041c3.254-5.025,4.191-6.22,7.7-20.008.593-2.326,1.2-4.725,2.289-8.469a.753.753,0,1,1,1.446.419c-2.107,7.288-2.3,8.948-4.093,15.225-1.818,6.371-2.486,8.1-6.082,13.654a.755.755,0,0,1-1.041.223Z"/>
        <path id="Path_16284" data-name="Path 16284" d="M76.592,163.3c-4.621-1.362-9.582.826-14.577-2.651-4.182-2.887-6.288-6.883-6.088-11.548a.743.743,0,0,1,.764-.721h.019a.754.754,0,0,1,.72.784c-.179,4.183,1.648,7.63,5.441,10.246,4.518,3.15,9.219.993,14.145,2.444a6.7,6.7,0,0,0,3.332.183.753.753,0,0,1,.337,1.468h-.02a8.2,8.2,0,0,1-4.071-.211Z"/>
        <path id="Path_16285" data-name="Path 16285" d="M93.973,138.037a.753.753,0,1,1,1.2-.907.115.115,0,0,1,.019.026l.019.026a7.8,7.8,0,0,0,2.687,2.437c2.6,1.378,4.667.415,7.242-1a129.125,129.125,0,0,0,16.634-11.212.755.755,0,1,1,.917,1.2l-.011.009-.1.075a129.592,129.592,0,0,1-16.717,11.254,11.868,11.868,0,0,1-5.295,1.847,8.114,8.114,0,0,1-6.6-3.754Z"/>
        <path id="Path_16286" data-name="Path 16286" d="M121.68,128.173c-.74-.788-2.617-2.811-3.3-3.42-1.915-1.734-3.282-5.5-3.734-7.6a.753.753,0,1,1,1.466-.348.053.053,0,0,0,.007.032c.5,2.311,1.81,5.48,3.271,6.8.726.654,2.52,2.583,3.384,3.5a.753.753,0,1,1-1.094,1.035Z"/>
        <path id="Path_16287" data-name="Path 16287" d="M51.638,160.316a.754.754,0,0,1-.245-1.036,7.1,7.1,0,0,0,.834-4.225.753.753,0,1,1,1.479-.284v.021a8.592,8.592,0,0,1-1.035,5.279.754.754,0,0,1-1.036.244Z"/>
        <path id="Path_16288" data-name="Path 16288" d="M117.406,157.387a.753.753,0,0,1-.538-.919c.629-2.418-9.43-6.114-13.474-8.754-3.679-2.4-4.537-3.146-7.068-7.076a.754.754,0,0,1,1.26-.827l.006.011c2.4,3.728,3.07,4.307,6.625,6.629,4.873,3.184,15.171,6.31,14.106,10.4a.755.755,0,0,1-.92.539Z"/>
        <path id="Path_16289" data-name="Path 16289" d="M91.329,127l-.885-4.459a.753.753,0,0,1,1.477-.291l.885,4.459a.753.753,0,0,1-1.477.291"/>
        <path id="Path_16290" data-name="Path 16290" d="M71.785,153.447a11.183,11.183,0,0,1-5.832-9.953.761.761,0,0,1,.776-.735.753.753,0,0,1,.735.771,9.644,9.644,0,0,0,5.03,8.584.753.753,0,0,1-.645,1.361c-.019-.009-.037-.019-.055-.029Z"/>
        <path id="Path_16291" data-name="Path 16291" d="M54.146,119.268A11.49,11.49,0,0,1,56.133,107.8a.753.753,0,1,1,1.157.965l-.022.025a9.955,9.955,0,0,0-1.722,9.932.754.754,0,0,1-1.384.6l-.016-.046Z"/>
        <path id="Path_16292" data-name="Path 16292" d="M92.641,139.634a.751.751,0,0,1-.679-.818h0a4.693,4.693,0,0,1,3.241-3.974.753.753,0,0,1,.436,1.441,3.2,3.2,0,0,0-2.177,2.669.754.754,0,0,1-.819.679Z"/>
        <path id="Path_16293" data-name="Path 16293" d="M105.677,168.62h-.033a.754.754,0,0,1-.719-.785,16.938,16.938,0,0,0-.478-3.642,17.859,17.859,0,0,1-.506-4,.743.743,0,0,1,.764-.72h.021a.753.753,0,0,1,.719.785,16.938,16.938,0,0,0,.478,3.641,17.917,17.917,0,0,1,.506,4,.753.753,0,0,1-.752.72Z"/>
        <path id="Path_16294" data-name="Path 16294" d="M95.92,234.688c-.194-.007-.381-.01-.775-.017-1.609-.024-3.126-.065-4.637-.125a.752.752,0,0,1-.713-.64c-.71-4.677-.076-11.314-.052-14.072a.752.752,0,0,1,.752-.746H90.5a.752.752,0,0,1,.746.759c-.021,2.51-.588,8.863-.048,13.218,2.639.1,4.1.1,4.78.118a.753.753,0,1,1,0,1.506H95.92Z"/>
        <path id="Path_16295" data-name="Path 16295" d="M98.821,234.77a.753.753,0,0,1,.053-1.5,128.659,128.659,0,0,0,14.458.048,1.532,1.532,0,0,0,1.08-.485.6.6,0,0,0,.135-.492,3.487,3.487,0,0,0-.485-1.292,7.074,7.074,0,0,0-2.424-1.939,14.575,14.575,0,0,0-4.131-1.61,14.193,14.193,0,0,0-5.06-.569.754.754,0,0,1-.848-.645.631.631,0,0,1-.008-.106c0-.775-.064-1.828-.114-2.714-.08-1.38-.172-2.946-.16-3.519a.754.754,0,0,1,1.507.03c-.016.843.238,4.518.261,5.389a18.03,18.03,0,0,1,4.772.668,15.989,15.989,0,0,1,4.529,1.767c1.909,1.092,3.3,2.169,3.646,4.291a2.519,2.519,0,0,1-2.3,2.719,2.481,2.481,0,0,1-.3.007,129.826,129.826,0,0,1-14.617-.047Z"/>
        <path id="Path_16296" data-name="Path 16296" d="M114.784,234.3a.753.753,0,0,1,.131-1.5c3.676.324,7.881.036,11.657.129a1.173,1.173,0,0,0,.214-.014.9.9,0,0,0,.84-.769l.009-.139a2.264,2.264,0,0,0-1.441-2.094,39.966,39.966,0,0,0-10.165-3.024.756.756,0,0,1-.633-.641,18.58,18.58,0,0,1-.184-2.133,6.835,6.835,0,0,0-.1-1.088.753.753,0,0,1,1.492-.206,8.16,8.16,0,0,1,.111,1.287,8.3,8.3,0,0,0,.058.958c.013.14.027.279.043.419a40.894,40.894,0,0,1,10.372,3.248c2.8,1.58,2.586,5.7-.649,5.7-3.794-.091-7.99.194-11.763-.135Z"/>
        <path id="Path_16297" data-name="Path 16297" d="M104.52,226.113c-.055-.573-.078-1.891-.1-3.288-.022-1.306-.046-2.656-.1-3.17a.753.753,0,0,1,1.5-.143c.055.573.077,1.891.1,3.287.022,1.306.046,2.656.1,3.17a.753.753,0,1,1-1.5.143Z"/>
        <path id="Path_16298" data-name="Path 16298" d="M123.54,231.708a10.376,10.376,0,0,0-3.4-1.444.753.753,0,0,1,.334-1.469,11.948,11.948,0,0,1,3.9,1.658.755.755,0,0,1-.831,1.26Z"/>
        <path id="Path_16299" data-name="Path 16299" d="M118.993,160.246a21.258,21.258,0,0,0-.329-2.144c-.253-.847-.195-2.263-1.158-2.453-.827-.163-2.342.656-3.133.923a10.416,10.416,0,0,1-3.731.229c-7.786-.308-13.64,2.763-28.46,4.453-5.049.576-10.925-.218-15.2.458,2.113,2.44,7.368,2.992,9.765,3.555l.143.037a3.826,3.826,0,0,1,2.918,2.924c2,12.273,4.131,28.768,6.868,42.512l2.268-.648a.5.5,0,0,1,.276.969l-2.344.67c.564,2.772,1.152,5.429,1.771,7.9a2.132,2.132,0,0,0,1.906,1.51,88.66,88.66,0,0,0,25.25-1.568,19.064,19.064,0,0,0,.44-3.226c.887-6.689,1.551-12.931,2.058-19.74.517-6.993.821-20.2,1.184-27.206a37.037,37.037,0,0,0-.493-9.153Zm-15.557,57.678a.5.5,0,0,1-.5-.471c-.894-14.613-2.3-35.738-4.169-50.408a.5.5,0,0,1,1-.128c1.88,14.7,3.284,35.845,4.177,50.473a.5.5,0,0,1-.466.532h-.035Zm11.307-3.033a2.552,2.552,0,0,1-1.869,1.272.5.5,0,1,1-.147-.994,1.55,1.55,0,0,0,1.129-.747.5.5,0,0,1,.9.432C114.761,214.867,114.748,214.879,114.743,214.891Z"/>
        <path id="Path_16300" data-name="Path 16300" d="M87.606,65.218a10.789,10.789,0,0,0-10.274-2.354,5.545,5.545,0,0,0-10.709-2.839c-.042.112-.078.226-.112.34a5.824,5.824,0,0,0,2.92,6.3c-4.4,2.928-4.92,8.658-8.709,11.478-1.88,1.4-4.389,1.9-6.386,3.507a10.7,10.7,0,0,0-3.5,6.267,22.344,22.344,0,0,0-.371,4.668,4.11,4.11,0,0,0,2.677,3.846,30.08,30.08,0,0,0,15.748,1.9.751.751,0,1,0-.237-1.484,43.689,43.689,0,0,1,2.281-15.27c-1.2-.934-1.875-1.273-2.326-2.722s-.146-3.148,1.368-3.222a4.7,4.7,0,0,1,2.6,1.045c2.389,1.38,6.132.99,8.622-.2a25.651,25.651,0,0,0,6.494-5.059c-.3.291.93,3.257,1.357,3.349a.632.632,0,0,0,.389-.027A7.6,7.6,0,0,1,88.9,76.59a.754.754,0,0,0,1.381.6,11.128,11.128,0,0,0-2.68-11.972M64.076,79.8a7.068,7.068,0,0,0-3.819,3.887A14.312,14.312,0,0,0,59.639,86c-.361,1.716-.785,3.536-2.193,4.712a.5.5,0,1,1-.659-.758l.015-.013a5.389,5.389,0,0,0,1.587-2.956,29.434,29.434,0,0,1,.931-3.664,8.1,8.1,0,0,1,4.372-4.446.5.5,0,1,1,.426.91.244.244,0,0,1-.045.017Z"/>
        <path id="Path_16301" data-name="Path 16301" d="M131.309,212.78h0a.753.753,0,0,1-.75-.755l.109-34.244a.752.752,0,1,1,1.5-.11.672.672,0,0,1,0,.11l-.109,34.244a.754.754,0,0,1-.754.75Z"/>
        <path id="Path_16302" data-name="Path 16302" d="M38.118,227.644h0a.753.753,0,0,1-.751-.755l.108-48.478a.752.752,0,0,1,1.5-.11.673.673,0,0,1,0,.11l-.108,48.478a.754.754,0,0,1-.753.751Z"/>
        <path id="Path_16303" data-name="Path 16303" d="M84.619,229.051H54.038a.753.753,0,0,1,0-1.506H84.615a.753.753,0,0,1,0,1.506Z"/>
        <path id="Path_16304" data-name="Path 16304" d="M62.016,167.045h0L41,167a.753.753,0,0,1-.751-.754.743.743,0,0,1,.735-.751H41l21.011.042a.753.753,0,0,1,0,1.506Z"/>
        <path id="Path_16305" data-name="Path 16305" d="M49.445,199.476a.752.752,0,0,0-.76.723c-.047,1.257-.144,3.956-.22,6.6a.753.753,0,0,0,.727.776l.006.006a.753.753,0,0,0,.776-.727l.221-6.6a.755.755,0,0,0-.73-.78h-.019Z"/>
        <path id="Path_16306" data-name="Path 16306" d="M55.889,200.247a.753.753,0,0,1-.71-.794l.159-2.865a.753.753,0,0,1,1.506-.021.924.924,0,0,1-.006.1l-.159,2.865a.752.752,0,0,1-.792.71h0Z"/>
        <path id="Path_16307" data-name="Path 16307" d="M121.737,87.042a16.653,16.653,0,1,0,25.337-7.658c1.877,4.733,4.071,12.4,3.436,17.449a10.932,10.932,0,0,1-3.2,6.727c-3.054,2.811-7.743,3.019-11.763,2a18.215,18.215,0,0,1-10.777-7.13c-2.453-3.661-3.064-8.666-.962-12.539a7.656,7.656,0,0,0-2.558,3.236Z" fill="#ccc"/>
        <path id="Path_16308" data-name="Path 16308" d="M124.329,112.684a.752.752,0,0,1-.342-1.008h0c2.971-6.021,2.282-4.71,2.723-5.553a.754.754,0,1,1,1.335.7c-.415.791-1.26,2.649-1.648,3.4-.371.733-.721,1.434-1.06,2.119a.753.753,0,0,1-1.007.343Z"/>
        <path id="Path_16309" data-name="Path 16309" d="M127.332,116.238a.753.753,0,0,1-.382-.994l0-.006,1.611-3.587,1.791-3.834a.753.753,0,1,1,1.365.638l-1.788,3.824-1.606,3.579a.751.751,0,0,1-.993.38Z"/>
        <path id="Path_16310" data-name="Path 16310" d="M120.979,124.243a2.641,2.641,0,0,1-1.227-3.092c.878-2.084,1.656-3.921,2.494-5.767a.753.753,0,1,1,1.39.581c-.006.015-.013.029-.018.043-.835,1.835-1.591,3.623-2.477,5.725-.168.4.2.953.661,1.25a1.839,1.839,0,0,0,1.261.171.745.745,0,0,0,.539-.432l1.754-3.909a.753.753,0,1,1,1.394.572l-.02.045-1.753,3.907a2.235,2.235,0,0,1-1.674,1.3,3.317,3.317,0,0,1-2.321-.4Z"/>
        <path id="Path_16311" data-name="Path 16311" d="M131.352,108.883c-3.325,0-6.316-3.338-5.84-6.324A.753.753,0,0,1,127,102.8c-.253,1.588,1.016,3.3,2.39,4.044a3.411,3.411,0,0,0,4.111-.311.753.753,0,0,1,1.055,1.076l-.041.037a4.642,4.642,0,0,1-3.164,1.242Z"/>
        <path id="Path_16312" data-name="Path 16312" d="M121.305,117.781c-.164-1.132.194-2.714,1.34-2.827a9.555,9.555,0,0,1,2.617.522c.547.063,1.471-.025,1.648-.522a1.108,1.108,0,0,0-.364-1,5.248,5.248,0,0,0-1.494-.93c-1.415-.684-2.568-1.2-3.854-.416a10.478,10.478,0,0,0-1.385,1.031,12.293,12.293,0,0,0-1.854,2.393l-1.444,2.036a.753.753,0,0,1-1.227-.872l1.428-2.009a13.1,13.1,0,0,1,2.133-2.7,6.916,6.916,0,0,1,2.966-1.724,6.3,6.3,0,0,1,3.878.894,6.555,6.555,0,0,1,1.939,1.245,2.547,2.547,0,0,1,.7,2.557c-.453,1.255-1.925,1.675-3.247,1.514-.661-.077-1.621-.514-2.16-.526a2.252,2.252,0,0,0-.128,1.12.753.753,0,1,1-1.482.27.521.521,0,0,0-.008-.055Z"/>
        <path id="Path_16313" data-name="Path 16313" d="M122.511,128.47a.754.754,0,0,1-.485-1.328c2.841-2.4,9.336-7.23,9.772-8.614a.776.776,0,0,0-.269-.89.98.98,0,0,0-.839.133,9.368,9.368,0,0,0-2.414,1.716c-.219.206-.33.457-.272.6a.257.257,0,0,0,.1.054.753.753,0,0,1,1.13.987,1.575,1.575,0,0,1-2.624-.475,2.061,2.061,0,0,1,.623-2.249,10.569,10.569,0,0,1,2.707-1.939,2.428,2.428,0,0,1,2.23-.188,2.257,2.257,0,0,1,1.061,2.7,4.763,4.763,0,0,1-1.413,1.939c-2.036,1.939-3.946,3.455-5.8,4.923-.99.785-2.013,1.6-3.027,2.453a.756.756,0,0,1-.485.177Z"/>
        <path id="Path_16314" data-name="Path 16314" d="M126.52,120a1.868,1.868,0,0,1-1.843-2.2,3.752,3.752,0,0,1,1.424-2.177.753.753,0,1,1,.844,1.248,1.967,1.967,0,0,0-.791,1.385.551.551,0,0,0,.453.238,1.212,1.212,0,0,0,.872-.336.753.753,0,0,1,1.121,1.006,2.723,2.723,0,0,1-2.086.834Z"/>
        <path id="Path_16315" data-name="Path 16315" d="M131.191,117.433a.753.753,0,0,1-.1-1.02,1.547,1.547,0,0,0-.109-.749,2.824,2.824,0,0,0-.838-.872.754.754,0,0,1-.633-.856.791.791,0,0,1,.039-.152c.107-.291-.113-1.006-.466-1.086a.753.753,0,0,1,.3-1.476h.021a2.394,2.394,0,0,1,1.677,2.379,4.19,4.19,0,0,1,1.273,1.442,2.381,2.381,0,0,1-.109,2.326.753.753,0,0,1-1.063.06Z"/>
        <path id="Path_16316" data-name="Path 16316" d="M125.851,116.694a.752.752,0,0,1,.224-1.041c.441-.286,3.236-2.046,3.661-2.322a.753.753,0,0,1,.909,1.2.568.568,0,0,1-.091.059c-.442.286-3.237,2.046-3.663,2.322a.752.752,0,0,1-1.04-.224Z"/>
        <path id="Path_16317" data-name="Path 16317" d="M123.411,112.229a.754.754,0,0,1-.219-1.042,5.638,5.638,0,0,1,2.216-1.99.754.754,0,1,1,.643,1.363h-.012a4.161,4.161,0,0,0-1.587,1.447.753.753,0,0,1-1.042.218Z"/>
        <path id="Path_16318" data-name="Path 16318" d="M140.771,98.481a.753.753,0,0,1-.376-1.406,7.579,7.579,0,0,0,3.652-7.289.753.753,0,0,1,1.489-.229.394.394,0,0,1,.006.048,9.122,9.122,0,0,1-4.4,8.774.747.747,0,0,1-.375.1Z"/>
        <path id="Path_16319" data-name="Path 16319" d="M144.115,88.22a.754.754,0,0,1-.754-.753v-.079a.753.753,0,0,1,1.506,0v.079A.753.753,0,0,1,144.115,88.22Z"/>
        <path id="Path_16320" data-name="Path 16320" d="M25.829,78.662a3.412,3.412,0,0,0,2.952-2.773,2.91,2.91,0,0,0-2.27-3.206,3.216,3.216,0,0,1-.375,4.448,3.375,3.375,0,0,1-3.357.341,3.253,3.253,0,0,0,3.05,1.19" fill="#ccc"/>
        <path id="Path_16321" data-name="Path 16321" d="M40.375,76.885a3.525,3.525,0,0,0-1.654-4.194c.957.485-.169,2.794-.634,3.22-1.039.955-3.2-.111-3.642,1.051-.976,2.554,4.962,2.6,5.929-.078Z" fill="#ccc"/>
        <path id="Path_16322" data-name="Path 16322" d="M41.271,67.561a.753.753,0,0,1-.526-.926c4.828-17.546,4.8-17.344,4.841-17.679a2.386,2.386,0,0,0-1.9-2.6l-.071-.014c-.388-.058.428-.021-14.422-.031a.753.753,0,1,1,0-1.506h14.03a4.208,4.208,0,0,1,.561.038c.057.009.1.016.134.024l.058.011a3.9,3.9,0,0,1,3.059,4.58c-.018.09-.039.178-.063.267l-.121.445L42.2,67.038a.753.753,0,0,1-.926.526Z"/>
        <path id="Path_16323" data-name="Path 16323" d="M27.007,46.314H10.271a.753.753,0,1,1,0-1.506H27.007a.753.753,0,0,1,0,1.506"/>
        <path id="Path_16324" data-name="Path 16324" d="M10.245,48.891,8.4,42.826a3.012,3.012,0,0,0-2.895-2.143H.756a.753.753,0,0,1-.007-1.506H5.506a4.512,4.512,0,0,1,4.335,3.21l1.842,6.066a.753.753,0,0,1-1.44.438Z"/>
        <path id="Path_16325" data-name="Path 16325" d="M20.278,71.887a.753.753,0,1,1,0-1.506c1.769,0,11.479.188,13.923.1,2.469-.091,3.9.173,5.7-.262.2-.049.82-.194,1.065-1.292a1.184,1.184,0,0,0-.067-.917c-.217-.267-.823-.4-1.8-.381l-22.49.306a.751.751,0,0,1-.73-.534l-5.042-16.56a.753.753,0,0,1,1.44-.439l4.88,16.016,21.919-.3a3.7,3.7,0,0,1,2.987.935,2.479,2.479,0,0,1,.369,2.194,2.958,2.958,0,0,1-2.186,2.434,13.876,13.876,0,0,1-3.764.291c-.647-.011-1.378-.021-2.23.011-2.307.088-14.777-.108-13.978-.1Z"/>
        <circle id="Ellipse_496" data-name="Ellipse 496" cx="2.828" cy="2.828" r="2.828" transform="translate(21.315 71.513)"/>
        <path id="Path_16326" data-name="Path 16326" d="M24.142,77.922a3.581,3.581,0,1,1,3.581-3.581,3.581,3.581,0,0,1-3.581,3.581m0-5.656a2.075,2.075,0,1,0,2.075,2.075,2.075,2.075,0,0,0-2.075-2.075"/>
        <path id="Path_16327" data-name="Path 16327" d="M39.224,74.436A2.828,2.828,0,1,1,36.4,71.608a2.828,2.828,0,0,1,2.828,2.828"/>
        <path id="Path_16328" data-name="Path 16328" d="M36.4,78.019a3.581,3.581,0,1,1,3.581-3.582A3.581,3.581,0,0,1,36.4,78.019Zm0-5.656a2.075,2.075,0,1,0,2.075,2.075A2.075,2.075,0,0,0,36.4,72.363"/>
        <path id="Path_16329" data-name="Path 16329" d="M43.993,52.972H13.647a.753.753,0,1,1,0-1.506H43.993a.753.753,0,0,1,0,1.506"/>
        <path id="Path_16330" data-name="Path 16330" d="M42.064,60.01H16.537a.753.753,0,1,1,0-1.506H42.064a.753.753,0,1,1,0,1.506"/>
        <path id="Path_16331" data-name="Path 16331" d="M23.824,65.924a.753.753,0,0,1-.753-.753V47.317a.753.753,0,0,1,1.506-.007V65.171a.753.753,0,0,1-.753.753"/>
        <path id="Path_16332" data-name="Path 16332" d="M34.261,62.938a.754.754,0,0,1-.754-.753V47.82a.754.754,0,0,1,1.507,0V62.184a.753.753,0,0,1-.753.753Z"/>
        <path id="Path_16333" data-name="Path 16333" d="M44.022,47.263c.939,3.888,7.58,5.112,11.633,2.961a7.464,7.464,0,0,0,3.952-5.415,5.9,5.9,0,0,0-2.842-5.9,5.217,5.217,0,0,1,.715,5c-1.218,3.448-6.01,6.582-9.932,5.6-2.278-.568-4.2-2.792-3.9-5.12a10.1,10.1,0,0,0,2.161,5.435Z" fill="#ccc"/>
        <path id="Path_16334" data-name="Path 16334" d="M50.535,33.241a8.937,8.937,0,1,0,8.937,8.937,8.937,8.937,0,0,0-8.937-8.937m2.9,9.4H51V45.4a.753.753,0,1,1-1.506,0V42.644H47.054a.753.753,0,1,1,0-1.506h2.432V38.121a.754.754,0,0,1,1.507,0v3.017h2.444a.753.753,0,0,1,0,1.506Z" fill="#fc6e20"/>
        <path id="Path_16335" data-name="Path 16335" d="M146.023,55.491a8.7,8.7,0,0,0,3.452.992l13.358,1.891,18.39,2.6a13.461,13.461,0,0,0,5.507.016,4.591,4.591,0,0,0,3.528-3.814,5.9,5.9,0,0,1-4.188,2.315,17.451,17.451,0,0,1-4.907-.3l-32.785-5.112a8.56,8.56,0,0,1-2.819-.775,2.979,2.979,0,0,1-1.623-2.273c.71,1.6.362,3.379,2.084,4.459Z" fill="#ccc"/>
        <path id="Path_16336" data-name="Path 16336" d="M187.276,60.381a4.2,4.2,0,0,1-.538-.035L146.96,55.125a4.15,4.15,0,0,1-3.6-4.1v-31.3a4.15,4.15,0,0,1,3.6-4.1L186.733,10.4a4.136,4.136,0,0,1,4.64,3.562,4.2,4.2,0,0,1,.035.538V56.244a4.136,4.136,0,0,1-4.136,4.136Zm-.342-1.528a2.628,2.628,0,0,0,2.972-2.608V14.5a2.63,2.63,0,0,0-2.631-2.631,2.6,2.6,0,0,0-.341.022l-39.778,5.221a2.638,2.638,0,0,0-2.289,2.609v31.3a2.638,2.638,0,0,0,2.289,2.609Z"/>
        <path id="Path_16337" data-name="Path 16337" d="M176.863,48.7a1.339,1.339,0,0,1-.155-.006c-5.253-.407-11.781-.786-19.955-1.163a1.954,1.954,0,0,1-1.806-1.5c-.969-4.116-1.745-7.7-2.433-11.285a.753.753,0,1,1,1.468-.338.449.449,0,0,1,.011.053c.685,3.562,1.454,7.129,2.423,11.223a.441.441,0,0,0,.409.337c8.19.373,14.735.753,20,1.163a.425.425,0,0,0,.452-.306c.541-1.768,1.119-3.788,1.677-5.742.7-2.445,1.422-4.974,2.089-7.064a.753.753,0,1,1,1.447.418.118.118,0,0,1-.013.04c-.66,2.069-1.379,4.586-2.076,7.021-.56,1.96-1.14,3.987-1.685,5.768a1.93,1.93,0,0,1-1.853,1.374Z"/>
        <path id="Path_16338" data-name="Path 16338" d="M150.874,35.1a.751.751,0,0,1-.226-.53l-.035-3.807a.753.753,0,0,1,.746-.76l32.756-.305h.007a.753.753,0,0,1,.753.746l.035,3.807a.753.753,0,0,1-.746.76l-32.76.306a.766.766,0,0,1-.534-.216Zm1.248-3.6.02,2.3,31.25-.291-.021-2.3Z"/>
        <path id="Path_16339" data-name="Path 16339" d="M154.488,30.8a.753.753,0,0,1,0-1.063l9.819-9.819a.754.754,0,0,1,1.066,1.066L155.554,30.8a.753.753,0,0,1-1.065,0Z"/>
        <path id="Path_16340" data-name="Path 16340" d="M180.5,30.828a.748.748,0,0,1-.532-.221L169.913,20.549a.754.754,0,0,1,1.066-1.066L181.036,29.54a.753.753,0,0,1-.532,1.285Z"/>
        <path id="Path_16341" data-name="Path 16341" d="M156.126,29.692a.91.91,0,1,1-.91-.91.909.909,0,0,1,.91.91"/>
        <path id="Path_16342" data-name="Path 16342" d="M155.216,31.355a1.662,1.662,0,1,1,1.663-1.662,1.662,1.662,0,0,1-1.663,1.662m-.157-1.662a.157.157,0,0,0,.314,0c0-.086-.314-.207-.314,0"/>
        <rect id="Rectangle_3011" data-name="Rectangle 3011" width="1.581" height="8.666" transform="matrix(1, -0.026, 0.026, 1, 159.837, 38.075)"/>
        <path id="Path_16343" data-name="Path 16343" d="M160.06,47.49a.752.752,0,0,1-.752-.733l-.229-8.66a.753.753,0,0,1,.729-.776h0l1.58-.042h.02a.752.752,0,0,1,.752.733l.229,8.66a.753.753,0,0,1-.728.776l-1.579.042h-.023Zm.547-8.681.194,7.155h.074l-.189-7.155Z"/>
        <rect id="Rectangle_3012" data-name="Rectangle 3012" width="1.581" height="9.386" transform="matrix(1, -0.026, 0.026, 1, 166.514, 37.899)"/>
        <path id="Path_16344" data-name="Path 16344" d="M166.759,48.032a.752.752,0,0,1-.752-.733l-.247-9.379a.754.754,0,0,1,.73-.776l1.58-.042a.756.756,0,0,1,.775.733l.248,9.379a.753.753,0,0,1-.729.776h0l-1.58.042h-.024Zm.529-9.4.208,7.873h.075l-.208-7.873Z"/>
        <rect id="Rectangle_3013" data-name="Rectangle 3013" width="1.581" height="9.695" transform="matrix(1, -0.026, 0.026, 1, 172.907, 37.731)"/>
        <path id="Path_16345" data-name="Path 16345" d="M173.158,48.172a.752.752,0,0,1-.752-.733l-.256-9.688a.752.752,0,0,1,.727-.776h0l1.58-.042a.753.753,0,0,1,.775.728l.255,9.689a.752.752,0,0,1-.729.776l-1.58.042h-.02Zm.518-9.712.216,8.183h.074l-.215-8.183Z"/>
        <path id="Path_16346" data-name="Path 16346" d="M166.885,109.793a24.284,24.284,0,0,0,8.327,2.036l32.048,3.9,29.372,3.575c3.483.425,7.076.84,10.451-.112s6.519-3.635,6.892-7.123a4.9,4.9,0,0,1-3.564,3.253,14.446,14.446,0,0,1-5.027.194l-21.256-1.67c-16.382-1.287-31.947-3.561-48.333-4.847-2.7-.212-6.307.543-8.753-.629s-4.527-3.51-4.581-6.222c.032,1.637-.31,2.584.653,4.2a9.445,9.445,0,0,0,3.776,3.444Z" fill="#ccc"/>
        <path id="Path_16347" data-name="Path 16347" d="M193.281,40.49a.753.753,0,0,1-.037-1.505l57.589-2.749a.753.753,0,0,1,.073,1.5L193.314,40.48h-.033Z"/>
        <path id="Path_16348" data-name="Path 16348" d="M226.318,31.742a1.9,1.9,0,1,0,.234-.056Z"/>
        <path id="Path_16349" data-name="Path 16349" d="M234.148,30.865a1.906,1.906,0,1,0,.235-.056Z"/>
        <path id="Path_16350" data-name="Path 16350" d="M241.807,30.369a1.907,1.907,0,1,0,.235-.056Z"/>
        <path id="Path_16351" data-name="Path 16351" d="M249.464,116.881c-.147,0-.3-.007-.444-.02l-6.587-.65a.753.753,0,0,1,.038-1.506c.025,0,.049,0,.074.006h.036l6.58.649a3.188,3.188,0,0,0,1.057-.078l.045-.014a2.711,2.711,0,0,0,2.036-2.314v-.024c0-.082.009-.143.009-.207V28.942a2.547,2.547,0,0,0-.848-1.887,2.98,2.98,0,0,0-2.23-.754l-.065.01c-15.919,1.622-10.431,1.066-11.619,1.184l-46.811,4.77a.754.754,0,0,1-.154-1.5l58.357-5.947a.825.825,0,0,1,.141-.019h.06a4.5,4.5,0,0,1,3.332,1.146,4.031,4.031,0,0,1,1.34,2.959v83.823a2.408,2.408,0,0,1-.01.269v.058a4.225,4.225,0,0,1-3.1,3.658l-.059.018a4.67,4.67,0,0,1-1.183.152Z"/>
        <path id="Path_16352" data-name="Path 16352" d="M238.885,115.86h-.076l-69.041-6.82c-1.939.05-4.75-.546-6.361-2.383a7.921,7.921,0,0,1-1.845-6.28V77.625a.753.753,0,0,1,1.506,0v22.811a.711.711,0,0,1-.011.122,6.38,6.38,0,0,0,1.481,5.108,7.035,7.035,0,0,0,5.235,1.868.818.818,0,0,1,.1,0l69.088,6.823a.753.753,0,0,1-.073,1.5Z"/>
        <path id="Path_16353" data-name="Path 16353" d="M162.309,73.347h0a.753.753,0,0,1-.753-.753V56.383a.753.753,0,0,1,1.506,0V72.594A.753.753,0,0,1,162.309,73.347Z"/>
        <path id="Path_16354" data-name="Path 16354" d="M196.421,30.762l-.1-3.714c5.2-1.077,8.338-1.824,13.1-2.678.042,1.915.146,3.657.075,5.025Z"/>
        <path id="Path_16355" data-name="Path 16355" d="M196.419,31.515a.752.752,0,0,1-.752-.733l-.1-3.714a.753.753,0,0,1,.6-.757c5.249-1.087,8.351-1.827,13.122-2.683a.753.753,0,0,1,.874.609.774.774,0,0,1,.012.117c.012.574.03,1.132.047,1.67.041,1.246.079,2.423.026,3.41a.753.753,0,1,1-1.506.029.781.781,0,0,1,.006-.108c.048-.924.012-2.07-.027-3.282-.008-.267-.016-.535-.025-.806-4.092.753-7.151,1.462-11.6,2.39l.081,3.085a.752.752,0,0,1-.727.776h-.025Z"/>
        <path id="Path_16356" data-name="Path 16356" d="M255.143,27.574a14.045,14.045,0,0,1,1.162,6.575q-.311,34.856.7,69.706c.09,3.116.153,6.4-1.306,9.149s-5,4.673-7.775,3.255c1.991.61,4.131-.908,4.96-2.819s.692-4.082.55-6.16c-1.573-23.2.284-46.336-.222-69.579-.079-3.66,1.215-9.807-2.674-11.684a9.051,9.051,0,0,0-5.059-.519,15.561,15.561,0,0,1,5.435-.7,5.155,5.155,0,0,1,4.233,2.77Z"/>
        <path id="Path_16357" data-name="Path 16357" d="M209.906,23.966l3.054,2.18c.039.872-.2,1.952-.162,2.826-.825.047-2.114.217-2.939.264,0-1.454.047-3.814.047-5.27"/>
        <path id="Path_16358" data-name="Path 16358" d="M237.033,104.147,214,102.693a2.786,2.786,0,0,1,.351-5.56l23.034,1.454a2.786,2.786,0,0,1-.35,5.56"/>
        <path id="Path_16359" data-name="Path 16359" d="M237.214,104.907c-.076,0-.152,0-.229-.007l-23.034-1.454a3.539,3.539,0,1,1,.446-7.063l23.034,1.454a3.538,3.538,0,0,1-.217,7.071Zm-23.041-7.025a2.036,2.036,0,0,0-.127,4.062L237.08,103.4a2.036,2.036,0,0,0,.579-4.031l-.1-.011a1.745,1.745,0,0,0-.228-.015L214.3,97.887h-.129Z"/>
        <path id="Path_16360" data-name="Path 16360" d="M200.423,102.237l-23.035-1.454a2.786,2.786,0,0,1,.351-5.56l23.034,1.449a2.786,2.786,0,0,1-.194,5.569l-.075,0Z"/>
        <path id="Path_16361" data-name="Path 16361" d="M200.6,103c-.075,0-.149,0-.226-.007l-23.034-1.454a3.539,3.539,0,0,1,.446-7.063l23.036,1.454A3.538,3.538,0,0,1,200.6,103Zm-23.034-7.025a2.036,2.036,0,0,0-.125,4.061l23.024,1.454a2.036,2.036,0,0,0,.258-4.057l-23.035-1.454h-.122Z"/>
        <path id="Path_16362" data-name="Path 16362" d="M233.217,175.275c.388,1.6,2.065,2.54,3.673,2.865,4.277.872,7.684-1.566,8.109-4.721a4.459,4.459,0,0,0-2.148-4.459c1.4,1.683,1.108,4.691-1.945,6.822a6.331,6.331,0,0,1-5.022,1.192,3.791,3.791,0,0,1-2.949-3.87,7.637,7.637,0,0,0,1.633,4.108Z" fill="#ccc"/>
        <path id="Path_16363" data-name="Path 16363" d="M238.144,164.492a6.939,6.939,0,1,0,6.938,6.94,6.939,6.939,0,0,0-6.938-6.94Zm3.411,5.312-4,4a.5.5,0,0,1-.707,0l0,0-1.866-1.866a.5.5,0,0,1,.71-.71l1.511,1.511,3.645-3.646a.5.5,0,0,1,.71.71Z" fill="#fc6e20"/>
        <path id="Path_16364" data-name="Path 16364" d="M264.186,34.818a.755.755,0,0,1-.714-.517A33.145,33.145,0,0,0,244.49,14.159a.753.753,0,1,1,.556-1.4A34.663,34.663,0,0,1,264.9,33.828a.753.753,0,0,1-.478.952h0a.757.757,0,0,1-.236.038Z"/>
        <path id="Path_16365" data-name="Path 16365" d="M264.25,23.578a.758.758,0,0,1-.7-.48,17.348,17.348,0,0,0-7.015-8.412.754.754,0,1,1,.745-1.31l.045.028a18.871,18.871,0,0,1,7.63,9.146.751.751,0,0,1-.7,1.027Z"/>
        <path id="Path_16366" data-name="Path 16366" d="M245.807,192.692a.752.752,0,0,1-.03-1.063h0a39.984,39.984,0,0,0,10.692-30.455.753.753,0,0,1,1.5-.126,41.514,41.514,0,0,1-11.1,31.618.753.753,0,0,1-1.064.03Z"/>
        <path id="Path_16367" data-name="Path 16367" d="M38.556,130.344a46.228,46.228,0,0,1-.433-35.624.753.753,0,0,1,1.4.567,44.715,44.715,0,0,0,.42,34.457.753.753,0,0,1-1.382.6Z"/>
        <path id="Path_16368" data-name="Path 16368" d="M29.313,117.477a.752.752,0,0,1-.72-.536,26.418,26.418,0,0,1-.885-11.071.755.755,0,0,1,1.5.181v.019a24.9,24.9,0,0,0,.833,10.436.755.755,0,0,1-.508.938.768.768,0,0,1-.213.031Z"/>
        <path id="Path_16369" data-name="Path 16369" d="M127.228,103.413h0a15.567,15.567,0,1,0-5.31-8.886,15.567,15.567,0,0,0,5.31,8.886M132.063,80.2a12.337,12.337,0,1,1-6.1,16.35,12.337,12.337,0,0,1,6.1-16.35h0"/>
        <path id="Path_16370" data-name="Path 16370" d="M137.2,107.765a16.361,16.361,0,0,1-7.541-1.842,16.124,16.124,0,0,1-2.864-1.9l-.04-.03a16.13,16.13,0,0,1-4.417-5.78,16.348,16.348,0,1,1,18.082,9.228,16.121,16.121,0,0,1-3.22.325Zm-9.521-4.961.042.032a14.659,14.659,0,0,0,2.632,1.745,14.841,14.841,0,1,0-6.643-7,14.641,14.641,0,0,0,3.974,5.217Zm9.5,1.713a13.062,13.062,0,1,1,1.423-.071,13.293,13.293,0,0,1-1.423.071m.02-24.691a11.581,11.581,0,1,0,10.543,6.76,11.58,11.58,0,0,0-10.543-6.76Z"/>
        <path id="Path_16371" data-name="Path 16371" d="M203.8,90.389h-.039L175.59,88.961a.754.754,0,0,1-.714-.752V58.128a.753.753,0,0,1,1.506,0V87.492l26.669,1.351v-39.6l-12.35.624a.753.753,0,0,1-.077-1.5l13.142-.664a.755.755,0,0,1,.791.714V89.636a.753.753,0,0,1-.752.753Z"/>
        <path id="Path_16372" data-name="Path 16372" d="M239.937,91.922h-.04l-28.174-1.47a.754.754,0,0,1-.713-.752V50.3a.754.754,0,0,1,.713-.752l28.174-1.47a.752.752,0,0,1,.791.711c0,.013,0,.027,0,.04v42.34a.753.753,0,0,1-.753.753Zm-27.423-2.938,26.669,1.392V49.621l-26.669,1.392Z"/>
        <path id="Path_16373" data-name="Path 16373" d="M218.139,67.521v9.718a.772.772,0,0,0,.728.764l2.048.1a.69.69,0,0,0,.727-.651c0-.013,0-.027,0-.04V73.4l4.5,4.618a1.278,1.278,0,0,0,.863.394l6.874.341a1.326,1.326,0,0,0,1.412-1.234q0-.033,0-.066c.026-3.225-3.511-3.678-6.173-5.483a2.04,2.04,0,0,1-.917-1.07c-.688-2.034-.875-2.235-.875-2.825V64.5a.72.72,0,0,0-.678-.712l-4.235-.21a.635.635,0,0,0-.653.469l-.968,3.574-.97-3.67a.722.722,0,0,0-.654-.535l-1.18-.058a.643.643,0,0,0-.677.607.659.659,0,0,0,.019.193Z" fill="#fc6e20"/>
        <path id="Path_16374" data-name="Path 16374" d="M192.708,62.094c-.114-.015-.783-.1-.877-.11a1.964,1.964,0,0,1-3.9-.145q-.515-.015-1.026.021c.483,3.669,5.381,3.87,5.8.234Z" fill="#fc6e20"/>
        <path id="Path_16375" data-name="Path 16375" d="M181.84,68.765a.78.78,0,0,0,1.086.2.7.7,0,0,0,.069-.053l1.5-1.368.089,10.585a1.357,1.357,0,0,0,1.228,1.366l8.407.389a1.187,1.187,0,0,0,1.2-1.172c0-.027,0-.055,0-.082l-.089-10.6,1.562,1.533a.765.765,0,0,0,1.081.037.748.748,0,0,0,.072-.077l1.311-1.585a.966.966,0,0,0-.085-1.255c-4.216-3.6-2.941-4.011-6.114-4.524-.44,4.249-6.169,4-6.707-.252-3.06.241-1.562.564-5.882,3.912a.93.93,0,0,0-.065,1.249Z" fill="#fc6e20"/>
        <path id="Path_16376" data-name="Path 16376" d="M91.681,16.377a1,1,0,0,0,1.392-.018l1.738-1.747V27.568a.991.991,0,0,0,.992.99h14.8a.992.992,0,0,0,1-.984V14.611l1.738,1.747a1,1,0,0,0,1.392.018l2.708-2.569a1,1,0,0,0,.035-1.414c-.014-.015-.029-.029-.044-.043L111.568,6.9a1.8,1.8,0,0,0-.934-.458l-3.4-.57c-.009.034-.024.065-.034.1l-3.585-1.09V4.016a2.029,2.029,0,1,0-2.44-1.985.405.405,0,0,0,.81,0,1.218,1.218,0,1,1,1.221,1.215h0a.406.406,0,0,0-.4.406V4.875L99.092,6.01c-.012-.039-.03-.075-.041-.114l-3.276.542a1.807,1.807,0,0,0-.934.458l-5.857,5.456a1,1,0,0,0-.042,1.414l.033.033ZM103.206,5.6l3.689,1.122a4.289,4.289,0,0,1-7.49.04Z" stroke="rgba(0,0,0,0)" stroke-width="1"/>
        <path id="Path_16377" data-name="Path 16377" d="M235.825,149.508a2.278,2.278,0,0,0-2.239-1.89h-2.1v-1.7a4.372,4.372,0,1,0-8.744,0v1.7h-2.1a2.261,2.261,0,0,0-2.239,1.89l-3.044,18.277a2.282,2.282,0,0,0,1.911,2.6,2.393,2.393,0,0,0,.328.026h12.974a6.934,6.934,0,0,1,6.921-6.5c.242,0,.485.019.717.039Zm-12.5-3.587a3.791,3.791,0,0,1,7.581,0v1.7h-7.581ZM232,159.1l-1.735,1.7.407,2.4a.969.969,0,0,1-1.406,1.018l-2.152-1.134-2.152,1.134a.962.962,0,0,1-1.4-1.018l.407-2.4-1.745-1.7a.977.977,0,0,1,.543-1.658l2.4-.349,1.066-2.171a.978.978,0,0,1,1.755,0l1.066,2.171,2.394.349a.971.971,0,0,1,.543,1.658Z"/>
      </g>
    </g>
  </g>
</svg>
