<svg width="58" height="28" viewBox="0 0 58 28" fill="none" xmlns="http://www.w3.org/2000/svg">
<g clip-path="url(#clip0_211_575)">
<rect width="58" height="28" rx="3" fill="white"/>
<path d="M21.055 20.1361C20.7038 20.1361 20.367 19.9966 20.1187 19.7483C19.8704 19.5 19.731 19.1632 19.731 18.8121V9.1791C19.731 8.82796 19.8704 8.49119 20.1187 8.24289C20.367 7.9946 20.7038 7.8551 21.055 7.8551C21.4061 7.8551 21.7429 7.9946 21.9912 8.24289C22.2395 8.49119 22.379 8.82796 22.379 9.1791V18.8121C22.379 18.986 22.3447 19.1581 22.2782 19.3188C22.2116 19.4794 22.1141 19.6254 21.9912 19.7483C21.8682 19.8713 21.7223 19.9688 21.5616 20.0353C21.401 20.1019 21.2288 20.1361 21.055 20.1361Z" fill="#89C8E9"/>
<path d="M36.9451 20.1361C36.5939 20.1361 36.2572 19.9966 36.0089 19.7483C35.7606 19.5 35.6211 19.1632 35.6211 18.8121V9.18606C35.6211 8.83491 35.7606 8.49815 36.0089 8.24985C36.2572 8.00155 36.5939 7.86206 36.9451 7.86206C37.2962 7.86206 37.633 8.00155 37.8813 8.24985C38.1296 8.49815 38.2691 8.83491 38.2691 9.18606V18.8121C38.2691 18.9859 38.2348 19.1581 38.1683 19.3187C38.1018 19.4794 38.0042 19.6253 37.8813 19.7483C37.7584 19.8712 37.6124 19.9687 37.4518 20.0353C37.2911 20.1018 37.119 20.1361 36.9451 20.1361Z" fill="#0EAEDD"/>
<path d="M29 24.0001C28.6494 24.0001 28.3131 23.861 28.0649 23.6134C27.8167 23.3657 27.6768 23.0297 27.676 22.6791V5.32412C27.676 4.97298 27.8155 4.63621 28.0638 4.38791C28.3121 4.13961 28.6489 4.00012 29 4.00012C29.3512 4.00012 29.6879 4.13961 29.9362 4.38791C30.1845 4.63621 30.324 4.97298 30.324 5.32412V22.6791C30.324 22.853 30.2898 23.0252 30.2232 23.1858C30.1567 23.3464 30.0592 23.4924 29.9362 23.6153C29.8133 23.7383 29.6673 23.8358 29.5067 23.9023C29.3461 23.9689 29.1739 24.0031 29 24.0031" fill="#2E80C3"/>
</g>
<defs>
<clipPath id="clip0_211_575">
<rect width="58" height="28" rx="3" fill="white"/>
</clipPath>
</defs>
</svg>
