<svg id="remove" xmlns="http://www.w3.org/2000/svg" width="12.728" height="14" viewBox="0 0 12.728 14">
  <path id="Path_16676" data-name="Path 16676" d="M.636,2.545H12.091a.636.636,0,0,1,.636.636h0a.636.636,0,0,1-.636.636H.636A.636.636,0,0,1,0,3.182H0a.636.636,0,0,1,.636-.636Z"/>
  <path id="Path_16677" data-name="Path 16677" d="M8.273,14H4.455a2.545,2.545,0,0,1-2.545-2.545V2.545h8.909v8.909A2.545,2.545,0,0,1,8.273,14ZM3.182,3.818v7.636a1.273,1.273,0,0,0,1.273,1.273H8.273a1.273,1.273,0,0,0,1.273-1.273V3.818Z"/>
  <path id="Path_16678" data-name="Path 16678" d="M5.091,0H7.636a.636.636,0,0,1,.636.636h0a.636.636,0,0,1-.636.636H5.091A.636.636,0,0,1,4.455.636h0A.636.636,0,0,1,5.091,0Z"/>
  <path id="Path_16679" data-name="Path 16679" d="M6.364,5.091h0A.636.636,0,0,1,7,5.727v5.091a.636.636,0,0,1-.636.636h0a.636.636,0,0,1-.636-.636V5.727A.636.636,0,0,1,6.364,5.091Z"/>
</svg>
