<svg id="save_for_later" xmlns="http://www.w3.org/2000/svg" width="14" height="13.847" viewBox="0 0 14 13.847">
  <path id="Path_16680" data-name="Path 16680" d="M13.426,1.615,12.186.493A1.776,1.776,0,0,0,10.984,0H2.9A1.781,1.781,0,0,0,1.638.524L.524,1.638A1.777,1.777,0,0,0,0,2.9v8.7a2.247,2.247,0,0,0,2.244,2.244H5.737a.606.606,0,1,0,0-1.213H2.244A1.033,1.033,0,0,1,1.213,11.6V3.017h11.57V11.6a1.028,1.028,0,0,1-1.023,1.031H10.438a.606.606,0,0,0,0,1.213H11.76A2.242,2.242,0,0,0,14,11.607V2.93a1.8,1.8,0,0,0-.574-1.315ZM2.068,1.8l.425-.426a.569.569,0,0,1,.4-.167h8.09a.555.555,0,0,1,.383.153l.473.44Z"/>
  <path id="Path_16681" data-name="Path 16681" d="M9.861,8.743a.616.616,0,0,1-.262.4L7.424,10.6a.831.831,0,0,1-.924,0L4.24,9.124l-.005,0a.62.62,0,0,1,.676-1.036l.011.006,1.414.92L6.3,5.386a.62.62,0,1,1,1.241,0l.033,3.627.878-.593h-.01l.459-.31a.622.622,0,0,1,.647-.029h.01l0,0a.62.62,0,0,1,.3.659Z"/>
</svg>
