<svg id="splashlogo" xmlns="http://www.w3.org/2000/svg" xmlns:xlink="http://www.w3.org/1999/xlink" width="138.417" height="106" viewBox="0 0 138.417 106">
  <defs>
    <linearGradient id="linear-gradient" x1="0.03" y1="0.163" x2="0.963" y2="0.928" gradientUnits="objectBoundingBox">
      <stop offset="0" stop-color="#fbb96a"/>
      <stop offset="1" stop-color="#fc695f"/>
    </linearGradient>
  </defs>
  <path id="Path_5852" data-name="Path 5852" d="M13.5-89.044a4.681,4.681,0,0,0,1.947,2.933,6.9,6.9,0,0,0,3.666.86,17.382,17.382,0,0,0,3.287-.354,19.859,19.859,0,0,0,3.591-1.062,16.2,16.2,0,0,1,1.239,3.135,14.845,14.845,0,0,1,.582,3.793,26.282,26.282,0,0,1-9.2,1.669,17.265,17.265,0,0,1-6.246-1.011,11.081,11.081,0,0,1-4.248-2.807,11.265,11.265,0,0,1-2.427-4.272A17.858,17.858,0,0,1,4.9-91.572a17.651,17.651,0,0,1,.808-5.411,12.427,12.427,0,0,1,2.428-4.4,11.447,11.447,0,0,1,4.045-2.958,13.748,13.748,0,0,1,5.664-1.087,11.907,11.907,0,0,1,4.779.91,10.405,10.405,0,0,1,3.565,2.5,10.872,10.872,0,0,1,2.251,3.843,14.738,14.738,0,0,1,.783,4.88A21.4,21.4,0,0,1,29.1-90.84q-.127,1.087-.228,1.8Zm4.046-9.962a4.1,4.1,0,0,0-2.781,1.011A4.54,4.54,0,0,0,13.4-94.86h8.092A4.936,4.936,0,0,0,20.4-97.818,3.5,3.5,0,0,0,17.547-99.006Zm30.191-1.871q2.124.86,3.818,1.744a11.455,11.455,0,0,1,2.908,2.124,8.47,8.47,0,0,1,1.871,2.983,12.009,12.009,0,0,1,.657,4.223,11.98,11.98,0,0,1-.936,4.829A10.031,10.031,0,0,1,53.3-81.283a12.739,12.739,0,0,1-4.476,2.377,20.332,20.332,0,0,1-6.094.834,27.082,27.082,0,0,1-5.538-.506,34.665,34.665,0,0,1-5.183-1.567,28.67,28.67,0,0,1,.708-3.767q.506-2,1.213-4.071a20.864,20.864,0,0,0,8.092,2.022,8.512,8.512,0,0,0,4.021-.783,2.824,2.824,0,0,0,1.443-2.706,2.971,2.971,0,0,0-.3-1.39,3.062,3.062,0,0,0-.809-.986,5.1,5.1,0,0,0-1.138-.683q-.632-.278-1.29-.531L41.114-94.1A18.225,18.225,0,0,1,37.8-95.668a10.608,10.608,0,0,1-2.554-2.15,9.044,9.044,0,0,1-1.643-2.857,11.215,11.215,0,0,1-.581-3.793,11.722,11.722,0,0,1,.91-4.753,9.9,9.9,0,0,1,2.553-3.514,10.906,10.906,0,0,1,3.97-2.174,17.286,17.286,0,0,1,5.209-.733,24.123,24.123,0,0,1,4.981.506,41.007,41.007,0,0,1,5.133,1.467,25.856,25.856,0,0,1-.733,3.565,22.484,22.484,0,0,1-1.34,3.667Q52.391-107,50.621-107.6a13.712,13.712,0,0,0-4.4-.607,7.6,7.6,0,0,0-1.542.152,4.512,4.512,0,0,0-1.315.48,2.549,2.549,0,0,0-.936.91,2.726,2.726,0,0,0-.354,1.441,2.522,2.522,0,0,0,.961,2.174,9.665,9.665,0,0,0,2.276,1.213ZM77.93-88.336H70.445v9.608q-1.315.2-2.377.3t-1.922.1q-.86,0-1.922-.1t-2.326-.3v-26.093a17.047,17.047,0,0,1,2.2-.354q1.087-.1,2.1-.1.961,0,2.073.1a15.394,15.394,0,0,1,2.175.354v8.9H77.93v-8.9a17.047,17.047,0,0,1,2.2-.354q1.087-.1,2.1-.1.961,0,2.073.1a15.4,15.4,0,0,1,2.175.354v26.093q-1.315.2-2.377.3t-1.922.1q-.86,0-1.922-.1t-2.326-.3Zm12.946-3.287a18.075,18.075,0,0,1,.834-5.638,11.987,11.987,0,0,1,2.478-4.374,10.939,10.939,0,0,1,4.071-2.807,14.833,14.833,0,0,1,5.614-.986,14.982,14.982,0,0,1,5.664.986,10.939,10.939,0,0,1,4.071,2.806,11.986,11.986,0,0,1,2.478,4.374,18.075,18.075,0,0,1,.835,5.639,17.429,17.429,0,0,1-.835,5.537,11.8,11.8,0,0,1-2.478,4.3,10.829,10.829,0,0,1-4.071,2.755,15.331,15.331,0,0,1-5.664.961,15.18,15.18,0,0,1-5.614-.961,10.828,10.828,0,0,1-4.071-2.756,11.8,11.8,0,0,1-2.478-4.3,17.43,17.43,0,0,1-.834-5.536Zm17.4,0a9.318,9.318,0,0,0-1.087-4.956,3.651,3.651,0,0,0-3.312-1.72,3.591,3.591,0,0,0-3.287,1.72,9.5,9.5,0,0,0-1.062,4.957,9.378,9.378,0,0,0,1.062,4.905A3.592,3.592,0,0,0,103.874-85a3.65,3.65,0,0,0,3.313-1.72A9.2,9.2,0,0,0,108.274-91.623Zm21.392.3a5.008,5.008,0,0,0,.632.076q.379.025.632.025a4.6,4.6,0,0,0,2.908-.885,3.588,3.588,0,0,0,1.138-3.009,3.513,3.513,0,0,0-1.138-2.806,4.134,4.134,0,0,0-2.806-.986h-.582a6.323,6.323,0,0,0-.783.051Zm-8.344-13.4q2.326-.353,4.779-.53t4.729-.177a23.943,23.943,0,0,1,4.552.43,11.258,11.258,0,0,1,3.995,1.567,8.435,8.435,0,0,1,2.857,3.135,10.8,10.8,0,0,1,1.087,5.184,10.783,10.783,0,0,1-.986,4.855,8.849,8.849,0,0,1-2.6,3.186,10.389,10.389,0,0,1-3.666,1.744,16.559,16.559,0,0,1-4.172.531q-.86,0-1.467-.051a4.454,4.454,0,0,1-.759-.1v6.22a20.549,20.549,0,0,1-2.352.329q-1.037.076-1.846.076-.86,0-1.846-.076a20.886,20.886,0,0,1-2.3-.329Z" transform="translate(-4.903 166.143)" fill="url(#linear-gradient)"/>
  <path id="Delivery_Time" data-name="Delivery Time" d="M8.052-2.284c0-2.78-.4-6.391-.4-6.391a5.123,5.123,0,0,0,.411-1.344c0-.046-.422-.057-.559-.057a6.748,6.748,0,0,0-1.552.1,26.073,26.073,0,0,0-1.5,3.543c-.011.046-.034.068-.057.068s-.057-.057-.057-.057c-.251-.775-1.187-3.475-1.278-3.554a6.172,6.172,0,0,0-.97-.057,8.132,8.132,0,0,0-1.484.114A.05.05,0,0,0,.6-9.882a2.824,2.824,0,0,0,.445,1.151S.611-4.243.611-2.1a1,1,0,0,0,.411.068,2.08,2.08,0,0,0,1.153-.273,16.59,16.59,0,0,1-.057-1.732,24.774,24.774,0,0,1,.205-3.645c.011-.057.023-.08.034-.08s.034.023.057.068c.16.205,1.472,3.953,1.484,4a1.146,1.146,0,0,0,.5.1c.16,0,.445-.046.479-.125a32.818,32.818,0,0,1,1.427-4.01S6.34-7.8,6.375-7.8c.011,0,.023.011.034.057.068.365.16,2.723.16,4.4,0,.547-.011,1.014-.034,1.321-.011.046.171.046.32.046A2.1,2.1,0,0,0,8.052-2.284Zm4.36-.649c.057.706.3,1,.342,1a1.978,1.978,0,0,0,1.267-.615,1.985,1.985,0,0,1-.308-.911,7.013,7.013,0,0,1-.046-1c0-1.253.091-3.1.091-3.178a.714.714,0,0,0-.285-.046,1.484,1.484,0,0,0-1.016.33c-.034.08-.068,1.435-.068,2.244v.387c.011.1-.331.866-.924.866-.651,0-.639-.923-.639-.923-.011-.205-.023-.444-.023-.695,0-.832.068-1.743.068-1.823-.057-.057-.32-.057-.32-.057a1.6,1.6,0,0,0-.959.239,16.846,16.846,0,0,0-.1,2.221c0,.33.011.615.023.763.08.843.342,1.857,1.369,1.857A1.94,1.94,0,0,0,12.389-3.2s.011,0,.011.023Zm4.28-4.272c0-.854.034-2.791.057-2.962,0-.023-.183-.046-.285-.046-.411,0-1.073.251-1.073.41,0,.125.046.41.046,1.561,0,1.811-.046,2.962-.046,4.124,0,.558,0,1.014.011,1.2.068.706.308,1,.354,1a1.978,1.978,0,0,0,1.267-.615,1.836,1.836,0,0,1-.331-.911c-.023-.182-.023-.535-.023-.968C16.669-5.5,16.692-6.351,16.692-7.205Zm3.264-2.757c0-.023-.183-.046-.285-.046-.411,0-1.1.251-1.1.41a8.453,8.453,0,0,1,.068,1.082c-.354.011-.6.023-.6.023a1.287,1.287,0,0,0-.1.627.892.892,0,0,0,.057.4s.285-.011.639-.011C18.62-7.023,18.6-5.3,18.6-4.072c0,.57,0,1.037.023,1.219A1.485,1.485,0,0,0,19.1-1.783a1.751,1.751,0,0,0,1.267-.6,1.534,1.534,0,0,1-.468-.968c-.023-.239-.034-.843-.034-1.606s.011-1.7.023-2.54h.536c.126,0,.331-.444.331-.991a4.929,4.929,0,0,0-.856-.034C19.921-9.256,19.944-9.814,19.956-9.962Zm3.287,1.424a.693.693,0,0,0-.708-.763.838.838,0,0,0-.81.763.677.677,0,0,0,.7.775A.841.841,0,0,0,23.242-8.538Zm-.434,1.424a1.584,1.584,0,0,0-.924.205c-.046.091-.08,1.823-.08,3,0,.467.011.843.023.991.068.706.3,1,.342,1a1.978,1.978,0,0,0,1.267-.615,1.86,1.86,0,0,1-.308-.911c-.023-.194-.034-.649-.034-1.173,0-1.048.034-2.37.034-2.426C23.071-7.114,22.809-7.114,22.809-7.114ZM29.77-1.954a4.1,4.1,0,0,0,1.689-.273c.3-.3,2.351-5.969,2.351-8.122,0-.023-.171-.046-.171-.046a9.2,9.2,0,0,0-2.1.285,1.5,1.5,0,0,0-.16.627.169.169,0,0,0,.011.08c.262.023.719.3.719.478a17.23,17.23,0,0,1-1.461,5.3c-.011.057-.08.125-.126.125s-.126-.148-.126-.148a35.74,35.74,0,0,1-1.769-6.266c0-.034-.24-.034-.24-.034a2.278,2.278,0,0,0-1.187.308,26.625,26.625,0,0,0,2.431,7.667A.289.289,0,0,0,29.77-1.954ZM37.7-6.123c0,.763-1,1.447-1.484,1.458-.046,0-.046-.034-.046-.159,0-.9.559-1.629,1.175-1.629A.322.322,0,0,1,37.7-6.123Zm-.5,3.885a2.917,2.917,0,0,0,1.5-.262,1.843,1.843,0,0,0,.285-1.025c0-.068-.011-.216-.034-.216a.04.04,0,0,0-.023.011,2.762,2.762,0,0,1-1.369.308c-.593,0-.833-.239-.833-.308a3.008,3.008,0,0,0,2.317-2.506A1.278,1.278,0,0,0,37.6-7.479a2.655,2.655,0,0,0-2.762,2.837A2.213,2.213,0,0,0,37.2-2.238Zm3.344-1.686a12.811,12.811,0,0,1-.08,1.686c0,.034.08.034.171.034a2.09,2.09,0,0,0,1.175-.308,8.437,8.437,0,0,0,.046-1.265c0-.718-.011-1.458-.011-1.447s.205-.809.947-.809c.628,0,.673.866.673,1.971a17.757,17.757,0,0,1-.114,1.948,1.234,1.234,0,0,0,.377.057,1.829,1.829,0,0,0,.981-.228s.034-.581.034-1.333c0-1.948-.034-3.816-1.461-3.816a1.941,1.941,0,0,0-1.4.718s-.023.023-.034.023-.034-.046-.034-.228c0-.216.023-.5.034-.592,0-.034-.137-.057-.24-.057a1.752,1.752,0,0,0-1.039.319,2.274,2.274,0,0,0-.057.763C40.509-5.815,40.544-4.824,40.544-3.924Zm10-6.243c0-.023-.183-.046-.285-.046a1.786,1.786,0,0,0-1.05.4,3.916,3.916,0,0,0-.034.74c0,.661.023,1.561.023,1.686a2.991,2.991,0,0,0-3.081,3.144,1.814,1.814,0,0,0,1.655,1.959,1.7,1.7,0,0,0,1.427-.684s.023-.023.034-.023.023,0,.023.034a1.248,1.248,0,0,0,.365.866,2.015,2.015,0,0,0,1.278-.6,1.661,1.661,0,0,1-.377-.911c-.057-.342-.068-1.435-.068-2.3C50.45-7.046,50.5-9.222,50.541-10.167Zm-1.358,5.65c0,.137-.251.911-.913.911-.548,0-.787-.433-.787-.957a1.52,1.52,0,0,1,1.564-1.652s.183,0,.171.023C49.194-5.918,49.183-4.688,49.183-4.517ZM54.6-2.2A2.48,2.48,0,0,0,57.046-4.87a1.9,1.9,0,0,0-1.3-2,3.075,3.075,0,0,0,.034-.41.378.378,0,0,0-.023-.159,2.237,2.237,0,0,0-.616-.091,2.83,2.83,0,0,0-2.933,2.848A2.292,2.292,0,0,0,54.6-2.2Zm1.13-2.563c0,1.014-.593,1.413-1.13,1.413-1.1,0-1.1-1.253-1.1-1.367a1.43,1.43,0,0,1,1.278-1.595,1.824,1.824,0,0,0-.034.33.4.4,0,0,0,.023.148h.091C55.106-5.838,55.734-5.747,55.734-4.767ZM61.68-7.012a.88.88,0,0,0-.091-.433,2.269,2.269,0,0,0-1.7.911c-.023.023-.034.023-.046.023s-.023-.239-.023-.262c0-.3.023-.729.034-.832,0-.034-.137-.057-.24-.057a1.752,1.752,0,0,0-1.039.319,2.536,2.536,0,0,0-.046.718c0,.661.023,1.675.023,2.586a12.524,12.524,0,0,1-.08,1.8c0,.034.046.034.091.034a2.19,2.19,0,0,0,1.255-.308,11.874,11.874,0,0,0,.034-1.4v-1A1.471,1.471,0,0,1,61.326-6a1.2,1.2,0,0,1,.148.023A1.85,1.85,0,0,0,61.68-7.012Z" transform="translate(38.251 107.782)" fill="url(#linear-gradient)"/>
  <path id="Path_6381" data-name="Path 6381" d="M946.477,1151.9h0v0Z" transform="translate(-844.169 -1103.254)" fill="url(#linear-gradient)"/>
  <path id="Path_6382" data-name="Path 6382" d="M637.543,385.006v42.366a1.27,1.27,0,0,1-1.271,1.269h-6.6l-2.126,3.818V409.228h0V391.593l-.006,0-12.079,7.86h0l-4.865-3.167-.337-.218-4.538-2.953-2.356-1.533v25.365l7.23,4.323V404.9h0l4.864,3.165h0l4.855-3.16v23.731H593.828a1.27,1.27,0,0,1-1.271-1.269V385.006a1.27,1.27,0,0,1,1.271-1.269h42.443a1.269,1.269,0,0,1,1.272,1.269Z" transform="translate(-512.802 -383.737)" fill="url(#linear-gradient)"/>
  <path id="Path_6383" data-name="Path 6383" d="M946.452,1151.77v.011l-.005,0Z" transform="translate(-844.141 -1103.132)" fill="url(#linear-gradient)"/>
</svg>
